<svg xmlns="http://www.w3.org/2000/svg" xmlns:xlink="http://www.w3.org/1999/xlink" width="317" zoomAndPan="magnify" viewBox="0 0 237.75 202.499994" height="270" preserveAspectRatio="xMidYMid meet" version="1.0"><defs><filter x="0%" y="0%" width="100%" height="100%" id="c7c258c67f"><feColorMatrix values="0 0 0 0 1 0 0 0 0 1 0 0 0 0 1 0 0 0 1 0" color-interpolation-filters="sRGB"/></filter><g/><clipPath id="3e2fddd851"><path d="M 53 2 L 157 2 L 157 107 L 53 107 Z M 53 2 " clip-rule="nonzero"/></clipPath><clipPath id="ae180b2bfe"><path d="M 153.777344 0 L 161.835938 154.65625 L 7.925781 162.675781 L -0.132812 8.019531 Z M 153.777344 0 " clip-rule="nonzero"/></clipPath><clipPath id="9e7b8dbe2e"><path d="M 153.777344 0 L 161.835938 154.65625 L 7.925781 162.675781 L -0.132812 8.019531 Z M 153.777344 0 " clip-rule="nonzero"/></clipPath><clipPath id="5c881331ef"><path d="M 49 89 L 74 89 L 74 112 L 49 112 Z M 49 89 " clip-rule="nonzero"/></clipPath><clipPath id="90e5f82ed7"><path d="M 153.777344 0 L 161.835938 154.65625 L 7.925781 162.675781 L -0.132812 8.019531 Z M 153.777344 0 " clip-rule="nonzero"/></clipPath><clipPath id="6f10ac87e3"><path d="M 153.777344 0 L 161.835938 154.65625 L 7.925781 162.675781 L -0.132812 8.019531 Z M 153.777344 0 " clip-rule="nonzero"/></clipPath><clipPath id="36d69da0b3"><path d="M 7 108 L 59 108 L 59 162 L 7 162 Z M 7 108 " clip-rule="nonzero"/></clipPath><clipPath id="140eb6d960"><path d="M 153.777344 0 L 161.835938 154.65625 L 7.925781 162.675781 L -0.132812 8.019531 Z M 153.777344 0 " clip-rule="nonzero"/></clipPath><clipPath id="a26ead5c00"><path d="M 153.777344 0 L 161.835938 154.65625 L 7.925781 162.675781 L -0.132812 8.019531 Z M 153.777344 0 " clip-rule="nonzero"/></clipPath><clipPath id="5c9ceece6f"><path d="M 68 18 L 123 18 L 123 70 L 68 70 Z M 68 18 " clip-rule="nonzero"/></clipPath><clipPath id="506426acd0"><path d="M 153.777344 0 L 161.835938 154.65625 L 7.925781 162.675781 L -0.132812 8.019531 Z M 153.777344 0 " clip-rule="nonzero"/></clipPath><clipPath id="cd8b0a6c26"><path d="M 153.777344 0 L 161.835938 154.65625 L 7.925781 162.675781 L -0.132812 8.019531 Z M 153.777344 0 " clip-rule="nonzero"/></clipPath><clipPath id="0f0bbc4d46"><path d="M 55 8 L 152 8 L 152 105 L 55 105 Z M 55 8 " clip-rule="nonzero"/></clipPath><clipPath id="6884abea77"><path d="M 148.539062 5.867188 L 156.054688 150.066406 L 13.351562 157.503906 L 5.835938 13.304688 Z M 148.539062 5.867188 " clip-rule="nonzero"/></clipPath><clipPath id="9770ae48fa"><path d="M 148.539062 5.867188 L 156.054688 150.066406 L 13.351562 157.503906 L 5.835938 13.304688 Z M 148.539062 5.867188 " clip-rule="nonzero"/></clipPath><clipPath id="db78d02fa6"><path d="M 51 89 L 74 89 L 74 110 L 51 110 Z M 51 89 " clip-rule="nonzero"/></clipPath><clipPath id="6faaba56f3"><path d="M 148.539062 5.867188 L 156.054688 150.066406 L 13.351562 157.503906 L 5.835938 13.304688 Z M 148.539062 5.867188 " clip-rule="nonzero"/></clipPath><clipPath id="fdb5c986f7"><path d="M 148.539062 5.867188 L 156.054688 150.066406 L 13.351562 157.503906 L 5.835938 13.304688 Z M 148.539062 5.867188 " clip-rule="nonzero"/></clipPath><clipPath id="73dda36929"><path d="M 13 106 L 60 106 L 60 157 L 13 157 Z M 13 106 " clip-rule="nonzero"/></clipPath><clipPath id="7092ca577a"><path d="M 148.539062 5.867188 L 156.054688 150.066406 L 13.351562 157.503906 L 5.835938 13.304688 Z M 148.539062 5.867188 " clip-rule="nonzero"/></clipPath><clipPath id="e1b93b4a08"><path d="M 148.539062 5.867188 L 156.054688 150.066406 L 13.351562 157.503906 L 5.835938 13.304688 Z M 148.539062 5.867188 " clip-rule="nonzero"/></clipPath><clipPath id="277160fb9d"><path d="M 69 22 L 120 22 L 120 71 L 69 71 Z M 69 22 " clip-rule="nonzero"/></clipPath><clipPath id="8ff5c4c3a1"><path d="M 148.539062 5.867188 L 156.054688 150.066406 L 13.351562 157.503906 L 5.835938 13.304688 Z M 148.539062 5.867188 " clip-rule="nonzero"/></clipPath><clipPath id="50f0d9dd21"><path d="M 148.539062 5.867188 L 156.054688 150.066406 L 13.351562 157.503906 L 5.835938 13.304688 Z M 148.539062 5.867188 " clip-rule="nonzero"/></clipPath><clipPath id="b256186d51"><path d="M 106.589844 37.761719 L 236.769531 37.761719 L 236.769531 141 L 106.589844 141 Z M 106.589844 37.761719 " clip-rule="nonzero"/></clipPath><mask id="2a19b39dce"><g filter="url(#c7c258c67f)"><rect x="-23.775" width="285.3" fill="#000000" y="-20.249999" height="242.999993" fill-opacity="0.4"/></g></mask><clipPath id="b43335a861"><path d="M 1 0.683594 L 90.777344 0.683594 L 90.777344 76.339844 L 1 76.339844 Z M 1 0.683594 " clip-rule="nonzero"/></clipPath><clipPath id="8627cfd681"><rect x="0" width="91" y="0" height="77"/></clipPath></defs><g clip-path="url(#3e2fddd851)"><g clip-path="url(#ae180b2bfe)"><g clip-path="url(#9e7b8dbe2e)"><path fill="#ffffff" d="M 53.101562 57.125 C 51.613281 28.625 73.59375 4.226562 102.097656 2.742188 C 130.601562 1.257812 154.996094 23.234375 156.480469 51.738281 C 157.964844 80.242188 135.988281 104.636719 107.484375 106.121094 C 78.980469 107.605469 54.585938 85.625 53.101562 57.125 Z M 147.976562 52.179688 C 147.90625 50.765625 147.761719 49.359375 147.550781 47.957031 C 147.339844 46.558594 147.058594 45.171875 146.710938 43.796875 C 146.359375 42.425781 145.945312 41.074219 145.464844 39.742188 C 144.984375 38.410156 144.4375 37.101562 143.828125 35.824219 C 143.21875 34.546875 142.550781 33.300781 141.816406 32.089844 C 141.085938 30.875 140.296875 29.703125 139.449219 28.566406 C 138.601562 27.429688 137.703125 26.339844 136.746094 25.292969 C 135.792969 24.246094 134.789062 23.25 133.738281 22.300781 C 132.683594 21.351562 131.589844 20.460938 130.449219 19.617188 C 129.308594 18.777344 128.128906 17.996094 126.914062 17.273438 C 125.695312 16.546875 124.445312 15.882812 123.164062 15.28125 C 121.882812 14.679688 120.574219 14.144531 119.238281 13.667969 C 117.902344 13.195312 116.546875 12.789062 115.171875 12.449219 C 113.796875 12.109375 112.410156 11.839844 111.007812 11.632812 C 109.605469 11.429688 108.199219 11.296875 106.785156 11.230469 C 105.367188 11.164062 103.953125 11.167969 102.539062 11.242188 C 101.125 11.316406 99.71875 11.460938 98.316406 11.671875 C 96.917969 11.882812 95.53125 12.164062 94.15625 12.511719 C 92.785156 12.859375 91.433594 13.277344 90.101562 13.757812 C 88.765625 14.238281 87.460938 14.78125 86.183594 15.390625 C 84.90625 16 83.660156 16.671875 82.445312 17.402344 C 81.234375 18.136719 80.058594 18.925781 78.925781 19.773438 C 77.789062 20.621094 76.699219 21.519531 75.652344 22.476562 C 74.605469 23.429688 73.609375 24.433594 72.660156 25.484375 C 71.710938 26.535156 70.816406 27.632812 69.976562 28.773438 C 69.136719 29.914062 68.355469 31.09375 67.628906 32.308594 C 66.90625 33.527344 66.242188 34.777344 65.640625 36.058594 C 65.039062 37.339844 64.5 38.648438 64.027344 39.984375 C 63.554688 41.320312 63.148438 42.671875 62.808594 44.046875 C 62.46875 45.421875 62.195312 46.8125 61.992188 48.214844 C 61.789062 49.617188 61.65625 51.023438 61.589844 52.4375 C 61.523438 53.851562 61.527344 55.269531 61.601562 56.683594 C 61.675781 58.097656 61.820312 59.503906 62.03125 60.90625 C 62.242188 62.304688 62.523438 63.691406 62.871094 65.066406 C 63.21875 66.4375 63.632812 67.789062 64.113281 69.121094 C 64.597656 70.453125 65.140625 71.761719 65.75 73.039062 C 66.359375 74.316406 67.03125 75.5625 67.761719 76.777344 C 68.496094 77.988281 69.285156 79.160156 70.132812 80.296875 C 70.976562 81.433594 71.878906 82.523438 72.832031 83.570312 C 73.789062 84.617188 74.789062 85.613281 75.84375 86.5625 C 76.894531 87.511719 77.992188 88.402344 79.132812 89.246094 C 80.273438 90.085938 81.449219 90.867188 82.667969 91.59375 C 83.882812 92.316406 85.132812 92.980469 86.417969 93.582031 C 87.699219 94.183594 89.007812 94.71875 90.34375 95.195312 C 91.675781 95.667969 93.03125 96.074219 94.40625 96.414062 C 95.78125 96.753906 97.171875 97.027344 98.570312 97.230469 C 99.972656 97.433594 101.382812 97.566406 102.796875 97.632812 C 104.210938 97.699219 105.625 97.695312 107.042969 97.621094 C 108.453125 97.542969 109.863281 97.398438 111.261719 97.1875 C 112.660156 96.972656 114.046875 96.691406 115.417969 96.34375 C 116.789062 95.992188 118.140625 95.578125 119.472656 95.09375 C 120.804688 94.613281 122.109375 94.066406 123.386719 93.457031 C 124.664062 92.847656 125.910156 92.175781 127.121094 91.445312 C 128.332031 90.710938 129.507812 89.921875 130.640625 89.074219 C 131.773438 88.226562 132.863281 87.328125 133.910156 86.371094 C 134.957031 85.417969 135.953125 84.414062 136.902344 83.363281 C 137.847656 82.3125 138.742188 81.214844 139.582031 80.074219 C 140.421875 78.9375 141.207031 77.757812 141.929688 76.542969 C 142.652344 75.324219 143.316406 74.078125 143.917969 72.796875 C 144.523438 71.515625 145.058594 70.207031 145.53125 68.871094 C 146.007812 67.539062 146.414062 66.183594 146.753906 64.808594 C 147.09375 63.433594 147.367188 62.046875 147.574219 60.644531 C 147.777344 59.246094 147.914062 57.835938 147.980469 56.421875 C 148.046875 55.007812 148.042969 53.59375 147.972656 52.179688 Z M 147.976562 52.179688 " fill-opacity="1" fill-rule="nonzero"/></g></g></g><g clip-path="url(#5c881331ef)"><g clip-path="url(#90e5f82ed7)"><g clip-path="url(#6f10ac87e3)"><path fill="#ffffff" d="M 49.457031 94.742188 C 49.433594 94.273438 49.476562 93.808594 49.589844 93.351562 C 49.703125 92.894531 49.878906 92.464844 50.121094 92.058594 C 50.359375 91.65625 50.65625 91.292969 51 90.976562 C 51.347656 90.65625 51.734375 90.398438 52.160156 90.195312 C 52.582031 89.992188 53.027344 89.851562 53.492188 89.78125 C 53.960938 89.710938 54.425781 89.707031 54.890625 89.773438 C 55.355469 89.839844 55.804688 89.972656 56.230469 90.171875 C 56.65625 90.371094 57.046875 90.625 57.394531 90.9375 L 71.34375 103.410156 C 71.597656 103.613281 71.832031 103.839844 72.039062 104.085938 C 72.25 104.335938 72.429688 104.601562 72.585938 104.890625 C 72.738281 105.175781 72.863281 105.472656 72.953125 105.785156 C 73.046875 106.097656 73.109375 106.414062 73.136719 106.738281 C 73.164062 107.058594 73.160156 107.382812 73.121094 107.707031 C 73.085938 108.027344 73.015625 108.34375 72.914062 108.652344 C 72.808594 108.960938 72.679688 109.253906 72.515625 109.535156 C 72.351562 109.816406 72.164062 110.078125 71.949219 110.320312 C 71.730469 110.5625 71.492188 110.78125 71.234375 110.976562 C 70.972656 111.167969 70.695312 111.335938 70.402344 111.472656 C 70.105469 111.609375 69.800781 111.714844 69.484375 111.789062 C 69.167969 111.863281 68.847656 111.90625 68.523438 111.917969 C 68.199219 111.925781 67.878906 111.902344 67.558594 111.84375 C 67.238281 111.789062 66.925781 111.699219 66.625 111.582031 C 66.324219 111.460938 66.039062 111.3125 65.765625 111.132812 C 65.496094 110.953125 65.246094 110.75 65.015625 110.519531 L 51.066406 98.046875 C 50.589844 97.625 50.210938 97.128906 49.929688 96.554688 C 49.652344 95.984375 49.496094 95.378906 49.457031 94.742188 Z M 49.457031 94.742188 " fill-opacity="1" fill-rule="nonzero"/></g></g></g><g clip-path="url(#36d69da0b3)"><g clip-path="url(#140eb6d960)"><g clip-path="url(#a26ead5c00)"><path fill="#ffffff" d="M 7.792969 154.191406 C 7.734375 153.09375 7.890625 152.027344 8.261719 150.992188 C 8.636719 149.957031 9.195312 149.035156 9.941406 148.226562 L 43.988281 111.328125 C 44.351562 110.933594 44.75 110.582031 45.183594 110.265625 C 45.617188 109.949219 46.078125 109.675781 46.566406 109.453125 C 47.050781 109.226562 47.558594 109.050781 48.078125 108.925781 C 48.601562 108.800781 49.128906 108.726562 49.664062 108.703125 C 50.203125 108.683594 50.734375 108.714844 51.265625 108.796875 C 51.796875 108.878906 52.3125 109.015625 52.816406 109.199219 C 53.320312 109.382812 53.800781 109.617188 54.257812 109.898438 C 54.71875 110.175781 55.144531 110.5 55.539062 110.863281 C 55.933594 111.226562 56.289062 111.625 56.605469 112.058594 C 56.917969 112.492188 57.191406 112.953125 57.414062 113.441406 C 57.640625 113.929688 57.816406 114.433594 57.941406 114.953125 C 58.066406 115.476562 58.140625 116.003906 58.164062 116.542969 C 58.183594 117.078125 58.15625 117.609375 58.070312 118.140625 C 57.988281 118.671875 57.855469 119.1875 57.667969 119.691406 C 57.484375 120.195312 57.25 120.675781 56.972656 121.132812 C 56.691406 121.59375 56.367188 122.019531 56.003906 122.414062 L 21.960938 159.308594 C 21.414062 159.898438 20.796875 160.398438 20.105469 160.808594 C 19.410156 161.214844 18.675781 161.515625 17.894531 161.707031 C 17.113281 161.898438 16.320312 161.972656 15.515625 161.929688 C 14.714844 161.886719 13.933594 161.726562 13.175781 161.453125 C 12.421875 161.179688 11.71875 160.804688 11.074219 160.324219 C 10.429688 159.84375 9.867188 159.28125 9.390625 158.636719 C 8.910156 157.992188 8.535156 157.289062 8.261719 156.53125 C 7.992188 155.777344 7.832031 154.996094 7.792969 154.191406 Z M 7.792969 154.191406 " fill-opacity="1" fill-rule="nonzero"/></g></g></g><g clip-path="url(#5c9ceece6f)"><g clip-path="url(#506426acd0)"><g clip-path="url(#cd8b0a6c26)"><path fill="#ffffff" d="M 68.378906 56.242188 C 68.03125 49.585938 69.480469 40.683594 76.238281 30.886719 C 82.164062 22.285156 91.75 17.964844 103.949219 18.386719 C 109.589844 18.601562 115.070312 19.65625 120.390625 21.546875 C 120.707031 21.671875 120.984375 21.851562 121.226562 22.085938 C 121.472656 22.320312 121.660156 22.589844 121.796875 22.898438 C 121.933594 23.207031 122.003906 23.53125 122.011719 23.867188 C 122.019531 24.207031 121.960938 24.53125 121.839844 24.847656 C 121.71875 25.160156 121.542969 25.441406 121.308594 25.6875 C 121.074219 25.929688 120.804688 26.121094 120.496094 26.257812 C 120.1875 26.394531 119.867188 26.46875 119.527344 26.480469 C 119.191406 26.488281 118.867188 26.433594 118.550781 26.3125 C 113.722656 24.625 108.757812 23.683594 103.648438 23.484375 C 93.195312 23.15625 85.398438 26.621094 80.453125 33.785156 C 68.253906 51.46875 75.769531 65.65625 75.851562 65.796875 C 76.019531 66.09375 76.128906 66.414062 76.171875 66.753906 C 76.214844 67.097656 76.1875 67.429688 76.09375 67.761719 C 76.003906 68.09375 75.847656 68.390625 75.636719 68.660156 C 75.421875 68.929688 75.164062 69.148438 74.863281 69.3125 C 74.5625 69.476562 74.242188 69.578125 73.898438 69.613281 C 73.558594 69.648438 73.222656 69.613281 72.894531 69.515625 C 72.566406 69.414062 72.269531 69.257812 72.003906 69.035156 C 71.742188 68.816406 71.53125 68.554688 71.371094 68.25 C 71.164062 67.898438 68.75 63.347656 68.378906 56.242188 Z M 68.378906 56.242188 " fill-opacity="1" fill-rule="nonzero"/></g></g></g><g fill="#ffffff" fill-opacity="1"><g transform="translate(54.691541, 175.489742)"><g><path d="M 19.265625 -29.3125 C 16.472656 -29.3125 14.3125 -28.257812 12.78125 -26.15625 C 11.25 -24.0625 10.484375 -21.140625 10.484375 -17.390625 C 10.484375 -9.585938 13.410156 -5.6875 19.265625 -5.6875 C 21.710938 -5.6875 24.6875 -6.300781 28.1875 -7.53125 L 28.1875 -1.3125 C 25.3125 -0.113281 22.101562 0.484375 18.5625 0.484375 C 13.476562 0.484375 9.585938 -1.054688 6.890625 -4.140625 C 4.191406 -7.234375 2.84375 -11.664062 2.84375 -17.4375 C 2.84375 -21.070312 3.503906 -24.257812 4.828125 -27 C 6.148438 -29.738281 8.050781 -31.835938 10.53125 -33.296875 C 13.019531 -34.753906 15.929688 -35.484375 19.265625 -35.484375 C 22.660156 -35.484375 26.070312 -34.660156 29.5 -33.015625 L 27.109375 -26.984375 C 25.796875 -27.609375 24.476562 -28.148438 23.15625 -28.609375 C 21.832031 -29.078125 20.535156 -29.3125 19.265625 -29.3125 Z M 19.265625 -29.3125 "/></g></g><g transform="translate(85.917233, 175.489742)"><g><path d="M 36.15625 -17.53125 C 36.15625 -11.75 34.71875 -7.300781 31.84375 -4.1875 C 28.96875 -1.070312 24.851562 0.484375 19.5 0.484375 C 14.132812 0.484375 10.015625 -1.070312 7.140625 -4.1875 C 4.273438 -7.300781 2.84375 -11.765625 2.84375 -17.578125 C 2.84375 -23.398438 4.28125 -27.847656 7.15625 -30.921875 C 10.039062 -33.992188 14.171875 -35.53125 19.546875 -35.53125 C 24.921875 -35.53125 29.03125 -33.984375 31.875 -30.890625 C 34.726562 -27.796875 36.15625 -23.34375 36.15625 -17.53125 Z M 10.625 -17.53125 C 10.625 -13.625 11.363281 -10.679688 12.84375 -8.703125 C 14.332031 -6.734375 16.550781 -5.75 19.5 -5.75 C 25.414062 -5.75 28.375 -9.675781 28.375 -17.53125 C 28.375 -25.414062 25.429688 -29.359375 19.546875 -29.359375 C 16.597656 -29.359375 14.375 -28.363281 12.875 -26.375 C 11.375 -24.394531 10.625 -21.445312 10.625 -17.53125 Z M 10.625 -17.53125 "/></g></g><g transform="translate(124.919439, 175.489742)"><g><path d="M 33.421875 -17.828125 C 33.421875 -12.066406 31.78125 -7.65625 28.5 -4.59375 C 25.226562 -1.53125 20.5 0 14.3125 0 L 4.40625 0 L 4.40625 -34.984375 L 15.390625 -34.984375 C 21.097656 -34.984375 25.53125 -33.472656 28.6875 -30.453125 C 31.84375 -27.441406 33.421875 -23.234375 33.421875 -17.828125 Z M 25.71875 -17.640625 C 25.71875 -25.148438 22.398438 -28.90625 15.765625 -28.90625 L 11.8125 -28.90625 L 11.8125 -6.125 L 15 -6.125 C 22.144531 -6.125 25.71875 -9.960938 25.71875 -17.640625 Z M 25.71875 -17.640625 "/></g></g><g transform="translate(161.193884, 175.489742)"><g><path d="M 24.546875 0 L 4.40625 0 L 4.40625 -34.984375 L 24.546875 -34.984375 L 24.546875 -28.90625 L 11.8125 -28.90625 L 11.8125 -21.21875 L 23.65625 -21.21875 L 23.65625 -15.140625 L 11.8125 -15.140625 L 11.8125 -6.125 L 24.546875 -6.125 Z M 24.546875 0 "/></g></g></g><g fill="#ffffff" fill-opacity="1"><g transform="translate(188.645939, 175.489742)"><g/></g></g><g fill="#ffffff" fill-opacity="1"><g transform="translate(117.197739, 191.911444)"><g><path d="M 14.359375 -11.953125 L 14.359375 0 L 13.15625 0 L 13.15625 -9.5625 L 8.453125 -1.515625 L 7.859375 -1.515625 L 3.15625 -9.515625 L 3.15625 0 L 1.953125 0 L 1.953125 -11.953125 L 2.984375 -11.953125 L 8.1875 -3.09375 L 13.328125 -11.953125 Z M 14.359375 -11.953125 "/></g></g></g><g fill="#ffffff" fill-opacity="1"><g transform="translate(137.391065, 191.911444)"><g><path d="M 10.40625 -1.09375 L 10.40625 0 L 1.953125 0 L 1.953125 -11.953125 L 10.140625 -11.953125 L 10.140625 -10.859375 L 3.203125 -10.859375 L 3.203125 -6.609375 L 9.390625 -6.609375 L 9.390625 -5.53125 L 3.203125 -5.53125 L 3.203125 -1.09375 Z M 10.40625 -1.09375 "/></g></g></g><g fill="#ffffff" fill-opacity="1"><g transform="translate(152.703134, 191.911444)"><g><path d="M 4.265625 -10.859375 L 0.0625 -10.859375 L 0.0625 -11.953125 L 9.734375 -11.953125 L 9.734375 -10.859375 L 5.53125 -10.859375 L 5.53125 0 L 4.265625 0 Z M 4.265625 -10.859375 "/></g></g></g><g fill="#ffffff" fill-opacity="1"><g transform="translate(166.39381, 191.911444)"><g><path d="M 10.109375 0 L 7.375 -3.84375 C 7.070312 -3.8125 6.753906 -3.796875 6.421875 -3.796875 L 3.203125 -3.796875 L 3.203125 0 L 1.953125 0 L 1.953125 -11.953125 L 6.421875 -11.953125 C 7.941406 -11.953125 9.132812 -11.585938 10 -10.859375 C 10.875 -10.128906 11.3125 -9.128906 11.3125 -7.859375 C 11.3125 -6.921875 11.070312 -6.128906 10.59375 -5.484375 C 10.125 -4.847656 9.453125 -4.382812 8.578125 -4.09375 L 11.5 0 Z M 6.390625 -4.875 C 7.566406 -4.875 8.46875 -5.132812 9.09375 -5.65625 C 9.726562 -6.175781 10.046875 -6.910156 10.046875 -7.859375 C 10.046875 -8.828125 9.726562 -9.566406 9.09375 -10.078125 C 8.46875 -10.597656 7.566406 -10.859375 6.390625 -10.859375 L 3.203125 -10.859375 L 3.203125 -4.875 Z M 6.390625 -4.875 "/></g></g></g><g fill="#ffffff" fill-opacity="1"><g transform="translate(182.627522, 191.911444)"><g><path d="M 1.953125 -11.953125 L 3.203125 -11.953125 L 3.203125 0 L 1.953125 0 Z M 1.953125 -11.953125 "/></g></g></g><g fill="#ffffff" fill-opacity="1"><g transform="translate(191.675887, 191.911444)"><g><path d="M 7.140625 0.109375 C 5.953125 0.109375 4.882812 -0.148438 3.9375 -0.671875 C 2.988281 -1.203125 2.242188 -1.929688 1.703125 -2.859375 C 1.160156 -3.785156 0.890625 -4.828125 0.890625 -5.984375 C 0.890625 -7.128906 1.160156 -8.164062 1.703125 -9.09375 C 2.242188 -10.019531 2.988281 -10.742188 3.9375 -11.265625 C 4.894531 -11.796875 5.96875 -12.0625 7.15625 -12.0625 C 8.039062 -12.0625 8.859375 -11.910156 9.609375 -11.609375 C 10.359375 -11.316406 11 -10.882812 11.53125 -10.3125 L 10.71875 -9.515625 C 9.789062 -10.460938 8.613281 -10.9375 7.1875 -10.9375 C 6.238281 -10.9375 5.378906 -10.71875 4.609375 -10.28125 C 3.835938 -9.84375 3.234375 -9.25 2.796875 -8.5 C 2.359375 -7.75 2.140625 -6.910156 2.140625 -5.984375 C 2.140625 -5.046875 2.359375 -4.203125 2.796875 -3.453125 C 3.234375 -2.703125 3.835938 -2.109375 4.609375 -1.671875 C 5.378906 -1.242188 6.238281 -1.03125 7.1875 -1.03125 C 8.625 -1.03125 9.800781 -1.503906 10.71875 -2.453125 L 11.53125 -1.65625 C 11 -1.082031 10.351562 -0.644531 9.59375 -0.34375 C 8.84375 -0.0390625 8.023438 0.109375 7.140625 0.109375 Z M 7.140625 0.109375 "/></g></g></g><g clip-path="url(#0f0bbc4d46)"><g clip-path="url(#6884abea77)"><g clip-path="url(#9770ae48fa)"><path fill="#5271ff" d="M 55.109375 58.882812 C 53.730469 32.433594 74.125 9.792969 100.578125 8.414062 C 127.03125 7.035156 149.671875 27.429688 151.046875 53.882812 C 152.425781 80.335938 132.03125 102.972656 105.578125 104.351562 C 79.125 105.730469 56.488281 85.332031 55.109375 58.882812 Z M 143.160156 54.292969 C 143.089844 52.980469 142.957031 51.675781 142.761719 50.375 C 142.5625 49.074219 142.304688 47.789062 141.980469 46.515625 C 141.65625 45.242188 141.273438 43.984375 140.828125 42.75 C 140.378906 41.511719 139.875 40.300781 139.308594 39.113281 C 138.742188 37.929688 138.121094 36.773438 137.441406 35.648438 C 136.761719 34.519531 136.03125 33.433594 135.242188 32.378906 C 134.457031 31.324219 133.621094 30.3125 132.734375 29.339844 C 131.851562 28.371094 130.917969 27.445312 129.941406 26.566406 C 128.964844 25.683594 127.949219 24.855469 126.890625 24.074219 C 125.832031 23.296875 124.738281 22.570312 123.609375 21.898438 C 122.480469 21.222656 121.320312 20.609375 120.128906 20.050781 C 118.941406 19.492188 117.726562 18.992188 116.488281 18.554688 C 115.25 18.113281 113.992188 17.738281 112.714844 17.421875 C 111.4375 17.105469 110.148438 16.855469 108.847656 16.664062 C 107.546875 16.476562 106.242188 16.351562 104.929688 16.289062 C 103.617188 16.230469 102.304688 16.234375 100.988281 16.300781 C 99.675781 16.371094 98.371094 16.503906 97.070312 16.699219 C 95.773438 16.898438 94.484375 17.15625 93.210938 17.480469 C 91.9375 17.804688 90.683594 18.1875 89.445312 18.632812 C 88.210938 19.082031 86.996094 19.585938 85.8125 20.152344 C 84.625 20.71875 83.46875 21.339844 82.34375 22.019531 C 81.21875 22.699219 80.128906 23.429688 79.074219 24.21875 C 78.023438 25.003906 77.007812 25.839844 76.039062 26.726562 C 75.066406 27.609375 74.140625 28.542969 73.261719 29.519531 C 72.382812 30.496094 71.550781 31.511719 70.773438 32.570312 C 69.992188 33.628906 69.265625 34.722656 68.59375 35.851562 C 67.921875 36.980469 67.304688 38.140625 66.746094 39.332031 C 66.1875 40.519531 65.691406 41.734375 65.25 42.972656 C 64.8125 44.214844 64.433594 45.46875 64.117188 46.746094 C 63.804688 48.023438 63.550781 49.3125 63.363281 50.613281 C 63.171875 51.914062 63.046875 53.21875 62.988281 54.53125 C 62.925781 55.84375 62.929688 57.160156 63 58.472656 C 63.066406 59.785156 63.199219 61.089844 63.398438 62.390625 C 63.59375 63.6875 63.855469 64.976562 64.175781 66.25 C 64.5 67.523438 64.882812 68.78125 65.332031 70.015625 C 65.777344 71.253906 66.285156 72.464844 66.847656 73.648438 C 67.414062 74.835938 68.039062 75.992188 68.714844 77.117188 C 69.394531 78.242188 70.128906 79.332031 70.914062 80.386719 C 71.699219 81.441406 72.535156 82.453125 73.421875 83.421875 C 74.308594 84.394531 75.238281 85.320312 76.214844 86.199219 C 77.191406 87.078125 78.210938 87.910156 79.265625 88.691406 C 80.324219 89.46875 81.417969 90.195312 82.546875 90.867188 C 83.679688 91.539062 84.835938 92.15625 86.027344 92.714844 C 87.21875 93.273438 88.433594 93.773438 89.671875 94.210938 C 90.910156 94.648438 92.167969 95.027344 93.441406 95.34375 C 94.71875 95.660156 96.007812 95.910156 97.308594 96.101562 C 98.609375 96.289062 99.917969 96.414062 101.230469 96.472656 C 102.542969 96.535156 103.855469 96.53125 105.167969 96.460938 C 106.480469 96.390625 107.785156 96.257812 109.085938 96.058594 C 110.382812 95.863281 111.667969 95.601562 112.941406 95.277344 C 114.214844 94.953125 115.46875 94.566406 116.707031 94.117188 C 117.941406 93.671875 119.152344 93.164062 120.335938 92.597656 C 121.523438 92.03125 122.679688 91.410156 123.800781 90.730469 C 124.925781 90.050781 126.015625 89.316406 127.070312 88.53125 C 128.121094 87.746094 129.132812 86.910156 130.105469 86.023438 C 131.074219 85.140625 132 84.207031 132.878906 83.230469 C 133.757812 82.253906 134.585938 81.238281 135.367188 80.179688 C 136.148438 79.125 136.871094 78.03125 137.546875 76.902344 C 138.21875 75.773438 138.832031 74.613281 139.390625 73.425781 C 139.949219 72.234375 140.449219 71.019531 140.890625 69.78125 C 141.328125 68.546875 141.707031 67.289062 142.023438 66.011719 C 142.339844 64.738281 142.59375 63.449219 142.78125 62.148438 C 142.972656 60.851562 143.097656 59.542969 143.160156 58.230469 C 143.222656 56.917969 143.21875 55.605469 143.152344 54.292969 Z M 143.160156 54.292969 " fill-opacity="1" fill-rule="nonzero"/></g></g></g><g clip-path="url(#db78d02fa6)"><g clip-path="url(#6faaba56f3)"><g clip-path="url(#fdb5c986f7)"><path fill="#5271ff" d="M 51.730469 93.792969 C 51.707031 93.355469 51.746094 92.925781 51.851562 92.5 C 51.957031 92.078125 52.121094 91.675781 52.34375 91.300781 C 52.566406 90.925781 52.839844 90.589844 53.160156 90.296875 C 53.484375 90 53.84375 89.761719 54.234375 89.570312 C 54.628906 89.382812 55.042969 89.253906 55.472656 89.1875 C 55.90625 89.121094 56.339844 89.121094 56.769531 89.179688 C 57.203125 89.242188 57.617188 89.363281 58.011719 89.550781 C 58.410156 89.734375 58.769531 89.972656 59.097656 90.261719 L 72.039062 101.835938 C 72.277344 102.023438 72.492188 102.234375 72.6875 102.464844 C 72.878906 102.695312 73.046875 102.941406 73.191406 103.207031 C 73.332031 103.472656 73.449219 103.75 73.535156 104.039062 C 73.621094 104.328125 73.675781 104.621094 73.703125 104.921875 C 73.730469 105.222656 73.726562 105.523438 73.691406 105.820312 C 73.65625 106.121094 73.589844 106.414062 73.496094 106.699219 C 73.402344 106.984375 73.277344 107.257812 73.125 107.519531 C 72.976562 107.78125 72.800781 108.023438 72.601562 108.25 C 72.398438 108.472656 72.179688 108.675781 71.9375 108.855469 C 71.695312 109.035156 71.4375 109.191406 71.164062 109.316406 C 70.890625 109.445312 70.609375 109.542969 70.316406 109.613281 C 70.023438 109.683594 69.722656 109.722656 69.421875 109.730469 C 69.121094 109.738281 68.824219 109.714844 68.527344 109.664062 C 68.230469 109.613281 67.941406 109.53125 67.660156 109.417969 C 67.382812 109.308594 67.113281 109.167969 66.863281 109.003906 C 66.613281 108.835938 66.378906 108.648438 66.167969 108.433594 L 53.222656 96.859375 C 52.296875 96.042969 51.800781 95.023438 51.730469 93.792969 Z M 51.730469 93.792969 " fill-opacity="1" fill-rule="nonzero"/></g></g></g><g clip-path="url(#73dda36929)"><g clip-path="url(#7092ca577a)"><g clip-path="url(#e1b93b4a08)"><path fill="#5271ff" d="M 13.0625 148.964844 C 13.007812 147.945312 13.152344 146.953125 13.5 145.992188 C 13.84375 145.03125 14.363281 144.175781 15.058594 143.425781 L 46.652344 109.1875 C 46.988281 108.820312 47.359375 108.488281 47.761719 108.195312 C 48.164062 107.902344 48.59375 107.652344 49.042969 107.441406 C 49.496094 107.234375 49.964844 107.070312 50.449219 106.953125 C 50.933594 106.835938 51.425781 106.769531 51.921875 106.75 C 52.417969 106.730469 52.914062 106.757812 53.40625 106.835938 C 53.898438 106.910156 54.378906 107.035156 54.847656 107.207031 C 55.3125 107.378906 55.757812 107.597656 56.183594 107.855469 C 56.609375 108.117188 57.003906 108.414062 57.371094 108.75 C 57.738281 109.089844 58.066406 109.460938 58.359375 109.863281 C 58.652344 110.265625 58.90625 110.691406 59.113281 111.144531 C 59.324219 111.597656 59.484375 112.066406 59.601562 112.550781 C 59.71875 113.03125 59.789062 113.523438 59.808594 114.023438 C 59.828125 114.519531 59.800781 115.015625 59.722656 115.507812 C 59.644531 116 59.519531 116.476562 59.347656 116.945312 C 59.175781 117.414062 58.960938 117.859375 58.699219 118.285156 C 58.441406 118.710938 58.144531 119.105469 57.804688 119.472656 L 26.210938 153.710938 C 25.703125 154.261719 25.128906 154.722656 24.488281 155.101562 C 23.84375 155.480469 23.160156 155.761719 22.4375 155.9375 C 21.710938 156.113281 20.976562 156.183594 20.230469 156.144531 C 19.484375 156.101562 18.761719 155.957031 18.058594 155.703125 C 17.359375 155.449219 16.707031 155.101562 16.109375 154.65625 C 15.511719 154.210938 14.988281 153.6875 14.542969 153.085938 C 14.097656 152.488281 13.75 151.835938 13.5 151.136719 C 13.246094 150.433594 13.101562 149.707031 13.0625 148.964844 Z M 13.0625 148.964844 " fill-opacity="1" fill-rule="nonzero"/></g></g></g><g clip-path="url(#277160fb9d)"><g clip-path="url(#8ff5c4c3a1)"><g clip-path="url(#50f0d9dd21)"><path fill="#5271ff" d="M 69.289062 58.0625 C 68.964844 51.886719 70.3125 43.625 76.582031 34.53125 C 82.082031 26.550781 90.976562 22.539062 102.296875 22.929688 C 107.535156 23.132812 112.621094 24.109375 117.558594 25.867188 C 117.847656 25.980469 118.109375 26.144531 118.332031 26.363281 C 118.558594 26.582031 118.734375 26.832031 118.859375 27.121094 C 118.988281 27.40625 119.054688 27.707031 119.058594 28.019531 C 119.066406 28.332031 119.015625 28.632812 118.902344 28.925781 C 118.789062 29.21875 118.625 29.476562 118.410156 29.707031 C 118.191406 29.933594 117.941406 30.109375 117.65625 30.238281 C 117.371094 30.363281 117.070312 30.433594 116.757812 30.441406 C 116.445312 30.449219 116.140625 30.398438 115.847656 30.289062 C 111.371094 28.71875 106.761719 27.847656 102.019531 27.664062 C 92.320312 27.359375 85.082031 30.574219 80.492188 37.222656 C 69.171875 53.632812 76.148438 66.796875 76.222656 66.929688 C 76.378906 67.207031 76.480469 67.503906 76.519531 67.820312 C 76.558594 68.136719 76.535156 68.445312 76.449219 68.753906 C 76.363281 69.058594 76.21875 69.339844 76.023438 69.585938 C 75.824219 69.835938 75.585938 70.039062 75.304688 70.191406 C 75.027344 70.34375 74.726562 70.4375 74.410156 70.46875 C 74.09375 70.503906 73.78125 70.472656 73.476562 70.378906 C 73.171875 70.289062 72.898438 70.140625 72.652344 69.9375 C 72.40625 69.734375 72.210938 69.488281 72.066406 69.207031 C 71.875 68.878906 69.632812 64.65625 69.289062 58.0625 Z M 69.289062 58.0625 " fill-opacity="1" fill-rule="nonzero"/></g></g></g><g clip-path="url(#b256186d51)"><path fill="#ffffff" d="M 227.648438 107.839844 C 224.242188 106.472656 219.539062 104.816406 213.675781 102.914062 C 205.679688 100.328125 197.265625 97.855469 192.082031 96.425781 C 192.164062 94.902344 192.207031 92.972656 192.21875 90.496094 C 192.242188 85.328125 192.089844 78.605469 191.792969 71.5625 C 190.605469 43.527344 188.816406 41.050781 188.050781 39.992188 C 186.726562 38.160156 184.734375 38.074219 182.976562 38.003906 C 177.320312 37.769531 160.046875 38.3125 143.65625 39.246094 C 111.105469 41.097656 109.894531 42.511719 108.488281 44.148438 C 107.414062 45.402344 106.714844 46.90625 106.78125 56.007812 C 106.820312 61.125 107.105469 67.785156 107.589844 74.761719 C 108.023438 81.058594 109.671875 102.234375 112.5625 110.503906 C 112.867188 111.382812 113.515625 113.238281 114.902344 114.542969 C 115.515625 117.144531 117.625 119.371094 119.527344 120.640625 C 120.898438 121.554688 128.734375 126.421875 136.90625 131.039062 C 151.921875 139.519531 156.421875 140.664062 158.839844 140.664062 C 161.777344 140.664062 183.894531 135.277344 197.832031 131.574219 C 207.910156 128.890625 216.417969 126.414062 222.4375 124.40625 C 226.085938 123.1875 228.828125 122.148438 230.824219 121.226562 C 232.734375 120.34375 236.292969 118.695312 236.292969 115.175781 C 236.292969 111.59375 232.707031 109.875 227.648438 107.839844 Z M 227.648438 107.839844 C 224.242188 106.472656 219.539062 104.816406 213.675781 102.914062 C 205.679688 100.328125 197.265625 97.855469 192.082031 96.425781 C 192.164062 94.902344 192.207031 92.972656 192.21875 90.496094 C 192.242188 85.328125 192.089844 78.605469 191.792969 71.5625 C 190.605469 43.527344 188.816406 41.050781 188.050781 39.992188 C 186.726562 38.160156 184.734375 38.074219 182.976562 38.003906 C 177.320312 37.769531 160.046875 38.3125 143.65625 39.246094 C 111.105469 41.097656 109.894531 42.511719 108.488281 44.148438 C 107.414062 45.402344 106.714844 46.90625 106.78125 56.007812 C 106.820312 61.125 107.105469 67.785156 107.589844 74.761719 C 108.023438 81.058594 109.671875 102.234375 112.5625 110.503906 C 112.867188 111.382812 113.515625 113.238281 114.902344 114.542969 C 115.515625 117.144531 117.625 119.371094 119.527344 120.640625 C 120.898438 121.554688 128.734375 126.421875 136.90625 131.039062 C 151.921875 139.519531 156.421875 140.664062 158.839844 140.664062 C 161.777344 140.664062 183.894531 135.277344 197.832031 131.574219 C 207.910156 128.890625 216.417969 126.414062 222.4375 124.40625 C 226.085938 123.1875 228.828125 122.148438 230.824219 121.226562 C 232.734375 120.34375 236.292969 118.695312 236.292969 115.175781 C 236.292969 111.59375 232.707031 109.875 227.648438 107.839844 Z M 227.648438 107.839844 " fill-opacity="1" fill-rule="nonzero"/></g><path fill="#5271ff" d="M 232.042969 115.175781 C 232.042969 119.628906 162.300781 136.414062 158.839844 136.414062 C 152.886719 136.414062 124.199219 118.648438 121.886719 117.105469 C 119.574219 115.5625 117.886719 112.671875 119.816406 111.746094 C 119.105469 111.777344 118.578125 111.765625 118.273438 111.707031 C 113.257812 110.742188 109.402344 49.613281 111.714844 46.914062 C 114.03125 44.214844 183.722656 41.257812 184.605469 42.480469 C 187.113281 45.953125 189.039062 98.015625 187.304688 99.558594 C 194.484375 101.3125 232.042969 112.332031 232.042969 115.175781 Z M 232.042969 115.175781 C 232.042969 119.628906 162.300781 136.414062 158.839844 136.414062 C 152.886719 136.414062 124.199219 118.648438 121.886719 117.105469 C 119.574219 115.5625 117.886719 112.671875 119.816406 111.746094 C 119.105469 111.777344 118.578125 111.765625 118.273438 111.707031 C 113.257812 110.742188 109.402344 49.613281 111.714844 46.914062 C 114.03125 44.214844 183.722656 41.257812 184.605469 42.480469 C 187.113281 45.953125 189.039062 98.015625 187.304688 99.558594 C 194.484375 101.3125 232.042969 112.332031 232.042969 115.175781 Z M 232.042969 115.175781 " fill-opacity="1" fill-rule="nonzero"/><g mask="url(#2a19b39dce)"><g transform="matrix(1, 0, 0, 1, 116, 46)"><g clip-path="url(#8627cfd681)"><g clip-path="url(#b43335a861)"><path fill="#ffffff" d="M 66.945312 49.417969 C 65.445312 50.722656 11.683594 60.507812 7.355469 59.691406 C 3.027344 58.875 -0.300781 7.183594 1.695312 4.902344 C 3.691406 2.617188 63.851562 0.117188 64.613281 1.148438 C 66.777344 4.085938 68.441406 48.113281 66.945312 49.417969 Z M 15.269531 68.070312 C 15.269531 68.070312 31.589844 75.988281 33.847656 76.164062 C 36.109375 76.335938 89.9375 64.605469 90.285156 63.910156 C 90.632812 63.21875 70.847656 57.425781 69.824219 57.613281 C 33.226562 64.316406 15.269531 68.070312 15.269531 68.070312 Z M 15.269531 68.070312 " fill-opacity="1" fill-rule="nonzero"/></g></g></g></g><path fill="#000000" d="M 120.625 112.386719 C 120.226562 112.425781 119.886719 112.015625 119.886719 111.648438 C 119.886719 111.21875 120.226562 110.949219 120.625 110.90625 C 121.605469 110.808594 122.574219 110.574219 123.550781 110.445312 C 124.707031 110.292969 125.859375 110.152344 127.003906 109.929688 C 128.195312 109.695312 129.394531 109.523438 130.59375 109.332031 C 131.792969 109.136719 132.976562 108.875 134.179688 108.695312 C 136.484375 108.359375 138.765625 107.9375 141.058594 107.507812 C 143.3125 107.085938 145.597656 106.824219 147.851562 106.394531 C 150.105469 105.960938 152.359375 105.507812 154.617188 105.089844 C 156.90625 104.660156 159.214844 104.375 161.496094 103.894531 C 165.90625 102.96875 170.375 102.347656 174.773438 101.375 C 175.867188 101.136719 176.96875 100.964844 178.070312 100.773438 C 179.109375 100.59375 180.132812 100.335938 181.167969 100.132812 C 182.160156 99.9375 183.152344 99.742188 184.148438 99.554688 C 184.90625 99.414062 185.6875 99.335938 186.441406 99.167969 C 187.371094 98.957031 187.761719 100.382812 186.835938 100.59375 C 185.964844 100.789062 185.066406 100.878906 184.191406 101.046875 C 183.054688 101.269531 181.914062 101.472656 180.785156 101.71875 C 179.574219 101.984375 178.367188 102.210938 177.148438 102.414062 C 175.949219 102.617188 174.773438 102.90625 173.585938 103.132812 C 172.503906 103.339844 171.429688 103.597656 170.339844 103.765625 C 169.1875 103.941406 168.046875 104.128906 166.902344 104.367188 C 165.761719 104.601562 164.613281 104.800781 163.464844 105.007812 C 162.351562 105.214844 161.246094 105.476562 160.128906 105.667969 C 157.835938 106.0625 155.539062 106.410156 153.253906 106.863281 C 150.980469 107.3125 148.691406 107.820312 146.394531 108.136719 C 144.089844 108.449219 141.808594 108.890625 139.519531 109.300781 C 138.375 109.507812 137.230469 109.75 136.078125 109.917969 C 134.953125 110.082031 133.832031 110.238281 132.710938 110.449219 C 131.664062 110.644531 130.617188 110.8125 129.566406 110.976562 C 128.464844 111.144531 127.378906 111.378906 126.28125 111.5625 C 125.289062 111.730469 124.285156 111.808594 123.292969 111.960938 C 122.402344 112.097656 121.519531 112.292969 120.625 112.386719 Z M 120.625 112.386719 C 120.226562 112.425781 119.886719 112.015625 119.886719 111.648438 C 119.886719 111.21875 120.226562 110.949219 120.625 110.90625 C 121.605469 110.808594 122.574219 110.574219 123.550781 110.445312 C 124.707031 110.292969 125.859375 110.152344 127.003906 109.929688 C 128.195312 109.695312 129.394531 109.523438 130.59375 109.332031 C 131.792969 109.136719 132.976562 108.875 134.179688 108.695312 C 136.484375 108.359375 138.765625 107.9375 141.058594 107.507812 C 143.3125 107.085938 145.597656 106.824219 147.851562 106.394531 C 150.105469 105.960938 152.359375 105.507812 154.617188 105.089844 C 156.90625 104.660156 159.214844 104.375 161.496094 103.894531 C 165.90625 102.96875 170.375 102.347656 174.773438 101.375 C 175.867188 101.136719 176.96875 100.964844 178.070312 100.773438 C 179.109375 100.59375 180.132812 100.335938 181.167969 100.132812 C 182.160156 99.9375 183.152344 99.742188 184.148438 99.554688 C 184.90625 99.414062 185.6875 99.335938 186.441406 99.167969 C 187.371094 98.957031 187.761719 100.382812 186.835938 100.59375 C 185.964844 100.789062 185.066406 100.878906 184.191406 101.046875 C 183.054688 101.269531 181.914062 101.472656 180.785156 101.71875 C 179.574219 101.984375 178.367188 102.210938 177.148438 102.414062 C 175.949219 102.617188 174.773438 102.90625 173.585938 103.132812 C 172.503906 103.339844 171.429688 103.597656 170.339844 103.765625 C 169.1875 103.941406 168.046875 104.128906 166.902344 104.367188 C 165.761719 104.601562 164.613281 104.800781 163.464844 105.007812 C 162.351562 105.214844 161.246094 105.476562 160.128906 105.667969 C 157.835938 106.0625 155.539062 106.410156 153.253906 106.863281 C 150.980469 107.3125 148.691406 107.820312 146.394531 108.136719 C 144.089844 108.449219 141.808594 108.890625 139.519531 109.300781 C 138.375 109.507812 137.230469 109.75 136.078125 109.917969 C 134.953125 110.082031 133.832031 110.238281 132.710938 110.449219 C 131.664062 110.644531 130.617188 110.8125 129.566406 110.976562 C 128.464844 111.144531 127.378906 111.378906 126.28125 111.5625 C 125.289062 111.730469 124.285156 111.808594 123.292969 111.960938 C 122.402344 112.097656 121.519531 112.292969 120.625 112.386719 Z M 120.625 112.386719 " fill-opacity="1" fill-rule="nonzero"/><path fill="#ffffff" d="M 124.078125 106.515625 C 123.613281 106.515625 123.371094 106.484375 123.210938 106.457031 C 122.429688 106.308594 121.808594 105.496094 121.203125 103.820312 C 121 103.261719 120.847656 102.613281 120.691406 101.925781 C 120.632812 101.6875 120.574219 101.433594 120.511719 101.175781 C 120.445312 100.898438 120.363281 100.609375 120.28125 100.308594 C 120.128906 99.761719 119.972656 99.195312 119.851562 98.570312 L 119.839844 98.511719 C 119.679688 97.691406 119.515625 96.84375 119.363281 95.9375 C 119.285156 95.457031 119.234375 94.960938 119.179688 94.484375 C 119.140625 94.089844 119.097656 93.6875 119.039062 93.285156 C 118.984375 92.910156 118.914062 92.535156 118.84375 92.152344 C 118.757812 91.667969 118.664062 91.167969 118.597656 90.652344 C 118.527344 90.101562 118.464844 89.539062 118.402344 88.972656 C 118.367188 88.652344 118.332031 88.328125 118.292969 88.003906 C 118.234375 87.507812 118.191406 87.003906 118.144531 86.496094 C 118.109375 86.117188 118.074219 85.738281 118.035156 85.351562 C 117.980469 84.871094 117.949219 84.382812 117.914062 83.914062 C 117.886719 83.507812 117.855469 83.105469 117.816406 82.699219 C 117.785156 82.371094 117.753906 82.046875 117.71875 81.71875 C 117.664062 81.164062 117.609375 80.605469 117.558594 80.050781 C 117.480469 79.167969 117.40625 78.28125 117.335938 77.398438 C 117.304688 76.992188 117.261719 76.589844 117.222656 76.1875 C 117.175781 75.707031 117.125 75.226562 117.089844 74.746094 C 117.054688 74.242188 117.027344 73.742188 117.003906 73.238281 C 116.984375 72.855469 116.964844 72.472656 116.9375 72.089844 C 116.910156 71.679688 116.875 71.265625 116.839844 70.859375 C 116.796875 70.382812 116.753906 69.910156 116.726562 69.441406 C 116.695312 68.902344 116.675781 68.367188 116.65625 67.839844 C 116.640625 67.484375 116.625 67.132812 116.609375 66.78125 C 116.59375 66.410156 116.570312 66.039062 116.550781 65.671875 C 116.519531 65.148438 116.492188 64.632812 116.472656 64.125 C 116.453125 63.605469 116.457031 63.101562 116.460938 62.613281 C 116.464844 62.222656 116.46875 61.839844 116.460938 61.460938 C 116.449219 61.042969 116.425781 60.636719 116.40625 60.238281 C 116.378906 59.738281 116.355469 59.269531 116.347656 58.796875 C 116.34375 58.210938 116.367188 57.65625 116.390625 57.125 C 116.40625 56.78125 116.421875 56.449219 116.425781 56.128906 C 116.433594 55.710938 116.425781 55.3125 116.417969 54.9375 C 116.410156 54.402344 116.398438 53.898438 116.433594 53.433594 C 116.59375 51.050781 117.007812 50.574219 117.144531 50.417969 C 117.289062 50.253906 117.671875 49.816406 120.0625 49.398438 C 120.625 49.300781 121.269531 49.222656 121.949219 49.140625 C 122.195312 49.109375 122.449219 49.078125 122.707031 49.046875 C 122.941406 49.015625 123.179688 48.984375 123.425781 48.953125 C 124.03125 48.871094 124.660156 48.789062 125.335938 48.71875 L 125.691406 48.679688 C 126.414062 48.605469 127.175781 48.527344 127.96875 48.453125 C 128.4375 48.410156 128.917969 48.375 129.410156 48.34375 C 129.800781 48.316406 130.195312 48.289062 130.601562 48.253906 C 130.984375 48.222656 131.375 48.183594 131.765625 48.140625 C 132.246094 48.09375 132.734375 48.042969 133.226562 48.003906 C 133.683594 47.96875 134.144531 47.960938 134.589844 47.953125 C 135.011719 47.949219 135.445312 47.941406 135.867188 47.910156 C 136.261719 47.882812 136.660156 47.847656 137.0625 47.8125 C 137.535156 47.773438 138.015625 47.734375 138.496094 47.703125 C 138.890625 47.675781 139.289062 47.644531 139.6875 47.613281 C 140.164062 47.578125 140.644531 47.539062 141.128906 47.511719 C 141.539062 47.484375 141.953125 47.453125 142.367188 47.417969 C 142.828125 47.378906 143.292969 47.339844 143.757812 47.3125 C 144.21875 47.289062 144.679688 47.285156 145.128906 47.28125 C 145.546875 47.277344 145.976562 47.277344 146.394531 47.253906 C 146.8125 47.230469 147.230469 47.191406 147.648438 47.152344 C 148.097656 47.113281 148.558594 47.070312 149.023438 47.046875 C 149.488281 47.023438 149.953125 47.023438 150.398438 47.023438 C 150.835938 47.023438 151.246094 47.023438 151.660156 47.003906 C 152.078125 46.984375 152.507812 46.941406 152.925781 46.902344 C 153.371094 46.859375 153.828125 46.816406 154.289062 46.796875 C 154.707031 46.777344 155.128906 46.753906 155.546875 46.726562 C 156.003906 46.699219 156.460938 46.671875 156.917969 46.652344 C 157.394531 46.632812 157.863281 46.644531 158.316406 46.652344 C 158.746094 46.664062 159.152344 46.675781 159.554688 46.65625 C 159.980469 46.640625 160.402344 46.617188 160.824219 46.59375 C 161.28125 46.570312 161.738281 46.542969 162.1875 46.527344 C 162.621094 46.511719 163.050781 46.480469 163.476562 46.449219 C 163.914062 46.417969 164.371094 46.386719 164.820312 46.371094 C 165.308594 46.355469 165.78125 46.359375 166.242188 46.363281 C 166.65625 46.367188 167.058594 46.371094 167.457031 46.359375 C 167.972656 46.347656 168.476562 46.339844 168.96875 46.332031 C 169.351562 46.328125 169.726562 46.324219 170.09375 46.316406 L 171.015625 46.292969 C 171.609375 46.277344 172.179688 46.261719 172.730469 46.253906 C 173.183594 46.246094 173.625 46.214844 174.054688 46.179688 C 174.511719 46.144531 174.941406 46.113281 175.371094 46.109375 C 176.011719 46.105469 176.605469 46.132812 177.132812 46.15625 C 177.445312 46.167969 177.742188 46.179688 178.019531 46.1875 C 180.679688 46.234375 180.964844 46.3125 181.242188 46.6875 C 181.574219 47.140625 181.761719 47.953125 182.050781 49.601562 C 182.09375 49.84375 182.144531 50.09375 182.195312 50.359375 C 182.308594 50.933594 182.441406 51.582031 182.527344 52.296875 C 182.628906 53.097656 182.730469 54.007812 182.828125 54.996094 C 182.890625 55.601562 182.941406 56.234375 182.996094 56.886719 L 183.0625 57.695312 C 183.101562 58.164062 183.117188 58.652344 183.136719 59.121094 C 183.148438 59.539062 183.164062 59.972656 183.195312 60.398438 C 183.226562 60.796875 183.269531 61.199219 183.308594 61.605469 C 183.363281 62.085938 183.414062 62.585938 183.445312 63.089844 C 183.480469 63.613281 183.507812 64.136719 183.53125 64.667969 C 183.550781 65.039062 183.570312 65.414062 183.59375 65.789062 C 183.621094 66.269531 183.636719 66.753906 183.648438 67.238281 C 183.660156 67.65625 183.675781 68.074219 183.695312 68.492188 C 183.726562 69.082031 183.75 69.671875 183.777344 70.265625 L 183.847656 71.835938 C 183.878906 72.523438 183.90625 73.207031 183.933594 73.890625 C 183.949219 74.3125 183.988281 74.746094 184.027344 75.167969 C 184.070312 75.628906 184.113281 76.109375 184.128906 76.585938 C 184.144531 77.082031 184.140625 77.574219 184.140625 78.050781 C 184.140625 78.464844 184.136719 78.878906 184.148438 79.285156 C 184.160156 79.671875 184.171875 80.050781 184.183594 80.425781 C 184.199219 80.953125 184.21875 81.476562 184.226562 81.988281 C 184.238281 82.53125 184.234375 83.0625 184.234375 83.585938 C 184.234375 83.960938 184.230469 84.328125 184.234375 84.691406 C 184.238281 85.128906 184.257812 85.558594 184.273438 85.976562 C 184.296875 86.464844 184.316406 86.929688 184.3125 87.394531 C 184.3125 88.097656 184.292969 88.769531 184.277344 89.398438 L 184.261719 90.105469 C 184.242188 91.003906 184.191406 91.804688 184.144531 92.511719 L 184.125 92.828125 C 183.980469 95.175781 183.800781 95.707031 183.457031 96.007812 C 183.292969 96.152344 183.0625 96.351562 180.625 96.949219 C 179.863281 97.136719 178.933594 97.34375 178.039062 97.542969 L 177.285156 97.710938 C 176.710938 97.839844 176.101562 97.976562 175.460938 98.109375 C 174.648438 98.28125 173.785156 98.457031 172.875 98.640625 C 172.433594 98.730469 171.976562 98.816406 171.507812 98.902344 C 171.109375 98.976562 170.699219 99.050781 170.285156 99.132812 C 169.847656 99.21875 169.394531 99.285156 168.957031 99.347656 C 168.539062 99.40625 168.105469 99.472656 167.679688 99.554688 C 167.289062 99.628906 166.898438 99.726562 166.480469 99.832031 C 166.039062 99.941406 165.582031 100.058594 165.109375 100.148438 C 164.660156 100.230469 164.203125 100.3125 163.746094 100.390625 C 163.335938 100.460938 162.925781 100.53125 162.511719 100.609375 C 161.988281 100.707031 161.457031 100.800781 160.925781 100.898438 L 159.917969 101.082031 C 159.46875 101.164062 159.011719 101.226562 158.570312 101.289062 C 158.15625 101.347656 157.726562 101.40625 157.3125 101.480469 C 156.902344 101.554688 156.496094 101.636719 156.085938 101.714844 C 155.632812 101.804688 155.179688 101.894531 154.722656 101.972656 C 154.269531 102.054688 153.808594 102.128906 153.351562 102.199219 C 152.941406 102.265625 152.53125 102.332031 152.125 102.402344 C 151.71875 102.472656 151.320312 102.570312 150.898438 102.675781 C 150.460938 102.78125 150.007812 102.890625 149.546875 102.96875 C 149.082031 103.050781 148.617188 103.097656 148.167969 103.144531 C 147.738281 103.191406 147.332031 103.234375 146.929688 103.300781 C 146.519531 103.371094 146.097656 103.464844 145.6875 103.558594 C 145.253906 103.65625 144.804688 103.757812 144.351562 103.832031 C 143.878906 103.910156 143.410156 103.957031 142.957031 104.003906 C 142.527344 104.046875 142.125 104.085938 141.730469 104.148438 C 141.324219 104.214844 140.917969 104.285156 140.519531 104.355469 C 140.050781 104.4375 139.589844 104.515625 139.132812 104.585938 C 138.625 104.667969 138.125 104.738281 137.632812 104.808594 C 137.257812 104.863281 136.886719 104.914062 136.523438 104.96875 C 136.09375 105.035156 135.671875 105.113281 135.257812 105.191406 C 134.820312 105.273438 134.367188 105.359375 133.925781 105.421875 C 133.375 105.503906 132.839844 105.566406 132.320312 105.632812 C 131.972656 105.675781 131.636719 105.714844 131.304688 105.757812 C 131 105.800781 130.703125 105.839844 130.414062 105.882812 C 129.804688 105.964844 129.230469 106.046875 128.683594 106.109375 C 128.367188 106.144531 128.0625 106.183594 127.769531 106.21875 C 127.152344 106.296875 126.566406 106.371094 126.042969 106.414062 C 125.128906 106.488281 124.507812 106.515625 124.078125 106.515625 Z M 118.246094 51.410156 C 118.183594 51.546875 118 52.160156 117.90625 53.53125 C 117.878906 53.933594 117.886719 54.410156 117.898438 54.910156 C 117.90625 55.300781 117.910156 55.714844 117.90625 56.148438 C 117.898438 56.484375 117.886719 56.832031 117.867188 57.191406 C 117.847656 57.703125 117.824219 58.234375 117.828125 58.785156 C 117.832031 59.222656 117.855469 59.675781 117.882812 60.15625 C 117.902344 60.570312 117.925781 60.992188 117.9375 61.425781 C 117.945312 61.816406 117.945312 62.21875 117.941406 62.628906 C 117.9375 63.097656 117.933594 63.585938 117.949219 64.070312 C 117.96875 64.566406 117.996094 65.074219 118.027344 65.589844 C 118.046875 65.960938 118.070312 66.332031 118.085938 66.710938 C 118.105469 67.066406 118.117188 67.421875 118.132812 67.78125 C 118.152344 68.300781 118.171875 68.828125 118.203125 69.355469 C 118.226562 69.8125 118.269531 70.265625 118.3125 70.726562 C 118.347656 71.148438 118.386719 71.570312 118.414062 71.996094 C 118.4375 72.382812 118.457031 72.773438 118.480469 73.164062 C 118.503906 73.65625 118.53125 74.148438 118.566406 74.640625 C 118.597656 75.105469 118.644531 75.574219 118.695312 76.039062 C 118.734375 76.453125 118.777344 76.867188 118.8125 77.28125 C 118.882812 78.160156 118.953125 79.039062 119.03125 79.917969 C 119.082031 80.472656 119.136719 81.019531 119.191406 81.570312 C 119.222656 81.898438 119.257812 82.226562 119.289062 82.554688 C 119.328125 82.972656 119.359375 83.390625 119.390625 83.808594 C 119.421875 84.289062 119.457031 84.742188 119.503906 85.199219 C 119.542969 85.589844 119.582031 85.976562 119.617188 86.363281 C 119.660156 86.859375 119.707031 87.347656 119.761719 87.835938 C 119.800781 88.160156 119.835938 88.484375 119.871094 88.808594 C 119.933594 89.367188 119.996094 89.921875 120.066406 90.464844 C 120.125 90.941406 120.214844 91.421875 120.300781 91.886719 C 120.371094 92.285156 120.445312 92.683594 120.5 93.074219 C 120.5625 93.496094 120.605469 93.914062 120.652344 94.324219 C 120.703125 94.804688 120.75 95.257812 120.824219 95.695312 C 120.96875 96.582031 121.132812 97.421875 121.289062 98.230469 L 121.300781 98.289062 C 121.410156 98.855469 121.5625 99.394531 121.707031 99.914062 C 121.792969 100.226562 121.875 100.53125 121.949219 100.824219 C 122.011719 101.089844 122.070312 101.34375 122.128906 101.59375 C 122.285156 102.261719 122.421875 102.84375 122.59375 103.316406 C 123.136719 104.816406 123.507812 105.007812 123.511719 105.011719 C 123.675781 105.039062 124.25 105.078125 125.921875 104.941406 C 126.414062 104.898438 126.984375 104.828125 127.589844 104.753906 C 127.882812 104.714844 128.191406 104.679688 128.511719 104.640625 C 129.046875 104.578125 129.613281 104.5 130.210938 104.417969 C 130.503906 104.375 130.804688 104.335938 131.109375 104.292969 C 131.445312 104.25 131.789062 104.207031 132.140625 104.164062 C 132.648438 104.101562 133.175781 104.039062 133.714844 103.960938 C 134.125 103.902344 134.542969 103.820312 134.984375 103.738281 C 135.414062 103.65625 135.855469 103.574219 136.304688 103.507812 C 136.671875 103.453125 137.042969 103.398438 137.421875 103.34375 C 137.910156 103.273438 138.402344 103.203125 138.902344 103.125 C 139.351562 103.054688 139.808594 102.976562 140.265625 102.898438 C 140.671875 102.828125 141.082031 102.757812 141.496094 102.691406 C 141.933594 102.621094 142.378906 102.574219 142.808594 102.53125 C 143.238281 102.488281 143.683594 102.445312 144.109375 102.375 C 144.519531 102.308594 144.929688 102.214844 145.363281 102.117188 C 145.789062 102.019531 146.234375 101.917969 146.683594 101.84375 C 147.132812 101.765625 147.582031 101.71875 148.015625 101.675781 C 148.460938 101.628906 148.878906 101.585938 149.296875 101.511719 C 149.707031 101.441406 150.113281 101.34375 150.546875 101.238281 C 150.972656 101.132812 151.414062 101.023438 151.867188 100.945312 C 152.285156 100.875 152.703125 100.808594 153.121094 100.742188 C 153.570312 100.667969 154.019531 100.597656 154.464844 100.519531 C 154.914062 100.4375 155.355469 100.351562 155.800781 100.265625 C 156.21875 100.183594 156.636719 100.101562 157.050781 100.027344 C 157.496094 99.945312 157.9375 99.886719 158.367188 99.824219 C 158.8125 99.761719 159.234375 99.703125 159.652344 99.628906 L 160.660156 99.445312 C 161.191406 99.347656 161.71875 99.253906 162.242188 99.15625 C 162.664062 99.078125 163.078125 99.003906 163.492188 98.933594 C 163.945312 98.855469 164.394531 98.777344 164.835938 98.695312 C 165.265625 98.613281 165.699219 98.503906 166.121094 98.398438 C 166.539062 98.292969 166.96875 98.183594 167.402344 98.101562 C 167.859375 98.011719 168.308594 97.949219 168.746094 97.882812 C 169.183594 97.820312 169.597656 97.761719 170 97.679688 C 170.421875 97.597656 170.835938 97.523438 171.242188 97.449219 C 171.699219 97.363281 172.148438 97.28125 172.582031 97.191406 C 173.484375 97.011719 174.347656 96.832031 175.15625 96.664062 C 175.792969 96.53125 176.394531 96.394531 176.960938 96.265625 L 177.722656 96.097656 C 178.605469 95.902344 179.523438 95.695312 180.273438 95.511719 C 181.648438 95.175781 182.199219 94.992188 182.417969 94.90625 C 182.472656 94.683594 182.566406 94.128906 182.652344 92.738281 L 182.671875 92.417969 C 182.714844 91.726562 182.765625 90.941406 182.78125 90.074219 L 182.800781 89.359375 C 182.816406 88.742188 182.832031 88.082031 182.835938 87.390625 C 182.835938 86.960938 182.816406 86.511719 182.796875 86.039062 C 182.78125 85.601562 182.761719 85.160156 182.757812 84.703125 C 182.753906 84.335938 182.753906 83.960938 182.757812 83.582031 C 182.757812 83.066406 182.761719 82.546875 182.75 82.015625 C 182.742188 81.507812 182.722656 80.996094 182.707031 80.476562 C 182.695312 80.09375 182.679688 79.710938 182.671875 79.324219 C 182.660156 78.902344 182.660156 78.476562 182.660156 78.046875 C 182.664062 77.582031 182.664062 77.101562 182.648438 76.632812 C 182.636719 76.199219 182.597656 75.761719 182.554688 75.300781 C 182.515625 74.859375 182.476562 74.40625 182.457031 73.945312 C 182.429688 73.269531 182.402344 72.585938 182.367188 71.902344 L 182.300781 70.328125 C 182.273438 69.738281 182.25 69.152344 182.21875 68.566406 C 182.199219 68.136719 182.183594 67.710938 182.171875 67.28125 C 182.15625 66.8125 182.144531 66.339844 182.117188 65.875 C 182.09375 65.496094 182.074219 65.117188 182.058594 64.742188 C 182.03125 64.21875 182.003906 63.699219 181.972656 63.1875 C 181.941406 62.710938 181.890625 62.226562 181.839844 61.757812 C 181.796875 61.335938 181.753906 60.921875 181.722656 60.507812 C 181.6875 60.050781 181.671875 59.605469 181.65625 59.171875 C 181.640625 58.699219 181.625 58.253906 181.589844 57.820312 L 181.523438 57.007812 C 181.46875 56.363281 181.417969 55.742188 181.359375 55.144531 C 181.261719 54.164062 181.160156 53.269531 181.0625 52.480469 C 180.980469 51.820312 180.855469 51.199219 180.746094 50.648438 C 180.691406 50.371094 180.640625 50.109375 180.59375 49.859375 C 180.503906 49.34375 180.308594 48.234375 180.136719 47.753906 C 179.847656 47.722656 179.238281 47.6875 177.992188 47.664062 C 177.707031 47.660156 177.398438 47.644531 177.070312 47.632812 C 176.558594 47.609375 175.988281 47.582031 175.378906 47.589844 C 175.003906 47.589844 174.597656 47.621094 174.167969 47.652344 C 173.71875 47.6875 173.25 47.726562 172.753906 47.734375 C 172.207031 47.742188 171.640625 47.757812 171.050781 47.769531 L 170.128906 47.792969 C 169.753906 47.800781 169.375 47.804688 168.988281 47.8125 C 168.5 47.816406 168.003906 47.824219 167.5 47.839844 C 167.082031 47.851562 166.660156 47.847656 166.230469 47.84375 C 165.785156 47.835938 165.324219 47.832031 164.867188 47.847656 C 164.449219 47.863281 164.027344 47.890625 163.582031 47.925781 C 163.140625 47.957031 162.695312 47.988281 162.242188 48.003906 C 161.800781 48.019531 161.355469 48.046875 160.90625 48.070312 C 160.476562 48.09375 160.046875 48.117188 159.613281 48.136719 C 159.164062 48.152344 158.714844 48.140625 158.28125 48.132812 C 157.832031 48.121094 157.40625 48.109375 156.980469 48.128906 C 156.535156 48.148438 156.085938 48.175781 155.636719 48.203125 C 155.210938 48.226562 154.785156 48.253906 154.355469 48.273438 C 153.933594 48.292969 153.511719 48.332031 153.0625 48.375 C 152.632812 48.414062 152.183594 48.457031 151.730469 48.480469 C 151.28125 48.5 150.832031 48.5 150.398438 48.5 C 149.949219 48.5 149.527344 48.5 149.097656 48.523438 C 148.664062 48.542969 148.21875 48.585938 147.785156 48.625 C 147.347656 48.664062 146.910156 48.707031 146.476562 48.730469 C 146.023438 48.753906 145.574219 48.757812 145.136719 48.757812 C 144.691406 48.761719 144.265625 48.765625 143.84375 48.789062 C 143.390625 48.816406 142.9375 48.851562 142.488281 48.890625 C 142.0625 48.925781 141.640625 48.960938 141.21875 48.988281 C 140.742188 49.015625 140.269531 49.050781 139.800781 49.089844 C 139.394531 49.121094 138.992188 49.148438 138.59375 49.175781 C 138.121094 49.207031 137.652344 49.246094 137.1875 49.285156 C 136.777344 49.320312 136.371094 49.355469 135.96875 49.386719 C 135.507812 49.417969 135.054688 49.425781 134.617188 49.433594 C 134.171875 49.441406 133.75 49.445312 133.339844 49.476562 C 132.859375 49.515625 132.386719 49.5625 131.921875 49.613281 C 131.515625 49.65625 131.117188 49.695312 130.722656 49.730469 C 130.3125 49.761719 129.90625 49.789062 129.507812 49.816406 C 129.03125 49.851562 128.558594 49.882812 128.101562 49.925781 C 127.316406 49.996094 126.5625 50.074219 125.847656 50.152344 L 125.492188 50.1875 C 124.835938 50.257812 124.214844 50.339844 123.617188 50.417969 C 123.371094 50.449219 123.128906 50.484375 122.894531 50.511719 C 122.632812 50.546875 122.375 50.578125 122.128906 50.605469 C 121.4375 50.691406 120.839844 50.761719 120.320312 50.855469 C 118.839844 51.113281 118.355469 51.347656 118.246094 51.410156 Z M 182.378906 95.023438 Z M 180.339844 47.785156 Z M 180.644531 47.125 L 180.050781 47.5625 L 180.050781 47.566406 Z M 189.242188 115.675781 C 189.242188 115.675781 177.164062 118.457031 173.644531 119.109375 C 173.070312 119.214844 185.910156 124.8125 186.429688 124.8125 C 186.953125 124.8125 202.375 120.804688 202.507812 120.414062 C 202.636719 120.023438 189.242188 115.675781 189.242188 115.675781 Z M 189.242188 115.675781 " fill-opacity="1" fill-rule="nonzero"/></svg>