<svg xmlns="http://www.w3.org/2000/svg" xmlns:xlink="http://www.w3.org/1999/xlink" width="407" zoomAndPan="magnify" viewBox="0 0 305.25 202.499994" height="270" preserveAspectRatio="xMidYMid meet" version="1.0"><defs><filter x="0%" y="0%" width="100%" height="100%" id="ea3c13c1f0"><feColorMatrix values="0 0 0 0 1 0 0 0 0 1 0 0 0 0 1 0 0 0 1 0" color-interpolation-filters="sRGB"/></filter><g/><clipPath id="d3c3883eea"><path d="M 53 2 L 157 2 L 157 107 L 53 107 Z M 53 2 " clip-rule="nonzero"/></clipPath><clipPath id="0889a0e816"><path d="M 154 0.101562 L 162.058594 154.761719 L 8.148438 162.78125 L 0.0859375 8.125 Z M 154 0.101562 " clip-rule="nonzero"/></clipPath><clipPath id="72f05952cc"><path d="M 154 0.101562 L 162.058594 154.761719 L 8.148438 162.78125 L 0.0859375 8.125 Z M 154 0.101562 " clip-rule="nonzero"/></clipPath><clipPath id="8e56115b5e"><path d="M 49 89 L 74 89 L 74 113 L 49 113 Z M 49 89 " clip-rule="nonzero"/></clipPath><clipPath id="c1f7cb7a8b"><path d="M 154 0.101562 L 162.058594 154.761719 L 8.148438 162.78125 L 0.0859375 8.125 Z M 154 0.101562 " clip-rule="nonzero"/></clipPath><clipPath id="604aea79ef"><path d="M 154 0.101562 L 162.058594 154.761719 L 8.148438 162.78125 L 0.0859375 8.125 Z M 154 0.101562 " clip-rule="nonzero"/></clipPath><clipPath id="cddfa0752a"><path d="M 8 108 L 59 108 L 59 163 L 8 163 Z M 8 108 " clip-rule="nonzero"/></clipPath><clipPath id="3bc97446b8"><path d="M 154 0.101562 L 162.058594 154.761719 L 8.148438 162.78125 L 0.0859375 8.125 Z M 154 0.101562 " clip-rule="nonzero"/></clipPath><clipPath id="af18e6c4ff"><path d="M 154 0.101562 L 162.058594 154.761719 L 8.148438 162.78125 L 0.0859375 8.125 Z M 154 0.101562 " clip-rule="nonzero"/></clipPath><clipPath id="cd5bae060b"><path d="M 68 18 L 123 18 L 123 70 L 68 70 Z M 68 18 " clip-rule="nonzero"/></clipPath><clipPath id="54d865d6bc"><path d="M 154 0.101562 L 162.058594 154.761719 L 8.148438 162.78125 L 0.0859375 8.125 Z M 154 0.101562 " clip-rule="nonzero"/></clipPath><clipPath id="563507b2a1"><path d="M 154 0.101562 L 162.058594 154.761719 L 8.148438 162.78125 L 0.0859375 8.125 Z M 154 0.101562 " clip-rule="nonzero"/></clipPath><clipPath id="eca234d4cb"><path d="M 55 8 L 152 8 L 152 105 L 55 105 Z M 55 8 " clip-rule="nonzero"/></clipPath><clipPath id="3140880357"><path d="M 148.761719 5.972656 L 156.277344 150.171875 L 13.574219 157.609375 L 6.058594 13.410156 Z M 148.761719 5.972656 " clip-rule="nonzero"/></clipPath><clipPath id="16fdbd2714"><path d="M 148.761719 5.972656 L 156.277344 150.171875 L 13.574219 157.609375 L 6.058594 13.410156 Z M 148.761719 5.972656 " clip-rule="nonzero"/></clipPath><clipPath id="e9d0f57296"><path d="M 51 89 L 74 89 L 74 110 L 51 110 Z M 51 89 " clip-rule="nonzero"/></clipPath><clipPath id="46ad324331"><path d="M 148.761719 5.972656 L 156.277344 150.171875 L 13.574219 157.609375 L 6.058594 13.410156 Z M 148.761719 5.972656 " clip-rule="nonzero"/></clipPath><clipPath id="2d766bcc87"><path d="M 148.761719 5.972656 L 156.277344 150.171875 L 13.574219 157.609375 L 6.058594 13.410156 Z M 148.761719 5.972656 " clip-rule="nonzero"/></clipPath><clipPath id="c3520d990c"><path d="M 13 106 L 61 106 L 61 157 L 13 157 Z M 13 106 " clip-rule="nonzero"/></clipPath><clipPath id="5f258e4874"><path d="M 148.761719 5.972656 L 156.277344 150.171875 L 13.574219 157.609375 L 6.058594 13.410156 Z M 148.761719 5.972656 " clip-rule="nonzero"/></clipPath><clipPath id="227663a2a9"><path d="M 148.761719 5.972656 L 156.277344 150.171875 L 13.574219 157.609375 L 6.058594 13.410156 Z M 148.761719 5.972656 " clip-rule="nonzero"/></clipPath><clipPath id="950d639a46"><path d="M 69 23 L 120 23 L 120 71 L 69 71 Z M 69 23 " clip-rule="nonzero"/></clipPath><clipPath id="e6e6274753"><path d="M 148.761719 5.972656 L 156.277344 150.171875 L 13.574219 157.609375 L 6.058594 13.410156 Z M 148.761719 5.972656 " clip-rule="nonzero"/></clipPath><clipPath id="77435d5cb9"><path d="M 148.761719 5.972656 L 156.277344 150.171875 L 13.574219 157.609375 L 6.058594 13.410156 Z M 148.761719 5.972656 " clip-rule="nonzero"/></clipPath><clipPath id="e96397acf5"><path d="M 107 38 L 236.988281 38 L 236.988281 141 L 107 141 Z M 107 38 " clip-rule="nonzero"/></clipPath><mask id="f26a135346"><g filter="url(#ea3c13c1f0)"><rect x="-30.525" width="366.3" fill="#000000" y="-20.249999" height="242.999993" fill-opacity="0.4"/></g></mask><clipPath id="6e43afea3d"><path d="M 1 1 L 90.851562 1 L 90.851562 76.339844 L 1 76.339844 Z M 1 1 " clip-rule="nonzero"/></clipPath><clipPath id="910d7316f8"><rect x="0" width="91" y="0" height="77"/></clipPath></defs><g clip-path="url(#d3c3883eea)"><g clip-path="url(#0889a0e816)"><g clip-path="url(#72f05952cc)"><path fill="#ffffff" d="M 53.320312 57.230469 C 51.835938 28.730469 73.8125 4.332031 102.316406 2.847656 C 130.820312 1.359375 155.214844 23.339844 156.703125 51.84375 C 158.1875 80.347656 136.210938 104.742188 107.707031 106.226562 C 79.203125 107.710938 54.808594 85.730469 53.320312 57.230469 Z M 148.199219 52.285156 C 148.125 50.871094 147.984375 49.464844 147.769531 48.0625 C 147.558594 46.664062 147.277344 45.277344 146.929688 43.902344 C 146.582031 42.53125 146.167969 41.175781 145.6875 39.84375 C 145.207031 38.511719 144.660156 37.207031 144.050781 35.929688 C 143.441406 34.652344 142.769531 33.40625 142.039062 32.191406 C 141.308594 30.980469 140.519531 29.804688 139.671875 28.671875 C 138.824219 27.535156 137.921875 26.445312 136.96875 25.398438 C 136.015625 24.351562 135.011719 23.355469 133.957031 22.40625 C 132.90625 21.457031 131.808594 20.5625 130.671875 19.722656 C 129.53125 18.882812 128.351562 18.101562 127.132812 17.375 C 125.917969 16.652344 124.667969 15.988281 123.386719 15.386719 C 122.101562 14.785156 120.792969 14.246094 119.460938 13.773438 C 118.125 13.300781 116.769531 12.894531 115.394531 12.554688 C 114.019531 12.214844 112.632812 11.941406 111.230469 11.738281 C 109.828125 11.535156 108.417969 11.402344 107.003906 11.335938 C 105.589844 11.269531 104.175781 11.273438 102.761719 11.347656 C 101.347656 11.421875 99.9375 11.5625 98.539062 11.777344 C 97.136719 11.988281 95.75 12.269531 94.378906 12.617188 C 93.003906 12.964844 91.652344 13.378906 90.320312 13.859375 C 88.988281 14.34375 87.683594 14.886719 86.40625 15.496094 C 85.125 16.105469 83.878906 16.777344 82.667969 17.507812 C 81.457031 18.238281 80.28125 19.03125 79.144531 19.875 C 78.011719 20.722656 76.921875 21.625 75.875 22.578125 C 74.828125 23.535156 73.828125 24.535156 72.882812 25.589844 C 71.933594 26.640625 71.039062 27.738281 70.199219 28.878906 C 69.359375 30.019531 68.574219 31.195312 67.851562 32.414062 C 67.128906 33.628906 66.464844 34.878906 65.863281 36.164062 C 65.261719 37.445312 64.722656 38.753906 64.25 40.089844 C 63.777344 41.421875 63.371094 42.777344 63.03125 44.152344 C 62.691406 45.527344 62.417969 46.917969 62.214844 48.316406 C 62.011719 49.71875 61.875 51.128906 61.8125 52.542969 C 61.746094 53.957031 61.75 55.371094 61.824219 56.785156 C 61.898438 58.203125 62.039062 59.609375 62.253906 61.007812 C 62.464844 62.410156 62.746094 63.796875 63.09375 65.167969 C 63.441406 66.542969 63.855469 67.894531 64.335938 69.226562 C 64.816406 70.558594 65.363281 71.863281 65.972656 73.144531 C 66.582031 74.421875 67.253906 75.667969 67.984375 76.878906 C 68.714844 78.09375 69.503906 79.265625 70.351562 80.402344 C 71.199219 81.535156 72.101562 82.628906 73.054688 83.675781 C 74.007812 84.722656 75.011719 85.71875 76.066406 86.667969 C 77.117188 87.613281 78.214844 88.507812 79.351562 89.347656 C 80.492188 90.1875 81.671875 90.972656 82.890625 91.695312 C 84.105469 92.421875 85.355469 93.082031 86.636719 93.6875 C 87.921875 94.289062 89.230469 94.824219 90.5625 95.296875 C 91.898438 95.769531 93.253906 96.179688 94.628906 96.519531 C 96.003906 96.859375 97.390625 97.128906 98.792969 97.332031 C 100.195312 97.535156 101.605469 97.671875 103.019531 97.738281 C 104.433594 97.800781 105.847656 97.796875 107.261719 97.722656 C 108.675781 97.648438 110.082031 97.503906 111.484375 97.289062 C 112.882812 97.078125 114.269531 96.796875 115.640625 96.445312 C 117.011719 96.097656 118.363281 95.679688 119.695312 95.199219 C 121.027344 94.71875 122.332031 94.171875 123.609375 93.5625 C 124.886719 92.949219 126.128906 92.28125 127.34375 91.546875 C 128.554688 90.816406 129.726562 90.027344 130.863281 89.179688 C 131.996094 88.332031 133.085938 87.429688 134.132812 86.476562 C 135.179688 85.523438 136.175781 84.519531 137.121094 83.46875 C 138.070312 82.414062 138.964844 81.320312 139.804688 80.179688 C 140.644531 79.039062 141.425781 77.863281 142.152344 76.644531 C 142.875 75.429688 143.539062 74.179688 144.140625 72.898438 C 144.742188 71.617188 145.28125 70.308594 145.753906 68.976562 C 146.226562 67.640625 146.636719 66.289062 146.976562 64.914062 C 147.316406 63.539062 147.589844 62.152344 147.792969 60.75 C 148 59.351562 148.132812 57.941406 148.203125 56.527344 C 148.269531 55.113281 148.265625 53.699219 148.191406 52.285156 Z M 148.199219 52.285156 " fill-opacity="1" fill-rule="nonzero"/></g></g></g><g clip-path="url(#8e56115b5e)"><g clip-path="url(#c1f7cb7a8b)"><g clip-path="url(#604aea79ef)"><path fill="#ffffff" d="M 49.679688 94.847656 C 49.65625 94.375 49.699219 93.914062 49.8125 93.457031 C 49.925781 93 50.101562 92.566406 50.339844 92.164062 C 50.582031 91.757812 50.875 91.398438 51.222656 91.082031 C 51.570312 90.761719 51.957031 90.5 52.378906 90.296875 C 52.804688 90.09375 53.25 89.957031 53.714844 89.886719 C 54.179688 89.816406 54.644531 89.8125 55.113281 89.878906 C 55.578125 89.945312 56.023438 90.078125 56.449219 90.273438 C 56.878906 90.472656 57.265625 90.730469 57.617188 91.042969 L 71.566406 103.515625 C 71.820312 103.71875 72.050781 103.941406 72.261719 104.191406 C 72.46875 104.441406 72.652344 104.707031 72.804688 104.992188 C 72.960938 105.277344 73.082031 105.578125 73.175781 105.890625 C 73.269531 106.199219 73.328125 106.515625 73.359375 106.839844 C 73.386719 107.164062 73.382812 107.488281 73.34375 107.808594 C 73.304688 108.132812 73.234375 108.449219 73.132812 108.757812 C 73.03125 109.0625 72.898438 109.359375 72.738281 109.640625 C 72.574219 109.921875 72.386719 110.183594 72.167969 110.425781 C 71.953125 110.667969 71.714844 110.886719 71.453125 111.082031 C 71.195312 111.273438 70.917969 111.441406 70.621094 111.578125 C 70.328125 111.714844 70.023438 111.820312 69.707031 111.894531 C 69.390625 111.96875 69.070312 112.011719 68.746094 112.019531 C 68.421875 112.03125 68.097656 112.007812 67.777344 111.949219 C 67.460938 111.894531 67.148438 111.804688 66.847656 111.683594 C 66.546875 111.566406 66.257812 111.414062 65.988281 111.238281 C 65.714844 111.058594 65.464844 110.855469 65.234375 110.625 L 51.289062 98.152344 C 50.808594 97.730469 50.429688 97.234375 50.152344 96.660156 C 49.875 96.085938 49.714844 95.484375 49.679688 94.847656 Z M 49.679688 94.847656 " fill-opacity="1" fill-rule="nonzero"/></g></g></g><g clip-path="url(#cddfa0752a)"><g clip-path="url(#3bc97446b8)"><g clip-path="url(#af18e6c4ff)"><path fill="#ffffff" d="M 8.011719 154.296875 C 7.953125 153.199219 8.109375 152.132812 8.484375 151.09375 C 8.855469 150.058594 9.417969 149.136719 10.164062 148.332031 L 44.207031 111.433594 C 44.574219 111.039062 44.972656 110.683594 45.40625 110.367188 C 45.839844 110.050781 46.300781 109.78125 46.785156 109.554688 C 47.273438 109.332031 47.777344 109.15625 48.300781 109.03125 C 48.820312 108.902344 49.351562 108.832031 49.886719 108.808594 C 50.421875 108.785156 50.957031 108.816406 51.488281 108.902344 C 52.015625 108.984375 52.535156 109.117188 53.039062 109.304688 C 53.542969 109.488281 54.023438 109.722656 54.480469 110 C 54.9375 110.28125 55.363281 110.601562 55.757812 110.96875 C 56.152344 111.332031 56.507812 111.730469 56.824219 112.164062 C 57.140625 112.597656 57.410156 113.058594 57.636719 113.546875 C 57.863281 114.03125 58.039062 114.535156 58.164062 115.058594 C 58.289062 115.582031 58.363281 116.109375 58.386719 116.644531 C 58.40625 117.183594 58.375 117.714844 58.292969 118.246094 C 58.210938 118.773438 58.074219 119.292969 57.890625 119.796875 C 57.703125 120.300781 57.472656 120.78125 57.191406 121.238281 C 56.914062 121.695312 56.589844 122.121094 56.226562 122.515625 L 22.183594 159.414062 C 21.636719 160.003906 21.019531 160.503906 20.324219 160.914062 C 19.632812 161.320312 18.894531 161.621094 18.113281 161.8125 C 17.332031 162.003906 16.539062 162.074219 15.738281 162.03125 C 14.933594 161.988281 14.15625 161.832031 13.398438 161.558594 C 12.644531 161.285156 11.941406 160.910156 11.296875 160.429688 C 10.652344 159.949219 10.089844 159.386719 9.609375 158.742188 C 9.132812 158.09375 8.757812 157.394531 8.484375 156.636719 C 8.210938 155.878906 8.054688 155.101562 8.011719 154.296875 Z M 8.011719 154.296875 " fill-opacity="1" fill-rule="nonzero"/></g></g></g><g clip-path="url(#cd5bae060b)"><g clip-path="url(#54d865d6bc)"><g clip-path="url(#563507b2a1)"><path fill="#ffffff" d="M 68.601562 56.347656 C 68.253906 49.691406 69.703125 40.789062 76.457031 30.992188 C 82.386719 22.390625 91.972656 18.070312 104.167969 18.488281 C 109.8125 18.707031 115.292969 19.761719 120.613281 21.652344 C 120.925781 21.777344 121.207031 21.957031 121.449219 22.1875 C 121.691406 22.421875 121.882812 22.695312 122.019531 23.003906 C 122.152344 23.3125 122.226562 23.636719 122.230469 23.972656 C 122.238281 24.308594 122.183594 24.636719 122.0625 24.949219 C 121.941406 25.265625 121.761719 25.546875 121.53125 25.789062 C 121.296875 26.035156 121.027344 26.226562 120.71875 26.363281 C 120.410156 26.5 120.085938 26.574219 119.75 26.582031 C 119.414062 26.59375 119.085938 26.535156 118.769531 26.417969 C 113.945312 24.730469 108.976562 23.785156 103.871094 23.589844 C 93.417969 23.261719 85.621094 26.726562 80.671875 33.890625 C 68.472656 51.574219 75.992188 65.757812 76.070312 65.902344 C 76.242188 66.199219 76.347656 66.519531 76.390625 66.859375 C 76.433594 67.199219 76.410156 67.535156 76.316406 67.867188 C 76.222656 68.195312 76.070312 68.496094 75.855469 68.765625 C 75.644531 69.035156 75.386719 69.25 75.085938 69.414062 C 74.78125 69.582031 74.460938 69.679688 74.121094 69.714844 C 73.777344 69.75 73.445312 69.71875 73.117188 69.621094 C 72.785156 69.519531 72.492188 69.359375 72.226562 69.140625 C 71.960938 68.921875 71.75 68.660156 71.59375 68.355469 C 71.386719 68 68.96875 63.453125 68.601562 56.347656 Z M 68.601562 56.347656 " fill-opacity="1" fill-rule="nonzero"/></g></g></g><g fill="#ffffff" fill-opacity="1"><g transform="translate(54.912888, 175.594028)"><g><path d="M 19.265625 -29.3125 C 16.472656 -29.3125 14.3125 -28.257812 12.78125 -26.15625 C 11.25 -24.0625 10.484375 -21.140625 10.484375 -17.390625 C 10.484375 -9.585938 13.410156 -5.6875 19.265625 -5.6875 C 21.710938 -5.6875 24.6875 -6.300781 28.1875 -7.53125 L 28.1875 -1.3125 C 25.3125 -0.113281 22.101562 0.484375 18.5625 0.484375 C 13.476562 0.484375 9.585938 -1.054688 6.890625 -4.140625 C 4.191406 -7.234375 2.84375 -11.664062 2.84375 -17.4375 C 2.84375 -21.070312 3.503906 -24.257812 4.828125 -27 C 6.148438 -29.738281 8.050781 -31.835938 10.53125 -33.296875 C 13.019531 -34.753906 15.929688 -35.484375 19.265625 -35.484375 C 22.660156 -35.484375 26.070312 -34.660156 29.5 -33.015625 L 27.109375 -26.984375 C 25.796875 -27.609375 24.476562 -28.148438 23.15625 -28.609375 C 21.832031 -29.078125 20.535156 -29.3125 19.265625 -29.3125 Z M 19.265625 -29.3125 "/></g></g><g transform="translate(86.138581, 175.594028)"><g><path d="M 36.15625 -17.53125 C 36.15625 -11.75 34.71875 -7.300781 31.84375 -4.1875 C 28.96875 -1.070312 24.851562 0.484375 19.5 0.484375 C 14.132812 0.484375 10.015625 -1.070312 7.140625 -4.1875 C 4.273438 -7.300781 2.84375 -11.765625 2.84375 -17.578125 C 2.84375 -23.398438 4.28125 -27.847656 7.15625 -30.921875 C 10.039062 -33.992188 14.171875 -35.53125 19.546875 -35.53125 C 24.921875 -35.53125 29.03125 -33.984375 31.875 -30.890625 C 34.726562 -27.796875 36.15625 -23.34375 36.15625 -17.53125 Z M 10.625 -17.53125 C 10.625 -13.625 11.363281 -10.679688 12.84375 -8.703125 C 14.332031 -6.734375 16.550781 -5.75 19.5 -5.75 C 25.414062 -5.75 28.375 -9.675781 28.375 -17.53125 C 28.375 -25.414062 25.429688 -29.359375 19.546875 -29.359375 C 16.597656 -29.359375 14.375 -28.363281 12.875 -26.375 C 11.375 -24.394531 10.625 -21.445312 10.625 -17.53125 Z M 10.625 -17.53125 "/></g></g><g transform="translate(125.140787, 175.594028)"><g><path d="M 33.421875 -17.828125 C 33.421875 -12.066406 31.78125 -7.65625 28.5 -4.59375 C 25.226562 -1.53125 20.5 0 14.3125 0 L 4.40625 0 L 4.40625 -34.984375 L 15.390625 -34.984375 C 21.097656 -34.984375 25.53125 -33.472656 28.6875 -30.453125 C 31.84375 -27.441406 33.421875 -23.234375 33.421875 -17.828125 Z M 25.71875 -17.640625 C 25.71875 -25.148438 22.398438 -28.90625 15.765625 -28.90625 L 11.8125 -28.90625 L 11.8125 -6.125 L 15 -6.125 C 22.144531 -6.125 25.71875 -9.960938 25.71875 -17.640625 Z M 25.71875 -17.640625 "/></g></g><g transform="translate(161.415232, 175.594028)"><g><path d="M 24.546875 0 L 4.40625 0 L 4.40625 -34.984375 L 24.546875 -34.984375 L 24.546875 -28.90625 L 11.8125 -28.90625 L 11.8125 -21.21875 L 23.65625 -21.21875 L 23.65625 -15.140625 L 11.8125 -15.140625 L 11.8125 -6.125 L 24.546875 -6.125 Z M 24.546875 0 "/></g></g></g><g fill="#ffffff" fill-opacity="1"><g transform="translate(188.867287, 175.594028)"><g/></g></g><g fill="#ffffff" fill-opacity="1"><g transform="translate(117.419092, 192.015718)"><g><path d="M 14.359375 -11.953125 L 14.359375 0 L 13.15625 0 L 13.15625 -9.5625 L 8.453125 -1.515625 L 7.859375 -1.515625 L 3.15625 -9.515625 L 3.15625 0 L 1.953125 0 L 1.953125 -11.953125 L 2.984375 -11.953125 L 8.1875 -3.09375 L 13.328125 -11.953125 Z M 14.359375 -11.953125 "/></g></g></g><g fill="#ffffff" fill-opacity="1"><g transform="translate(137.612418, 192.015718)"><g><path d="M 10.40625 -1.09375 L 10.40625 0 L 1.953125 0 L 1.953125 -11.953125 L 10.140625 -11.953125 L 10.140625 -10.859375 L 3.203125 -10.859375 L 3.203125 -6.609375 L 9.390625 -6.609375 L 9.390625 -5.53125 L 3.203125 -5.53125 L 3.203125 -1.09375 Z M 10.40625 -1.09375 "/></g></g></g><g fill="#ffffff" fill-opacity="1"><g transform="translate(152.924486, 192.015718)"><g><path d="M 4.265625 -10.859375 L 0.0625 -10.859375 L 0.0625 -11.953125 L 9.734375 -11.953125 L 9.734375 -10.859375 L 5.53125 -10.859375 L 5.53125 0 L 4.265625 0 Z M 4.265625 -10.859375 "/></g></g></g><g fill="#ffffff" fill-opacity="1"><g transform="translate(166.615163, 192.015718)"><g><path d="M 10.109375 0 L 7.375 -3.84375 C 7.070312 -3.8125 6.753906 -3.796875 6.421875 -3.796875 L 3.203125 -3.796875 L 3.203125 0 L 1.953125 0 L 1.953125 -11.953125 L 6.421875 -11.953125 C 7.941406 -11.953125 9.132812 -11.585938 10 -10.859375 C 10.875 -10.128906 11.3125 -9.128906 11.3125 -7.859375 C 11.3125 -6.921875 11.070312 -6.128906 10.59375 -5.484375 C 10.125 -4.847656 9.453125 -4.382812 8.578125 -4.09375 L 11.5 0 Z M 6.390625 -4.875 C 7.566406 -4.875 8.46875 -5.132812 9.09375 -5.65625 C 9.726562 -6.175781 10.046875 -6.910156 10.046875 -7.859375 C 10.046875 -8.828125 9.726562 -9.566406 9.09375 -10.078125 C 8.46875 -10.597656 7.566406 -10.859375 6.390625 -10.859375 L 3.203125 -10.859375 L 3.203125 -4.875 Z M 6.390625 -4.875 "/></g></g></g><g fill="#ffffff" fill-opacity="1"><g transform="translate(182.848875, 192.015718)"><g><path d="M 1.953125 -11.953125 L 3.203125 -11.953125 L 3.203125 0 L 1.953125 0 Z M 1.953125 -11.953125 "/></g></g></g><g fill="#ffffff" fill-opacity="1"><g transform="translate(191.89724, 192.015718)"><g><path d="M 7.140625 0.109375 C 5.953125 0.109375 4.882812 -0.148438 3.9375 -0.671875 C 2.988281 -1.203125 2.242188 -1.929688 1.703125 -2.859375 C 1.160156 -3.785156 0.890625 -4.828125 0.890625 -5.984375 C 0.890625 -7.128906 1.160156 -8.164062 1.703125 -9.09375 C 2.242188 -10.019531 2.988281 -10.742188 3.9375 -11.265625 C 4.894531 -11.796875 5.96875 -12.0625 7.15625 -12.0625 C 8.039062 -12.0625 8.859375 -11.910156 9.609375 -11.609375 C 10.359375 -11.316406 11 -10.882812 11.53125 -10.3125 L 10.71875 -9.515625 C 9.789062 -10.460938 8.613281 -10.9375 7.1875 -10.9375 C 6.238281 -10.9375 5.378906 -10.71875 4.609375 -10.28125 C 3.835938 -9.84375 3.234375 -9.25 2.796875 -8.5 C 2.359375 -7.75 2.140625 -6.910156 2.140625 -5.984375 C 2.140625 -5.046875 2.359375 -4.203125 2.796875 -3.453125 C 3.234375 -2.703125 3.835938 -2.109375 4.609375 -1.671875 C 5.378906 -1.242188 6.238281 -1.03125 7.1875 -1.03125 C 8.625 -1.03125 9.800781 -1.503906 10.71875 -2.453125 L 11.53125 -1.65625 C 11 -1.082031 10.351562 -0.644531 9.59375 -0.34375 C 8.84375 -0.0390625 8.023438 0.109375 7.140625 0.109375 Z M 7.140625 0.109375 "/></g></g></g><g clip-path="url(#eca234d4cb)"><g clip-path="url(#3140880357)"><g clip-path="url(#16fdbd2714)"><path fill="#5271ff" d="M 55.332031 58.988281 C 53.953125 32.535156 74.347656 9.894531 100.800781 8.515625 C 127.253906 7.136719 149.890625 27.535156 151.269531 53.988281 C 152.648438 80.4375 132.253906 103.078125 105.800781 104.457031 C 79.347656 105.835938 56.710938 85.4375 55.332031 58.988281 Z M 143.378906 54.398438 C 143.3125 53.085938 143.179688 51.777344 142.984375 50.480469 C 142.785156 49.179688 142.527344 47.894531 142.203125 46.617188 C 141.878906 45.34375 141.496094 44.089844 141.046875 42.851562 C 140.601562 41.617188 140.09375 40.40625 139.53125 39.21875 C 138.964844 38.03125 138.34375 36.875 137.664062 35.75 C 136.984375 34.625 136.25 33.535156 135.464844 32.484375 C 134.679688 31.429688 133.84375 30.417969 132.957031 29.445312 C 132.070312 28.472656 131.140625 27.546875 130.164062 26.667969 C 129.1875 25.789062 128.171875 24.960938 127.113281 24.179688 C 126.054688 23.398438 124.960938 22.671875 123.832031 22 C 122.703125 21.328125 121.542969 20.714844 120.351562 20.15625 C 119.160156 19.597656 117.949219 19.097656 116.707031 18.660156 C 115.46875 18.21875 114.210938 17.84375 112.9375 17.527344 C 111.660156 17.210938 110.371094 16.957031 109.070312 16.769531 C 107.769531 16.582031 106.464844 16.457031 105.148438 16.394531 C 103.835938 16.335938 102.523438 16.339844 101.210938 16.40625 C 99.898438 16.476562 98.59375 16.609375 97.292969 16.804688 C 95.992188 17 94.707031 17.261719 93.433594 17.585938 C 92.160156 17.90625 90.902344 18.292969 89.667969 18.738281 C 88.429688 19.183594 87.21875 19.691406 86.03125 20.257812 C 84.847656 20.824219 83.691406 21.445312 82.566406 22.125 C 81.4375 22.804688 80.351562 23.535156 79.296875 24.320312 C 78.242188 25.109375 77.230469 25.945312 76.257812 26.828125 C 75.289062 27.714844 74.363281 28.644531 73.484375 29.621094 C 72.601562 30.597656 71.773438 31.617188 70.992188 32.675781 C 70.214844 33.734375 69.488281 34.828125 68.816406 35.957031 C 68.140625 37.085938 67.527344 38.246094 66.96875 39.433594 C 66.410156 40.625 65.910156 41.839844 65.472656 43.078125 C 65.03125 44.316406 64.65625 45.574219 64.339844 46.851562 C 64.023438 48.125 63.773438 49.414062 63.582031 50.714844 C 63.394531 52.015625 63.269531 53.324219 63.207031 54.636719 C 63.148438 55.949219 63.152344 57.261719 63.21875 58.574219 C 63.289062 59.886719 63.421875 61.195312 63.617188 62.492188 C 63.816406 63.792969 64.074219 65.082031 64.398438 66.355469 C 64.722656 67.628906 65.105469 68.882812 65.550781 70.121094 C 66 71.355469 66.503906 72.566406 67.070312 73.753906 C 67.636719 74.941406 68.257812 76.097656 68.9375 77.222656 C 69.617188 78.347656 70.347656 79.4375 71.136719 80.492188 C 71.921875 81.542969 72.757812 82.554688 73.644531 83.527344 C 74.527344 84.5 75.460938 85.425781 76.4375 86.304688 C 77.414062 87.183594 78.429688 88.015625 79.488281 88.792969 C 80.546875 89.574219 81.640625 90.300781 82.769531 90.972656 C 83.898438 91.644531 85.058594 92.261719 86.25 92.820312 C 87.4375 93.378906 88.652344 93.875 89.890625 94.316406 C 91.132812 94.753906 92.386719 95.132812 93.664062 95.445312 C 94.941406 95.761719 96.230469 96.015625 97.53125 96.203125 C 98.832031 96.394531 100.136719 96.519531 101.449219 96.578125 C 102.761719 96.640625 104.078125 96.636719 105.390625 96.566406 C 106.699219 96.496094 108.007812 96.363281 109.304688 96.164062 C 110.605469 95.964844 111.890625 95.703125 113.164062 95.378906 C 114.4375 95.054688 115.691406 94.671875 116.925781 94.222656 C 118.164062 93.777344 119.371094 93.269531 120.558594 92.703125 C 121.746094 92.136719 122.898438 91.515625 124.023438 90.835938 C 125.148438 90.15625 126.238281 89.421875 127.289062 88.636719 C 128.34375 87.851562 129.355469 87.015625 130.324219 86.128906 C 131.296875 85.242188 132.222656 84.3125 133.101562 83.335938 C 133.980469 82.359375 134.808594 81.34375 135.589844 80.285156 C 136.367188 79.226562 137.09375 78.132812 137.765625 77.003906 C 138.4375 75.875 139.054688 74.71875 139.613281 73.527344 C 140.171875 72.339844 140.671875 71.125 141.109375 69.886719 C 141.550781 68.648438 141.929688 67.390625 142.246094 66.117188 C 142.5625 64.84375 142.8125 63.554688 143.003906 62.253906 C 143.195312 60.953125 143.320312 59.648438 143.382812 58.335938 C 143.441406 57.023438 143.441406 55.710938 143.375 54.398438 Z M 143.378906 54.398438 " fill-opacity="1" fill-rule="nonzero"/></g></g></g><g clip-path="url(#e9d0f57296)"><g clip-path="url(#46ad324331)"><g clip-path="url(#2d766bcc87)"><path fill="#5271ff" d="M 51.949219 93.894531 C 51.929688 93.460938 51.96875 93.03125 52.074219 92.605469 C 52.179688 92.179688 52.34375 91.78125 52.566406 91.40625 C 52.789062 91.03125 53.0625 90.695312 53.382812 90.402344 C 53.707031 90.105469 54.0625 89.863281 54.457031 89.675781 C 54.851562 89.488281 55.265625 89.359375 55.695312 89.292969 C 56.128906 89.226562 56.558594 89.222656 56.992188 89.285156 C 57.425781 89.347656 57.839844 89.46875 58.234375 89.652344 C 58.628906 89.835938 58.992188 90.074219 59.316406 90.367188 L 72.261719 101.941406 C 72.5 102.128906 72.714844 102.335938 72.90625 102.566406 C 73.101562 102.800781 73.269531 103.046875 73.410156 103.3125 C 73.554688 103.578125 73.667969 103.855469 73.757812 104.144531 C 73.84375 104.433594 73.898438 104.726562 73.925781 105.027344 C 73.949219 105.328125 73.945312 105.628906 73.910156 105.925781 C 73.875 106.226562 73.8125 106.519531 73.714844 106.804688 C 73.621094 107.089844 73.5 107.363281 73.347656 107.625 C 73.199219 107.886719 73.023438 108.128906 72.820312 108.355469 C 72.621094 108.578125 72.398438 108.78125 72.160156 108.960938 C 71.917969 109.140625 71.660156 109.292969 71.386719 109.421875 C 71.113281 109.550781 70.828125 109.648438 70.535156 109.71875 C 70.242188 109.785156 69.945312 109.824219 69.644531 109.835938 C 69.34375 109.84375 69.042969 109.820312 68.746094 109.769531 C 68.449219 109.714844 68.164062 109.632812 67.882812 109.523438 C 67.601562 109.410156 67.335938 109.273438 67.085938 109.105469 C 66.832031 108.941406 66.601562 108.75 66.386719 108.539062 L 53.441406 96.964844 C 52.519531 96.148438 52.019531 95.125 51.949219 93.894531 Z M 51.949219 93.894531 " fill-opacity="1" fill-rule="nonzero"/></g></g></g><g clip-path="url(#c3520d990c)"><g clip-path="url(#5f258e4874)"><g clip-path="url(#227663a2a9)"><path fill="#5271ff" d="M 13.28125 149.066406 C 13.226562 148.046875 13.375 147.058594 13.71875 146.097656 C 14.066406 145.136719 14.585938 144.28125 15.277344 143.53125 L 46.875 109.289062 C 47.210938 108.921875 47.582031 108.59375 47.984375 108.300781 C 48.386719 108.007812 48.8125 107.757812 49.265625 107.546875 C 49.71875 107.339844 50.1875 107.175781 50.671875 107.058594 C 51.15625 106.941406 51.644531 106.875 52.144531 106.851562 C 52.640625 106.832031 53.136719 106.863281 53.628906 106.9375 C 54.121094 107.015625 54.601562 107.140625 55.066406 107.3125 C 55.535156 107.484375 55.980469 107.699219 56.40625 107.960938 C 56.832031 108.21875 57.226562 108.519531 57.59375 108.855469 C 57.957031 109.195312 58.289062 109.5625 58.582031 109.964844 C 58.875 110.371094 59.125 110.796875 59.335938 111.25 C 59.542969 111.699219 59.707031 112.167969 59.824219 112.652344 C 59.941406 113.136719 60.007812 113.628906 60.03125 114.125 C 60.050781 114.625 60.019531 115.117188 59.945312 115.609375 C 59.867188 116.101562 59.742188 116.582031 59.570312 117.050781 C 59.398438 117.515625 59.183594 117.964844 58.921875 118.390625 C 58.664062 118.8125 58.363281 119.210938 58.027344 119.574219 L 26.433594 153.816406 C 25.925781 154.363281 25.351562 154.828125 24.707031 155.207031 C 24.066406 155.585938 23.382812 155.863281 22.65625 156.042969 C 21.933594 156.21875 21.195312 156.285156 20.453125 156.246094 C 19.707031 156.207031 18.984375 156.058594 18.28125 155.808594 C 17.578125 155.554688 16.929688 155.203125 16.332031 154.757812 C 15.730469 154.3125 15.210938 153.789062 14.765625 153.191406 C 14.320312 152.59375 13.972656 151.941406 13.71875 151.238281 C 13.46875 150.535156 13.320312 149.8125 13.28125 149.066406 Z M 13.28125 149.066406 " fill-opacity="1" fill-rule="nonzero"/></g></g></g><g clip-path="url(#950d639a46)"><g clip-path="url(#e6e6274753)"><g clip-path="url(#77435d5cb9)"><path fill="#5271ff" d="M 69.507812 58.167969 C 69.1875 51.988281 70.53125 43.730469 76.800781 34.636719 C 82.304688 26.65625 91.199219 22.644531 102.519531 23.035156 C 107.753906 23.234375 112.84375 24.214844 117.777344 25.96875 C 118.070312 26.085938 118.328125 26.25 118.554688 26.46875 C 118.78125 26.683594 118.957031 26.9375 119.082031 27.222656 C 119.207031 27.511719 119.273438 27.808594 119.28125 28.125 C 119.289062 28.4375 119.234375 28.738281 119.121094 29.03125 C 119.011719 29.324219 118.84375 29.582031 118.628906 29.808594 C 118.414062 30.035156 118.164062 30.214844 117.875 30.339844 C 117.589844 30.46875 117.292969 30.535156 116.976562 30.546875 C 116.664062 30.554688 116.363281 30.503906 116.070312 30.390625 C 111.589844 28.824219 106.980469 27.949219 102.242188 27.765625 C 92.542969 27.460938 85.304688 30.679688 80.714844 37.324219 C 69.390625 53.738281 76.371094 66.902344 76.441406 67.035156 C 76.601562 67.3125 76.699219 67.605469 76.738281 67.921875 C 76.78125 68.238281 76.757812 68.550781 76.671875 68.859375 C 76.585938 69.164062 76.441406 69.441406 76.242188 69.691406 C 76.046875 69.941406 75.804688 70.144531 75.527344 70.296875 C 75.246094 70.449219 74.949219 70.542969 74.632812 70.574219 C 74.316406 70.605469 74.003906 70.578125 73.699219 70.484375 C 73.394531 70.390625 73.121094 70.246094 72.875 70.039062 C 72.628906 69.835938 72.433594 69.59375 72.285156 69.3125 C 72.09375 68.984375 69.851562 64.761719 69.507812 58.167969 Z M 69.507812 58.167969 " fill-opacity="1" fill-rule="nonzero"/></g></g></g><g clip-path="url(#e96397acf5)"><path fill="#ffffff" d="M 227.867188 107.945312 C 224.460938 106.574219 219.761719 104.917969 213.894531 103.019531 C 205.902344 100.433594 197.488281 97.957031 192.300781 96.53125 C 192.386719 95.003906 192.429688 93.078125 192.441406 90.601562 C 192.464844 85.433594 192.3125 78.710938 192.015625 71.667969 C 190.824219 43.628906 189.035156 41.152344 188.273438 40.097656 C 186.949219 38.261719 184.957031 38.179688 183.195312 38.105469 C 177.542969 37.871094 160.269531 38.417969 143.878906 39.347656 C 111.328125 41.199219 110.113281 42.617188 108.710938 44.253906 C 107.636719 45.507812 106.9375 47.011719 107.003906 56.113281 C 107.039062 61.230469 107.328125 67.890625 107.808594 74.867188 C 108.246094 81.160156 109.890625 102.335938 112.78125 110.609375 C 113.089844 111.484375 113.738281 113.339844 115.125 114.648438 C 115.738281 117.246094 117.84375 119.476562 119.75 120.746094 C 121.121094 121.660156 128.953125 126.527344 137.128906 131.144531 C 152.144531 139.625 156.640625 140.769531 159.058594 140.769531 C 161.996094 140.769531 184.117188 135.382812 198.054688 131.675781 C 208.132812 128.996094 216.640625 126.515625 222.65625 124.511719 C 226.308594 123.292969 229.050781 122.253906 231.042969 121.332031 C 232.957031 120.445312 236.511719 118.800781 236.511719 115.28125 C 236.511719 111.695312 232.929688 109.980469 227.867188 107.945312 Z M 227.867188 107.945312 C 224.460938 106.574219 219.761719 104.917969 213.894531 103.019531 C 205.902344 100.433594 197.488281 97.957031 192.300781 96.53125 C 192.386719 95.003906 192.429688 93.078125 192.441406 90.601562 C 192.464844 85.433594 192.3125 78.710938 192.015625 71.667969 C 190.824219 43.628906 189.035156 41.152344 188.273438 40.097656 C 186.949219 38.261719 184.957031 38.179688 183.195312 38.105469 C 177.542969 37.871094 160.269531 38.417969 143.878906 39.347656 C 111.328125 41.199219 110.113281 42.617188 108.710938 44.253906 C 107.636719 45.507812 106.9375 47.011719 107.003906 56.113281 C 107.039062 61.230469 107.328125 67.890625 107.808594 74.867188 C 108.246094 81.160156 109.890625 102.335938 112.78125 110.609375 C 113.089844 111.484375 113.738281 113.339844 115.125 114.648438 C 115.738281 117.246094 117.84375 119.476562 119.75 120.746094 C 121.121094 121.660156 128.953125 126.527344 137.128906 131.144531 C 152.144531 139.625 156.640625 140.769531 159.058594 140.769531 C 161.996094 140.769531 184.117188 135.382812 198.054688 131.675781 C 208.132812 128.996094 216.640625 126.515625 222.65625 124.511719 C 226.308594 123.292969 229.050781 122.253906 231.042969 121.332031 C 232.957031 120.445312 236.511719 118.800781 236.511719 115.28125 C 236.511719 111.695312 232.929688 109.980469 227.867188 107.945312 Z M 227.867188 107.945312 " fill-opacity="1" fill-rule="nonzero"/></g><path fill="#5271ff" d="M 232.261719 115.28125 C 232.261719 119.734375 162.523438 136.515625 159.058594 136.515625 C 153.105469 136.515625 124.421875 118.753906 122.109375 117.210938 C 119.796875 115.667969 118.109375 112.773438 120.039062 111.851562 C 119.324219 111.882812 118.800781 111.871094 118.492188 111.8125 C 113.480469 110.847656 109.625 49.71875 111.9375 47.019531 C 114.25 44.320312 183.945312 41.363281 184.828125 42.585938 C 187.332031 46.054688 189.261719 98.121094 187.527344 99.664062 C 194.703125 101.417969 232.261719 112.4375 232.261719 115.28125 Z M 232.261719 115.28125 C 232.261719 119.734375 162.523438 136.515625 159.058594 136.515625 C 153.105469 136.515625 124.421875 118.753906 122.109375 117.210938 C 119.796875 115.667969 118.109375 112.773438 120.039062 111.851562 C 119.324219 111.882812 118.800781 111.871094 118.492188 111.8125 C 113.480469 110.847656 109.625 49.71875 111.9375 47.019531 C 114.25 44.320312 183.945312 41.363281 184.828125 42.585938 C 187.332031 46.054688 189.261719 98.121094 187.527344 99.664062 C 194.703125 101.417969 232.261719 112.4375 232.261719 115.28125 Z M 232.261719 115.28125 " fill-opacity="1" fill-rule="nonzero"/><g mask="url(#f26a135346)"><g transform="matrix(1, 0, 0, 1, 116, 46)"><g clip-path="url(#910d7316f8)"><g clip-path="url(#6e43afea3d)"><path fill="#ffffff" d="M 67.164062 49.523438 C 65.667969 50.828125 11.902344 60.609375 7.578125 59.796875 C 3.25 58.980469 -0.0820312 7.289062 1.917969 5.003906 C 3.914062 2.722656 64.074219 0.222656 64.835938 1.253906 C 67 4.1875 68.664062 48.21875 67.164062 49.523438 Z M 15.492188 68.171875 C 15.492188 68.171875 31.8125 76.09375 34.070312 76.269531 C 36.332031 76.441406 90.160156 64.710938 90.507812 64.015625 C 90.855469 63.320312 71.070312 57.527344 70.042969 57.714844 C 33.449219 64.417969 15.492188 68.171875 15.492188 68.171875 Z M 15.492188 68.171875 " fill-opacity="1" fill-rule="nonzero"/></g></g></g></g><path fill="#000000" d="M 120.847656 112.488281 C 120.445312 112.53125 120.109375 112.121094 120.109375 111.75 C 120.109375 111.324219 120.449219 111.050781 120.847656 111.011719 C 121.824219 110.914062 122.792969 110.675781 123.769531 110.546875 C 124.929688 110.394531 126.078125 110.257812 127.226562 110.03125 C 128.417969 109.800781 129.617188 109.628906 130.8125 109.433594 C 132.011719 109.242188 133.199219 108.976562 134.402344 108.800781 C 136.707031 108.464844 138.988281 108.042969 141.277344 107.613281 C 143.535156 107.191406 145.820312 106.929688 148.074219 106.496094 C 150.328125 106.066406 152.582031 105.613281 154.835938 105.191406 C 157.125 104.765625 159.4375 104.476562 161.71875 104 C 166.128906 103.070312 170.59375 102.453125 174.996094 101.480469 C 176.085938 101.238281 177.1875 101.070312 178.289062 100.878906 C 179.332031 100.695312 180.351562 100.441406 181.386719 100.238281 C 182.382812 100.042969 183.375 99.847656 184.367188 99.660156 C 185.128906 99.519531 185.90625 99.441406 186.664062 99.269531 C 187.589844 99.058594 187.984375 100.484375 187.054688 100.695312 C 186.1875 100.894531 185.289062 100.980469 184.414062 101.152344 C 183.277344 101.375 182.136719 101.578125 181.003906 101.824219 C 179.796875 102.085938 178.589844 102.316406 177.367188 102.519531 C 176.171875 102.71875 174.996094 103.007812 173.804688 103.238281 C 172.722656 103.445312 171.652344 103.703125 170.5625 103.871094 C 169.410156 104.046875 168.265625 104.234375 167.125 104.46875 C 165.984375 104.707031 164.835938 104.90625 163.6875 105.113281 C 162.574219 105.316406 161.46875 105.578125 160.351562 105.769531 C 158.054688 106.164062 155.757812 106.515625 153.476562 106.96875 C 151.203125 107.417969 148.914062 107.925781 146.613281 108.238281 C 144.308594 108.554688 142.03125 108.992188 139.742188 109.40625 C 138.597656 109.613281 137.453125 109.855469 136.300781 110.023438 C 135.171875 110.183594 134.050781 110.34375 132.933594 110.554688 C 131.886719 110.75 130.839844 110.917969 129.785156 111.078125 C 128.6875 111.246094 127.601562 111.484375 126.503906 111.667969 C 125.511719 111.832031 124.507812 111.914062 123.515625 112.066406 C 122.625 112.203125 121.742188 112.398438 120.847656 112.488281 Z M 120.847656 112.488281 C 120.445312 112.53125 120.109375 112.121094 120.109375 111.75 C 120.109375 111.324219 120.449219 111.050781 120.847656 111.011719 C 121.824219 110.914062 122.792969 110.675781 123.769531 110.546875 C 124.929688 110.394531 126.078125 110.257812 127.226562 110.03125 C 128.417969 109.800781 129.617188 109.628906 130.8125 109.433594 C 132.011719 109.242188 133.199219 108.976562 134.402344 108.800781 C 136.707031 108.464844 138.988281 108.042969 141.277344 107.613281 C 143.535156 107.191406 145.820312 106.929688 148.074219 106.496094 C 150.328125 106.066406 152.582031 105.613281 154.835938 105.191406 C 157.125 104.765625 159.4375 104.476562 161.71875 104 C 166.128906 103.070312 170.59375 102.453125 174.996094 101.480469 C 176.085938 101.238281 177.1875 101.070312 178.289062 100.878906 C 179.332031 100.695312 180.351562 100.441406 181.386719 100.238281 C 182.382812 100.042969 183.375 99.847656 184.367188 99.660156 C 185.128906 99.519531 185.90625 99.441406 186.664062 99.269531 C 187.589844 99.058594 187.984375 100.484375 187.054688 100.695312 C 186.1875 100.894531 185.289062 100.980469 184.414062 101.152344 C 183.277344 101.375 182.136719 101.578125 181.003906 101.824219 C 179.796875 102.085938 178.589844 102.316406 177.367188 102.519531 C 176.171875 102.71875 174.996094 103.007812 173.804688 103.238281 C 172.722656 103.445312 171.652344 103.703125 170.5625 103.871094 C 169.410156 104.046875 168.265625 104.234375 167.125 104.46875 C 165.984375 104.707031 164.835938 104.90625 163.6875 105.113281 C 162.574219 105.316406 161.46875 105.578125 160.351562 105.769531 C 158.054688 106.164062 155.757812 106.515625 153.476562 106.96875 C 151.203125 107.417969 148.914062 107.925781 146.613281 108.238281 C 144.308594 108.554688 142.03125 108.992188 139.742188 109.40625 C 138.597656 109.613281 137.453125 109.855469 136.300781 110.023438 C 135.171875 110.183594 134.050781 110.34375 132.933594 110.554688 C 131.886719 110.75 130.839844 110.917969 129.785156 111.078125 C 128.6875 111.246094 127.601562 111.484375 126.503906 111.667969 C 125.511719 111.832031 124.507812 111.914062 123.515625 112.066406 C 122.625 112.203125 121.742188 112.398438 120.847656 112.488281 Z M 120.847656 112.488281 " fill-opacity="1" fill-rule="nonzero"/><path fill="#ffffff" d="M 124.296875 106.621094 C 123.835938 106.621094 123.589844 106.589844 123.433594 106.5625 C 122.652344 106.414062 122.03125 105.601562 121.425781 103.925781 C 121.222656 103.367188 121.070312 102.71875 120.910156 102.03125 C 120.855469 101.789062 120.796875 101.539062 120.734375 101.28125 C 120.664062 101 120.585938 100.710938 120.503906 100.414062 C 120.351562 99.867188 120.191406 99.296875 120.070312 98.675781 L 120.0625 98.617188 C 119.902344 97.796875 119.734375 96.949219 119.585938 96.039062 C 119.507812 95.5625 119.453125 95.066406 119.402344 94.585938 C 119.359375 94.195312 119.316406 93.792969 119.257812 93.390625 C 119.203125 93.015625 119.136719 92.636719 119.066406 92.253906 C 118.976562 91.773438 118.886719 91.273438 118.820312 90.757812 C 118.75 90.207031 118.6875 89.644531 118.625 89.074219 C 118.589844 88.757812 118.550781 88.433594 118.515625 88.109375 C 118.457031 87.613281 118.410156 87.109375 118.363281 86.601562 C 118.328125 86.222656 118.296875 85.839844 118.253906 85.457031 C 118.203125 84.976562 118.167969 84.488281 118.136719 84.015625 C 118.105469 83.613281 118.078125 83.207031 118.039062 82.804688 C 118.007812 82.476562 117.976562 82.148438 117.941406 81.824219 C 117.886719 81.269531 117.828125 80.710938 117.78125 80.152344 C 117.703125 79.269531 117.628906 78.386719 117.558594 77.503906 C 117.527344 77.097656 117.484375 76.695312 117.445312 76.292969 C 117.394531 75.8125 117.347656 75.332031 117.3125 74.851562 C 117.277344 74.347656 117.25 73.84375 117.222656 73.34375 C 117.203125 72.960938 117.183594 72.578125 117.160156 72.195312 C 117.132812 71.78125 117.097656 71.371094 117.058594 70.964844 C 117.015625 70.488281 116.972656 70.015625 116.949219 69.542969 C 116.917969 69.003906 116.898438 68.472656 116.875 67.945312 C 116.863281 67.589844 116.847656 67.234375 116.832031 66.886719 C 116.8125 66.511719 116.792969 66.144531 116.773438 65.777344 C 116.742188 65.253906 116.714844 64.734375 116.695312 64.226562 C 116.675781 63.710938 116.679688 63.207031 116.683594 62.71875 C 116.6875 62.328125 116.691406 61.941406 116.679688 61.566406 C 116.671875 61.148438 116.648438 60.738281 116.628906 60.339844 C 116.601562 59.84375 116.574219 59.375 116.570312 58.902344 C 116.566406 58.3125 116.589844 57.761719 116.613281 57.230469 C 116.628906 56.882812 116.644531 56.550781 116.648438 56.230469 C 116.65625 55.8125 116.648438 55.417969 116.640625 55.042969 C 116.632812 54.507812 116.621094 54.003906 116.652344 53.539062 C 116.816406 51.152344 117.230469 50.679688 117.367188 50.523438 C 117.511719 50.355469 117.894531 49.917969 120.285156 49.5 C 120.84375 49.40625 121.488281 49.324219 122.171875 49.242188 C 122.417969 49.214844 122.667969 49.183594 122.929688 49.148438 C 123.164062 49.121094 123.402344 49.089844 123.644531 49.058594 C 124.253906 48.976562 124.882812 48.894531 125.558594 48.824219 L 125.914062 48.785156 C 126.636719 48.710938 127.394531 48.628906 128.1875 48.558594 C 128.65625 48.515625 129.136719 48.480469 129.628906 48.449219 C 130.019531 48.421875 130.417969 48.394531 130.820312 48.359375 C 131.207031 48.328125 131.59375 48.289062 131.988281 48.246094 C 132.46875 48.195312 132.953125 48.144531 133.449219 48.109375 C 133.90625 48.074219 134.367188 48.066406 134.8125 48.058594 C 135.230469 48.050781 135.664062 48.042969 136.085938 48.015625 C 136.484375 47.988281 136.882812 47.953125 137.28125 47.917969 C 137.757812 47.878906 138.234375 47.835938 138.71875 47.804688 C 139.113281 47.78125 139.507812 47.75 139.90625 47.71875 C 140.386719 47.683594 140.867188 47.644531 141.347656 47.617188 C 141.761719 47.589844 142.171875 47.554688 142.585938 47.523438 C 143.050781 47.484375 143.511719 47.445312 143.980469 47.417969 C 144.441406 47.390625 144.902344 47.386719 145.351562 47.386719 C 145.769531 47.382812 146.199219 47.378906 146.617188 47.355469 C 147.035156 47.335938 147.453125 47.296875 147.871094 47.257812 C 148.320312 47.214844 148.78125 47.171875 149.246094 47.148438 C 149.710938 47.125 150.175781 47.125 150.621094 47.125 C 151.058594 47.125 151.46875 47.125 151.882812 47.105469 C 152.300781 47.085938 152.730469 47.046875 153.148438 47.007812 C 153.589844 46.964844 154.050781 46.921875 154.507812 46.902344 C 154.929688 46.882812 155.347656 46.855469 155.765625 46.832031 C 156.226562 46.804688 156.683594 46.777344 157.140625 46.757812 C 157.617188 46.734375 158.085938 46.746094 158.535156 46.757812 C 158.96875 46.769531 159.375 46.777344 159.777344 46.761719 C 160.203125 46.746094 160.625 46.722656 161.042969 46.699219 C 161.503906 46.671875 161.957031 46.648438 162.410156 46.632812 C 162.84375 46.617188 163.273438 46.585938 163.695312 46.554688 C 164.136719 46.523438 164.59375 46.488281 165.042969 46.476562 C 165.527344 46.460938 166.003906 46.464844 166.464844 46.46875 C 166.875 46.472656 167.28125 46.476562 167.679688 46.464844 C 168.191406 46.449219 168.695312 46.445312 169.1875 46.4375 C 169.570312 46.433594 169.945312 46.429688 170.316406 46.417969 L 171.238281 46.398438 C 171.828125 46.382812 172.402344 46.367188 172.953125 46.359375 C 173.402344 46.351562 173.847656 46.316406 174.277344 46.285156 C 174.734375 46.25 175.164062 46.214844 175.589844 46.214844 C 176.234375 46.210938 176.828125 46.238281 177.351562 46.257812 C 177.667969 46.273438 177.964844 46.285156 178.242188 46.289062 C 180.898438 46.339844 181.1875 46.417969 181.460938 46.792969 C 181.792969 47.242188 181.980469 48.058594 182.273438 49.707031 C 182.316406 49.945312 182.363281 50.199219 182.417969 50.464844 C 182.53125 51.039062 182.660156 51.6875 182.75 52.402344 C 182.851562 53.203125 182.949219 54.109375 183.050781 55.101562 C 183.109375 55.707031 183.164062 56.339844 183.214844 56.992188 L 183.285156 57.796875 C 183.324219 58.269531 183.339844 58.753906 183.355469 59.226562 C 183.371094 59.644531 183.386719 60.074219 183.417969 60.503906 C 183.445312 60.902344 183.488281 61.304688 183.53125 61.710938 C 183.582031 62.191406 183.636719 62.691406 183.667969 63.195312 C 183.703125 63.714844 183.726562 64.242188 183.753906 64.769531 C 183.773438 65.144531 183.792969 65.519531 183.8125 65.894531 C 183.839844 66.375 183.855469 66.859375 183.871094 67.34375 C 183.882812 67.757812 183.894531 68.175781 183.917969 68.597656 C 183.945312 69.183594 183.972656 69.777344 183.996094 70.371094 L 184.066406 71.941406 C 184.097656 72.625 184.128906 73.3125 184.15625 73.992188 C 184.171875 74.414062 184.210938 74.851562 184.25 75.273438 C 184.289062 75.734375 184.332031 76.210938 184.347656 76.6875 C 184.363281 77.183594 184.363281 77.679688 184.363281 78.15625 C 184.359375 78.570312 184.359375 78.984375 184.371094 79.390625 C 184.378906 79.773438 184.390625 80.152344 184.40625 80.53125 C 184.421875 81.058594 184.441406 81.578125 184.449219 82.09375 C 184.460938 82.632812 184.457031 83.167969 184.457031 83.691406 C 184.453125 84.0625 184.453125 84.433594 184.457031 84.796875 C 184.460938 85.234375 184.480469 85.660156 184.496094 86.078125 C 184.515625 86.570312 184.535156 87.035156 184.535156 87.5 C 184.53125 88.203125 184.515625 88.871094 184.5 89.503906 L 184.480469 90.210938 C 184.460938 91.109375 184.410156 91.910156 184.367188 92.613281 L 184.347656 92.933594 C 184.203125 95.28125 184.023438 95.8125 183.679688 96.113281 C 183.511719 96.253906 183.285156 96.453125 180.84375 97.054688 C 180.082031 97.242188 179.152344 97.449219 178.261719 97.644531 L 177.503906 97.8125 C 176.929688 97.941406 176.324219 98.082031 175.683594 98.214844 C 174.867188 98.386719 174.003906 98.5625 173.097656 98.746094 C 172.652344 98.835938 172.195312 98.921875 171.730469 99.003906 C 171.328125 99.078125 170.921875 99.15625 170.507812 99.234375 C 170.070312 99.324219 169.617188 99.386719 169.179688 99.453125 C 168.761719 99.511719 168.324219 99.574219 167.902344 99.65625 C 167.511719 99.734375 167.117188 99.832031 166.703125 99.9375 C 166.261719 100.046875 165.804688 100.160156 165.332031 100.25 C 164.882812 100.335938 164.425781 100.414062 163.964844 100.496094 C 163.558594 100.566406 163.148438 100.636719 162.734375 100.714844 C 162.210938 100.8125 161.679688 100.90625 161.144531 101.003906 L 160.140625 101.1875 C 159.691406 101.269531 159.234375 101.332031 158.792969 101.394531 C 158.378906 101.453125 157.949219 101.511719 157.535156 101.585938 C 157.125 101.660156 156.714844 101.738281 156.304688 101.820312 C 155.855469 101.90625 155.398438 101.996094 154.945312 102.078125 C 154.488281 102.160156 154.03125 102.230469 153.574219 102.304688 C 153.164062 102.371094 152.753906 102.433594 152.34375 102.507812 C 151.941406 102.578125 151.539062 102.675781 151.117188 102.777344 C 150.679688 102.886719 150.230469 102.996094 149.769531 103.074219 C 149.300781 103.15625 148.839844 103.203125 148.390625 103.25 C 147.957031 103.292969 147.550781 103.335938 147.152344 103.40625 C 146.742188 103.472656 146.316406 103.570312 145.910156 103.664062 C 145.476562 103.761719 145.023438 103.863281 144.570312 103.9375 C 144.097656 104.015625 143.628906 104.0625 143.175781 104.109375 C 142.75 104.152344 142.347656 104.191406 141.953125 104.253906 C 141.542969 104.320312 141.140625 104.390625 140.738281 104.460938 C 140.273438 104.539062 139.8125 104.621094 139.351562 104.691406 C 138.847656 104.769531 138.34375 104.84375 137.851562 104.914062 C 137.480469 104.964844 137.109375 105.019531 136.746094 105.074219 C 136.3125 105.140625 135.894531 105.21875 135.480469 105.296875 C 135.042969 105.378906 134.589844 105.464844 134.144531 105.527344 C 133.597656 105.605469 133.058594 105.671875 132.539062 105.734375 C 132.195312 105.777344 131.855469 105.820312 131.527344 105.863281 C 131.222656 105.90625 130.925781 105.945312 130.632812 105.984375 C 130.027344 106.070312 129.449219 106.148438 128.90625 106.214844 C 128.589844 106.25 128.285156 106.289062 127.992188 106.324219 C 127.375 106.402344 126.789062 106.472656 126.265625 106.519531 C 125.351562 106.59375 124.730469 106.621094 124.296875 106.621094 Z M 118.46875 51.515625 C 118.40625 51.648438 118.222656 52.261719 118.128906 53.636719 C 118.101562 54.039062 118.109375 54.511719 118.117188 55.015625 C 118.125 55.40625 118.132812 55.820312 118.125 56.253906 C 118.121094 56.589844 118.105469 56.933594 118.089844 57.292969 C 118.066406 57.808594 118.042969 58.339844 118.050781 58.890625 C 118.054688 59.328125 118.078125 59.78125 118.101562 60.261719 C 118.125 60.675781 118.148438 61.097656 118.160156 61.527344 C 118.167969 61.921875 118.164062 62.324219 118.160156 62.730469 C 118.15625 63.203125 118.152344 63.691406 118.171875 64.171875 C 118.191406 64.671875 118.21875 65.179688 118.25 65.695312 C 118.269531 66.0625 118.289062 66.4375 118.308594 66.816406 C 118.324219 67.167969 118.339844 67.527344 118.351562 67.886719 C 118.375 68.40625 118.394531 68.929688 118.425781 69.460938 C 118.449219 69.914062 118.492188 70.371094 118.53125 70.832031 C 118.570312 71.25 118.609375 71.675781 118.636719 72.101562 C 118.660156 72.488281 118.679688 72.878906 118.699219 73.269531 C 118.726562 73.757812 118.75 74.25 118.785156 74.746094 C 118.820312 75.210938 118.867188 75.675781 118.914062 76.144531 C 118.957031 76.554688 119 76.96875 119.03125 77.382812 C 119.101562 78.265625 119.175781 79.144531 119.253906 80.023438 C 119.300781 80.574219 119.355469 81.125 119.414062 81.671875 C 119.445312 82.003906 119.480469 82.332031 119.511719 82.660156 C 119.550781 83.078125 119.582031 83.496094 119.609375 83.910156 C 119.644531 84.394531 119.675781 84.847656 119.726562 85.300781 C 119.765625 85.691406 119.800781 86.082031 119.835938 86.46875 C 119.882812 86.960938 119.925781 87.453125 119.984375 87.9375 C 120.019531 88.265625 120.058594 88.589844 120.09375 88.914062 C 120.15625 89.472656 120.214844 90.023438 120.285156 90.566406 C 120.347656 91.042969 120.4375 91.523438 120.519531 91.988281 C 120.59375 92.390625 120.664062 92.785156 120.722656 93.179688 C 120.785156 93.601562 120.828125 94.019531 120.871094 94.429688 C 120.925781 94.910156 120.972656 95.363281 121.046875 95.800781 C 121.191406 96.6875 121.355469 97.527344 121.511719 98.335938 L 121.523438 98.390625 C 121.632812 98.957031 121.78125 99.496094 121.925781 100.019531 C 122.015625 100.332031 122.097656 100.636719 122.167969 100.929688 C 122.234375 101.195312 122.292969 101.449219 122.351562 101.695312 C 122.507812 102.367188 122.640625 102.945312 122.8125 103.421875 C 123.355469 104.917969 123.730469 105.113281 123.734375 105.117188 C 123.898438 105.144531 124.472656 105.183594 126.144531 105.042969 C 126.636719 105.003906 127.207031 104.933594 127.808594 104.859375 C 128.105469 104.820312 128.414062 104.78125 128.734375 104.746094 C 129.269531 104.683594 129.835938 104.605469 130.429688 104.523438 C 130.726562 104.480469 131.023438 104.441406 131.332031 104.398438 C 131.667969 104.355469 132.011719 104.3125 132.359375 104.269531 C 132.871094 104.207031 133.398438 104.140625 133.9375 104.0625 C 134.347656 104.003906 134.765625 103.925781 135.207031 103.84375 C 135.636719 103.761719 136.078125 103.679688 136.523438 103.613281 C 136.890625 103.554688 137.265625 103.503906 137.644531 103.449219 C 138.128906 103.378906 138.625 103.308594 139.125 103.230469 C 139.574219 103.160156 140.027344 103.082031 140.488281 103.003906 C 140.894531 102.933594 141.304688 102.863281 141.71875 102.796875 C 142.15625 102.722656 142.601562 102.679688 143.03125 102.636719 C 143.460938 102.59375 143.90625 102.550781 144.332031 102.480469 C 144.742188 102.410156 145.148438 102.320312 145.582031 102.222656 C 146.011719 102.125 146.453125 102.023438 146.90625 101.945312 C 147.351562 101.871094 147.800781 101.824219 148.234375 101.78125 C 148.679688 101.734375 149.101562 101.6875 149.519531 101.617188 C 149.929688 101.546875 150.335938 101.449219 150.765625 101.34375 C 151.195312 101.238281 151.636719 101.128906 152.089844 101.050781 C 152.507812 100.976562 152.925781 100.910156 153.339844 100.84375 C 153.789062 100.773438 154.238281 100.703125 154.6875 100.621094 C 155.132812 100.542969 155.578125 100.457031 156.023438 100.367188 C 156.441406 100.289062 156.855469 100.207031 157.273438 100.132812 C 157.714844 100.050781 158.160156 99.988281 158.589844 99.929688 C 159.035156 99.867188 159.457031 99.808594 159.875 99.734375 L 160.882812 99.550781 C 161.414062 99.453125 161.941406 99.355469 162.464844 99.257812 C 162.882812 99.183594 163.300781 99.109375 163.714844 99.039062 C 164.167969 98.960938 164.613281 98.882812 165.058594 98.796875 C 165.484375 98.71875 165.921875 98.609375 166.34375 98.503906 C 166.757812 98.398438 167.191406 98.289062 167.621094 98.207031 C 168.078125 98.117188 168.53125 98.050781 168.96875 97.988281 C 169.40625 97.925781 169.820312 97.863281 170.222656 97.785156 C 170.640625 97.703125 171.054688 97.625 171.464844 97.550781 C 171.921875 97.46875 172.367188 97.386719 172.804688 97.296875 C 173.707031 97.113281 174.570312 96.9375 175.378906 96.765625 C 176.011719 96.632812 176.613281 96.5 177.183594 96.371094 L 177.941406 96.203125 C 178.824219 96.007812 179.746094 95.800781 180.492188 95.617188 C 181.867188 95.28125 182.421875 95.097656 182.636719 95.011719 C 182.695312 94.789062 182.785156 94.234375 182.871094 92.839844 L 182.890625 92.519531 C 182.9375 91.828125 182.984375 91.046875 183.003906 90.175781 L 183.023438 89.464844 C 183.039062 88.84375 183.054688 88.1875 183.058594 87.496094 C 183.058594 87.0625 183.039062 86.617188 183.019531 86.140625 C 183 85.707031 182.984375 85.261719 182.976562 84.808594 C 182.976562 84.441406 182.976562 84.066406 182.976562 83.683594 C 182.980469 83.171875 182.980469 82.648438 182.972656 82.121094 C 182.960938 81.613281 182.945312 81.101562 182.925781 80.578125 C 182.914062 80.199219 182.902344 79.816406 182.890625 79.429688 C 182.882812 79.007812 182.882812 78.582031 182.882812 78.152344 C 182.886719 77.6875 182.886719 77.207031 182.871094 76.738281 C 182.855469 76.300781 182.816406 75.867188 182.777344 75.402344 C 182.738281 74.964844 182.695312 74.511719 182.679688 74.050781 C 182.652344 73.371094 182.621094 72.691406 182.589844 72.007812 L 182.519531 70.433594 C 182.496094 69.84375 182.46875 69.257812 182.441406 68.671875 C 182.417969 68.242188 182.40625 67.8125 182.394531 67.386719 C 182.378906 66.914062 182.363281 66.445312 182.339844 65.980469 C 182.316406 65.601562 182.296875 65.222656 182.277344 64.84375 C 182.253906 64.324219 182.226562 63.804688 182.191406 63.292969 C 182.160156 62.816406 182.109375 62.332031 182.0625 61.863281 C 182.019531 61.441406 181.972656 61.023438 181.945312 60.609375 C 181.910156 60.15625 181.894531 59.707031 181.878906 59.277344 C 181.863281 58.804688 181.847656 58.359375 181.808594 57.925781 L 181.742188 57.113281 C 181.691406 56.46875 181.640625 55.84375 181.578125 55.246094 C 181.480469 54.269531 181.382812 53.375 181.28125 52.582031 C 181.199219 51.925781 181.078125 51.300781 180.96875 50.753906 C 180.914062 50.476562 180.859375 50.214844 180.816406 49.964844 C 180.726562 49.445312 180.53125 48.339844 180.359375 47.855469 C 180.070312 47.824219 179.460938 47.792969 178.214844 47.769531 C 177.925781 47.761719 177.617188 47.75 177.289062 47.734375 C 176.78125 47.714844 176.207031 47.6875 175.597656 47.691406 C 175.222656 47.695312 174.820312 47.726562 174.390625 47.757812 C 173.9375 47.792969 173.472656 47.828125 172.976562 47.835938 C 172.429688 47.847656 171.863281 47.859375 171.273438 47.875 L 170.347656 47.898438 C 169.976562 47.90625 169.59375 47.910156 169.207031 47.914062 C 168.722656 47.921875 168.226562 47.929688 167.722656 47.941406 C 167.304688 47.953125 166.878906 47.949219 166.449219 47.945312 C 166.003906 47.941406 165.546875 47.9375 165.089844 47.953125 C 164.671875 47.964844 164.25 47.996094 163.804688 48.027344 C 163.359375 48.0625 162.914062 48.09375 162.464844 48.109375 C 162.019531 48.125 161.574219 48.148438 161.125 48.175781 C 160.699219 48.199219 160.269531 48.222656 159.835938 48.238281 C 159.386719 48.257812 158.9375 48.246094 158.5 48.234375 C 158.054688 48.226562 157.628906 48.214844 157.203125 48.234375 C 156.757812 48.253906 156.308594 48.28125 155.855469 48.308594 C 155.433594 48.332031 155.003906 48.359375 154.578125 48.378906 C 154.152344 48.398438 153.730469 48.4375 153.285156 48.480469 C 152.851562 48.519531 152.402344 48.5625 151.953125 48.582031 C 151.503906 48.605469 151.054688 48.605469 150.621094 48.605469 C 150.171875 48.605469 149.746094 48.605469 149.320312 48.625 C 148.886719 48.648438 148.441406 48.6875 148.007812 48.730469 C 147.570312 48.769531 147.132812 48.808594 146.695312 48.832031 C 146.246094 48.859375 145.796875 48.859375 145.359375 48.863281 C 144.910156 48.867188 144.488281 48.871094 144.0625 48.894531 C 143.609375 48.921875 143.160156 48.957031 142.710938 48.996094 C 142.285156 49.03125 141.863281 49.066406 141.4375 49.089844 C 140.964844 49.121094 140.492188 49.15625 140.019531 49.191406 C 139.617188 49.222656 139.214844 49.253906 138.816406 49.28125 C 138.34375 49.3125 137.875 49.351562 137.410156 49.390625 C 137 49.425781 136.59375 49.460938 136.191406 49.488281 C 135.730469 49.523438 135.277344 49.527344 134.839844 49.535156 C 134.394531 49.542969 133.972656 49.550781 133.5625 49.582031 C 133.082031 49.617188 132.609375 49.667969 132.144531 49.714844 C 131.738281 49.757812 131.335938 49.800781 130.941406 49.832031 C 130.53125 49.867188 130.128906 49.894531 129.730469 49.921875 C 129.25 49.953125 128.78125 49.988281 128.324219 50.027344 C 127.539062 50.101562 126.785156 50.179688 126.070312 50.253906 L 125.714844 50.292969 C 125.054688 50.363281 124.4375 50.445312 123.839844 50.523438 C 123.589844 50.554688 123.351562 50.585938 123.117188 50.617188 C 122.851562 50.648438 122.597656 50.679688 122.351562 50.710938 C 121.660156 50.792969 121.0625 50.867188 120.539062 50.957031 C 119.058594 51.214844 118.578125 51.453125 118.46875 51.515625 Z M 182.601562 95.128906 Z M 180.558594 47.890625 Z M 180.867188 47.230469 L 180.273438 47.667969 Z M 189.460938 115.78125 C 189.460938 115.78125 177.382812 118.5625 173.863281 119.210938 C 173.292969 119.320312 186.132812 124.917969 186.652344 124.917969 C 187.175781 124.917969 202.597656 120.910156 202.726562 120.519531 C 202.859375 120.128906 189.460938 115.78125 189.460938 115.78125 Z M 189.460938 115.78125 " fill-opacity="1" fill-rule="nonzero"/></svg>