<svg xmlns="http://www.w3.org/2000/svg" xmlns:xlink="http://www.w3.org/1999/xlink" width="500" zoomAndPan="magnify" viewBox="0 0 375 374.999991" height="500" preserveAspectRatio="xMidYMid meet" version="1.0"><defs><filter x="0%" y="0%" width="100%" height="100%" id="50cf52b432"><feColorMatrix values="0 0 0 0 1 0 0 0 0 1 0 0 0 0 1 0 0 0 1 0" color-interpolation-filters="sRGB"/></filter><g/><clipPath id="f993eaae64"><path d="M 127 100 L 223 100 L 223 195 L 127 195 Z M 127 100 " clip-rule="nonzero"/></clipPath><clipPath id="8bcabaf704"><path d="M 219.929688 97.882812 L 227.304688 239.441406 L 87.246094 246.742188 L 79.867188 105.183594 Z M 219.929688 97.882812 " clip-rule="nonzero"/></clipPath><clipPath id="eb37a8b0a3"><path d="M 219.929688 97.882812 L 227.304688 239.441406 L 87.246094 246.742188 L 79.867188 105.183594 Z M 219.929688 97.882812 " clip-rule="nonzero"/></clipPath><clipPath id="c561f796ab"><path d="M 124 179 L 147 179 L 147 201 L 124 201 Z M 124 179 " clip-rule="nonzero"/></clipPath><clipPath id="eae22545a7"><path d="M 219.929688 97.882812 L 227.304688 239.441406 L 87.246094 246.742188 L 79.867188 105.183594 Z M 219.929688 97.882812 " clip-rule="nonzero"/></clipPath><clipPath id="b631bc0e48"><path d="M 219.929688 97.882812 L 227.304688 239.441406 L 87.246094 246.742188 L 79.867188 105.183594 Z M 219.929688 97.882812 " clip-rule="nonzero"/></clipPath><clipPath id="62113ab526"><path d="M 86 197 L 133 197 L 133 246 L 86 246 Z M 86 197 " clip-rule="nonzero"/></clipPath><clipPath id="c6a89adf36"><path d="M 219.929688 97.882812 L 227.304688 239.441406 L 87.246094 246.742188 L 79.867188 105.183594 Z M 219.929688 97.882812 " clip-rule="nonzero"/></clipPath><clipPath id="db782b4e90"><path d="M 219.929688 97.882812 L 227.304688 239.441406 L 87.246094 246.742188 L 79.867188 105.183594 Z M 219.929688 97.882812 " clip-rule="nonzero"/></clipPath><clipPath id="2b15b85c88"><path d="M 141 114 L 191 114 L 191 162 L 141 162 Z M 141 114 " clip-rule="nonzero"/></clipPath><clipPath id="77157aea5a"><path d="M 219.929688 97.882812 L 227.304688 239.441406 L 87.246094 246.742188 L 79.867188 105.183594 Z M 219.929688 97.882812 " clip-rule="nonzero"/></clipPath><clipPath id="caf9bd6b11"><path d="M 219.929688 97.882812 L 227.304688 239.441406 L 87.246094 246.742188 L 79.867188 105.183594 Z M 219.929688 97.882812 " clip-rule="nonzero"/></clipPath><clipPath id="2c2a105d78"><path d="M 129 105 L 218 105 L 218 194 L 129 194 Z M 129 105 " clip-rule="nonzero"/></clipPath><clipPath id="a3abbcb060"><path d="M 215.132812 103.246094 L 221.964844 234.316406 L 91.640625 241.109375 L 84.8125 110.039062 Z M 215.132812 103.246094 " clip-rule="nonzero"/></clipPath><clipPath id="48152653dd"><path d="M 215.132812 103.246094 L 221.964844 234.316406 L 91.640625 241.109375 L 84.8125 110.039062 Z M 215.132812 103.246094 " clip-rule="nonzero"/></clipPath><clipPath id="0ed27c6228"><path d="M 126 179 L 147 179 L 147 199 L 126 199 Z M 126 179 " clip-rule="nonzero"/></clipPath><clipPath id="77f1ca4ca0"><path d="M 215.132812 103.246094 L 221.964844 234.316406 L 91.640625 241.109375 L 84.8125 110.039062 Z M 215.132812 103.246094 " clip-rule="nonzero"/></clipPath><clipPath id="8abc10e9cd"><path d="M 215.132812 103.246094 L 221.964844 234.316406 L 91.640625 241.109375 L 84.8125 110.039062 Z M 215.132812 103.246094 " clip-rule="nonzero"/></clipPath><clipPath id="6258a169d8"><path d="M 91 195 L 135 195 L 135 241 L 91 241 Z M 91 195 " clip-rule="nonzero"/></clipPath><clipPath id="938da8f86d"><path d="M 215.132812 103.246094 L 221.964844 234.316406 L 91.640625 241.109375 L 84.8125 110.039062 Z M 215.132812 103.246094 " clip-rule="nonzero"/></clipPath><clipPath id="58039ae7c8"><path d="M 215.132812 103.246094 L 221.964844 234.316406 L 91.640625 241.109375 L 84.8125 110.039062 Z M 215.132812 103.246094 " clip-rule="nonzero"/></clipPath><clipPath id="b88dc9ee21"><path d="M 142 118 L 189 118 L 189 163 L 142 163 Z M 142 118 " clip-rule="nonzero"/></clipPath><clipPath id="47670094a1"><path d="M 215.132812 103.246094 L 221.964844 234.316406 L 91.640625 241.109375 L 84.8125 110.039062 Z M 215.132812 103.246094 " clip-rule="nonzero"/></clipPath><clipPath id="24b200f10a"><path d="M 215.132812 103.246094 L 221.964844 234.316406 L 91.640625 241.109375 L 84.8125 110.039062 Z M 215.132812 103.246094 " clip-rule="nonzero"/></clipPath><clipPath id="e9ba3db08e"><path d="M 176.816406 132.382812 L 295.316406 132.382812 L 295.316406 226.132812 L 176.816406 226.132812 Z M 176.816406 132.382812 " clip-rule="nonzero"/></clipPath><mask id="d03c2befb7"><g filter="url(#50cf52b432)"><rect x="-37.5" width="450" fill="#000000" y="-37.499999" height="449.999989" fill-opacity="0.4"/></g></mask><clipPath id="ab9197e5f1"><path d="M 0 0.640625 L 82 0.640625 L 82 69.761719 L 0 69.761719 Z M 0 0.640625 " clip-rule="nonzero"/></clipPath><clipPath id="00ab1cb65f"><rect x="0" width="83" y="0" height="70"/></clipPath></defs><rect x="-37.5" width="450" fill="#ffffff" y="-37.499999" height="449.999989" fill-opacity="1"/><rect x="-37.5" width="450" fill="#0cc0df" y="-37.499999" height="449.999989" fill-opacity="1"/><g clip-path="url(#f993eaae64)"><g clip-path="url(#8bcabaf704)"><g clip-path="url(#eb37a8b0a3)"><path fill="#ffffff" d="M 127.945312 150.074219 C 126.589844 124.035156 146.667969 101.746094 172.710938 100.390625 C 198.753906 99.03125 221.039062 119.109375 222.398438 145.152344 C 223.753906 171.195312 203.675781 193.484375 177.632812 194.839844 C 151.589844 196.195312 129.304688 176.113281 127.945312 150.074219 Z M 214.628906 145.558594 C 214.5625 144.265625 214.433594 142.980469 214.238281 141.699219 C 214.046875 140.421875 213.789062 139.152344 213.472656 137.898438 C 213.152344 136.644531 212.773438 135.410156 212.335938 134.191406 C 211.894531 132.976562 211.398438 131.78125 210.839844 130.613281 C 210.285156 129.445312 209.671875 128.308594 209.003906 127.199219 C 208.332031 126.09375 207.613281 125.019531 206.839844 123.984375 C 206.0625 122.945312 205.242188 121.949219 204.371094 120.992188 C 203.496094 120.035156 202.582031 119.125 201.621094 118.257812 C 200.65625 117.394531 199.65625 116.574219 198.613281 115.808594 C 197.574219 115.039062 196.496094 114.324219 195.382812 113.664062 C 194.273438 113 193.128906 112.394531 191.960938 111.847656 C 190.789062 111.296875 189.59375 110.804688 188.371094 110.371094 C 187.152344 109.941406 185.914062 109.570312 184.660156 109.257812 C 183.402344 108.949219 182.132812 108.699219 180.851562 108.511719 C 179.574219 108.328125 178.285156 108.203125 176.992188 108.144531 C 175.699219 108.085938 174.410156 108.089844 173.117188 108.15625 C 171.824219 108.222656 170.539062 108.355469 169.257812 108.546875 C 167.980469 108.742188 166.710938 108.996094 165.457031 109.316406 C 164.203125 109.632812 162.96875 110.011719 161.75 110.453125 C 160.535156 110.890625 159.339844 111.390625 158.171875 111.945312 C 157.003906 112.503906 155.867188 113.117188 154.757812 113.785156 C 153.648438 114.453125 152.578125 115.175781 151.539062 115.949219 C 150.503906 116.722656 149.507812 117.546875 148.550781 118.417969 C 147.59375 119.289062 146.683594 120.207031 145.816406 121.167969 C 144.949219 122.128906 144.132812 123.128906 143.367188 124.171875 C 142.597656 125.214844 141.882812 126.289062 141.222656 127.402344 C 140.558594 128.515625 139.953125 129.65625 139.402344 130.828125 C 138.855469 132 138.363281 133.195312 137.929688 134.414062 C 137.5 135.632812 137.125 136.871094 136.816406 138.128906 C 136.503906 139.382812 136.257812 140.652344 136.070312 141.933594 C 135.886719 143.214844 135.761719 144.5 135.703125 145.792969 C 135.644531 147.085938 135.648438 148.378906 135.714844 149.671875 C 135.78125 150.964844 135.910156 152.25 136.105469 153.527344 C 136.300781 154.808594 136.554688 156.074219 136.875 157.328125 C 137.191406 158.582031 137.570312 159.820312 138.011719 161.035156 C 138.449219 162.253906 138.949219 163.445312 139.503906 164.613281 C 140.0625 165.78125 140.675781 166.921875 141.34375 168.027344 C 142.011719 169.136719 142.734375 170.207031 143.507812 171.246094 C 144.28125 172.28125 145.101562 173.28125 145.976562 174.234375 C 146.847656 175.191406 147.765625 176.101562 148.726562 176.96875 C 149.6875 177.835938 150.6875 178.652344 151.730469 179.421875 C 152.773438 180.1875 153.847656 180.902344 154.960938 181.566406 C 156.070312 182.226562 157.214844 182.832031 158.386719 183.382812 C 159.558594 183.933594 160.753906 184.421875 161.972656 184.855469 C 163.191406 185.289062 164.429688 185.660156 165.6875 185.96875 C 166.941406 186.28125 168.210938 186.53125 169.492188 186.714844 C 170.773438 186.902344 172.058594 187.023438 173.351562 187.085938 C 174.644531 187.144531 175.9375 187.140625 177.230469 187.074219 C 178.519531 187.003906 179.804688 186.871094 181.085938 186.675781 C 182.363281 186.480469 183.628906 186.222656 184.882812 185.90625 C 186.136719 185.585938 187.371094 185.207031 188.585938 184.765625 C 189.804688 184.324219 190.996094 183.828125 192.164062 183.269531 C 193.332031 182.710938 194.46875 182.097656 195.574219 181.429688 C 196.683594 180.761719 197.753906 180.039062 198.789062 179.265625 C 199.828125 178.492188 200.820312 177.667969 201.777344 176.796875 C 202.734375 175.925781 203.644531 175.007812 204.511719 174.046875 C 205.375 173.085938 206.191406 172.085938 206.960938 171.042969 C 207.726562 170.003906 208.441406 168.925781 209.105469 167.816406 C 209.765625 166.703125 210.371094 165.5625 210.921875 164.390625 C 211.472656 163.222656 211.964844 162.027344 212.394531 160.808594 C 212.828125 159.589844 213.199219 158.351562 213.511719 157.09375 C 213.824219 155.839844 214.074219 154.570312 214.261719 153.292969 C 214.445312 152.011719 214.570312 150.726562 214.632812 149.433594 C 214.691406 148.140625 214.691406 146.851562 214.625 145.558594 Z M 214.628906 145.558594 " fill-opacity="1" fill-rule="nonzero"/></g></g></g><g clip-path="url(#c561f796ab)"><g clip-path="url(#eae22545a7)"><g clip-path="url(#b631bc0e48)"><path fill="#ffffff" d="M 124.621094 184.441406 C 124.597656 184.015625 124.636719 183.589844 124.738281 183.171875 C 124.84375 182.753906 125.003906 182.363281 125.222656 181.992188 C 125.445312 181.621094 125.710938 181.292969 126.027344 181.003906 C 126.347656 180.710938 126.699219 180.472656 127.085938 180.289062 C 127.476562 180.101562 127.882812 179.976562 128.304688 179.910156 C 128.730469 179.847656 129.15625 179.84375 129.582031 179.902344 C 130.007812 179.964844 130.414062 180.085938 130.804688 180.265625 C 131.195312 180.449219 131.550781 180.683594 131.871094 180.96875 L 144.617188 192.363281 C 144.847656 192.546875 145.058594 192.753906 145.25 192.980469 C 145.441406 193.207031 145.605469 193.453125 145.746094 193.714844 C 145.886719 193.976562 146 194.246094 146.085938 194.53125 C 146.171875 194.816406 146.226562 195.105469 146.253906 195.402344 C 146.277344 195.699219 146.273438 195.992188 146.238281 196.285156 C 146.203125 196.582031 146.140625 196.871094 146.046875 197.152344 C 145.953125 197.433594 145.832031 197.703125 145.683594 197.960938 C 145.535156 198.214844 145.363281 198.457031 145.167969 198.675781 C 144.96875 198.898438 144.75 199.097656 144.511719 199.273438 C 144.273438 199.453125 144.023438 199.601562 143.753906 199.730469 C 143.484375 199.855469 143.203125 199.949219 142.917969 200.019531 C 142.628906 200.085938 142.335938 200.125 142.039062 200.132812 C 141.742188 200.144531 141.449219 200.121094 141.15625 200.070312 C 140.863281 200.019531 140.578125 199.9375 140.304688 199.828125 C 140.027344 199.71875 139.765625 199.582031 139.519531 199.417969 C 139.269531 199.253906 139.042969 199.070312 138.832031 198.859375 L 126.089844 187.464844 C 125.179688 186.660156 124.6875 185.65625 124.621094 184.441406 Z M 124.621094 184.441406 " fill-opacity="1" fill-rule="nonzero"/></g></g></g><g clip-path="url(#62113ab526)"><g clip-path="url(#c6a89adf36)"><g clip-path="url(#db782b4e90)"><path fill="#ffffff" d="M 86.550781 238.757812 C 86.496094 237.753906 86.640625 236.78125 86.980469 235.835938 C 87.320312 234.890625 87.832031 234.046875 88.515625 233.308594 L 119.621094 199.597656 C 119.953125 199.238281 120.316406 198.914062 120.714844 198.625 C 121.109375 198.335938 121.53125 198.089844 121.976562 197.882812 C 122.421875 197.675781 122.882812 197.515625 123.359375 197.402344 C 123.835938 197.285156 124.320312 197.21875 124.808594 197.199219 C 125.296875 197.179688 125.785156 197.207031 126.269531 197.285156 C 126.753906 197.359375 127.226562 197.484375 127.6875 197.652344 C 128.148438 197.820312 128.585938 198.035156 129.003906 198.289062 C 129.421875 198.546875 129.8125 198.839844 130.171875 199.171875 C 130.535156 199.503906 130.859375 199.867188 131.148438 200.265625 C 131.4375 200.660156 131.683594 201.082031 131.890625 201.527344 C 132.09375 201.972656 132.253906 202.433594 132.371094 202.910156 C 132.484375 203.386719 132.554688 203.871094 132.574219 204.359375 C 132.59375 204.847656 132.5625 205.335938 132.488281 205.820312 C 132.410156 206.304688 132.289062 206.777344 132.121094 207.238281 C 131.949219 207.699219 131.738281 208.136719 131.484375 208.554688 C 131.226562 208.972656 130.933594 209.363281 130.601562 209.722656 L 99.496094 243.433594 C 98.996094 243.972656 98.433594 244.429688 97.800781 244.804688 C 97.167969 245.175781 96.492188 245.449219 95.78125 245.625 C 95.066406 245.800781 94.34375 245.867188 93.609375 245.828125 C 92.875 245.789062 92.164062 245.644531 91.472656 245.394531 C 90.78125 245.144531 90.140625 244.800781 89.550781 244.363281 C 88.960938 243.921875 88.449219 243.410156 88.011719 242.820312 C 87.574219 242.230469 87.230469 241.589844 86.980469 240.898438 C 86.734375 240.207031 86.589844 239.492188 86.550781 238.757812 Z M 86.550781 238.757812 " fill-opacity="1" fill-rule="nonzero"/></g></g></g><g clip-path="url(#2b15b85c88)"><g clip-path="url(#77157aea5a)"><g clip-path="url(#caf9bd6b11)"><path fill="#ffffff" d="M 141.90625 149.269531 C 141.589844 143.1875 142.914062 135.054688 149.085938 126.105469 C 154.5 118.246094 163.257812 114.296875 174.402344 114.679688 C 179.558594 114.878906 184.566406 115.84375 189.425781 117.570312 C 189.714844 117.683594 189.96875 117.847656 190.191406 118.0625 C 190.414062 118.273438 190.585938 118.523438 190.710938 118.804688 C 190.832031 119.085938 190.898438 119.382812 190.90625 119.691406 C 190.914062 120 190.859375 120.296875 190.75 120.585938 C 190.636719 120.871094 190.476562 121.128906 190.265625 121.351562 C 190.050781 121.574219 189.804688 121.75 189.523438 121.875 C 189.242188 122 188.945312 122.066406 188.636719 122.074219 C 188.328125 122.082031 188.03125 122.035156 187.742188 121.925781 C 183.335938 120.382812 178.796875 119.519531 174.128906 119.339844 C 164.578125 119.039062 157.453125 122.207031 152.9375 128.75 C 141.789062 144.910156 148.660156 157.867188 148.730469 158 C 148.886719 158.269531 148.984375 158.5625 149.023438 158.875 C 149.0625 159.183594 149.039062 159.492188 148.957031 159.792969 C 148.871094 160.09375 148.730469 160.371094 148.535156 160.613281 C 148.339844 160.859375 148.105469 161.058594 147.828125 161.210938 C 147.554688 161.359375 147.261719 161.453125 146.949219 161.484375 C 146.636719 161.515625 146.332031 161.488281 146.03125 161.394531 C 145.730469 161.304688 145.460938 161.160156 145.21875 160.957031 C 144.976562 160.757812 144.785156 160.519531 144.640625 160.238281 C 144.449219 159.917969 142.242188 155.761719 141.90625 149.269531 Z M 141.90625 149.269531 " fill-opacity="1" fill-rule="nonzero"/></g></g></g><g fill="#ffffff" fill-opacity="1"><g transform="translate(129.400558, 258.212636)"><g><path d="M 17.59375 -26.78125 C 15.039062 -26.78125 13.066406 -25.820312 11.671875 -23.90625 C 10.273438 -21.988281 9.578125 -19.316406 9.578125 -15.890625 C 9.578125 -8.765625 12.25 -5.203125 17.59375 -5.203125 C 19.84375 -5.203125 22.5625 -5.765625 25.75 -6.890625 L 25.75 -1.203125 C 23.125 -0.109375 20.195312 0.4375 16.96875 0.4375 C 12.3125 0.4375 8.75 -0.96875 6.28125 -3.78125 C 3.820312 -6.601562 2.59375 -10.65625 2.59375 -15.9375 C 2.59375 -19.257812 3.195312 -22.171875 4.40625 -24.671875 C 5.625 -27.171875 7.363281 -29.085938 9.625 -30.421875 C 11.894531 -31.753906 14.550781 -32.421875 17.59375 -32.421875 C 20.695312 -32.421875 23.816406 -31.671875 26.953125 -30.171875 L 24.765625 -24.65625 C 23.566406 -25.226562 22.363281 -25.722656 21.15625 -26.140625 C 19.945312 -26.566406 18.757812 -26.78125 17.59375 -26.78125 Z M 17.59375 -26.78125 "/></g></g><g transform="translate(157.928627, 258.212636)"><g><path d="M 33.03125 -16.015625 C 33.03125 -10.734375 31.71875 -6.671875 29.09375 -3.828125 C 26.46875 -0.984375 22.707031 0.4375 17.8125 0.4375 C 12.914062 0.4375 9.15625 -0.984375 6.53125 -3.828125 C 3.90625 -6.671875 2.59375 -10.75 2.59375 -16.0625 C 2.59375 -21.382812 3.90625 -25.445312 6.53125 -28.25 C 9.164062 -31.050781 12.941406 -32.453125 17.859375 -32.453125 C 22.765625 -32.453125 26.519531 -31.039062 29.125 -28.21875 C 31.726562 -25.394531 33.03125 -21.328125 33.03125 -16.015625 Z M 9.703125 -16.015625 C 9.703125 -12.453125 10.378906 -9.765625 11.734375 -7.953125 C 13.085938 -6.148438 15.113281 -5.25 17.8125 -5.25 C 23.21875 -5.25 25.921875 -8.835938 25.921875 -16.015625 C 25.921875 -23.210938 23.234375 -26.8125 17.859375 -26.8125 C 15.160156 -26.8125 13.125 -25.90625 11.75 -24.09375 C 10.382812 -22.28125 9.703125 -19.585938 9.703125 -16.015625 Z M 9.703125 -16.015625 "/></g></g><g transform="translate(193.561387, 258.212636)"><g><path d="M 30.53125 -16.28125 C 30.53125 -11.019531 29.03125 -6.988281 26.03125 -4.1875 C 23.039062 -1.394531 18.722656 0 13.078125 0 L 4.015625 0 L 4.015625 -31.953125 L 14.0625 -31.953125 C 19.269531 -31.953125 23.316406 -30.570312 26.203125 -27.8125 C 29.085938 -25.0625 30.53125 -21.21875 30.53125 -16.28125 Z M 23.5 -16.109375 C 23.5 -22.972656 20.46875 -26.40625 14.40625 -26.40625 L 10.796875 -26.40625 L 10.796875 -5.59375 L 13.703125 -5.59375 C 20.234375 -5.59375 23.5 -9.097656 23.5 -16.109375 Z M 23.5 -16.109375 "/></g></g><g transform="translate(226.70204, 258.212636)"><g><path d="M 22.421875 0 L 4.015625 0 L 4.015625 -31.953125 L 22.421875 -31.953125 L 22.421875 -26.40625 L 10.796875 -26.40625 L 10.796875 -19.390625 L 21.625 -19.390625 L 21.625 -13.84375 L 10.796875 -13.84375 L 10.796875 -5.59375 L 22.421875 -5.59375 Z M 22.421875 0 "/></g></g></g><g fill="#ffffff" fill-opacity="1"><g transform="translate(251.78248, 258.212636)"><g/></g></g><g fill="#ffffff" fill-opacity="1"><g transform="translate(186.506783, 273.215664)"><g><path d="M 13.109375 -10.921875 L 13.109375 0 L 12 0 L 12 -8.734375 L 7.71875 -1.390625 L 7.171875 -1.390625 L 2.890625 -8.6875 L 2.890625 0 L 1.78125 0 L 1.78125 -10.921875 L 2.734375 -10.921875 L 7.46875 -2.828125 L 12.15625 -10.921875 Z M 13.109375 -10.921875 "/></g></g></g><g fill="#ffffff" fill-opacity="1"><g transform="translate(204.955585, 273.215664)"><g><path d="M 9.5 -1 L 9.5 0 L 1.78125 0 L 1.78125 -10.921875 L 9.265625 -10.921875 L 9.265625 -9.921875 L 2.9375 -9.921875 L 2.9375 -6.03125 L 8.578125 -6.03125 L 8.578125 -5.046875 L 2.9375 -5.046875 L 2.9375 -1 Z M 9.5 -1 "/></g></g></g><g fill="#ffffff" fill-opacity="1"><g transform="translate(218.944826, 273.215664)"><g><path d="M 3.90625 -9.921875 L 0.0625 -9.921875 L 0.0625 -10.921875 L 8.890625 -10.921875 L 8.890625 -9.921875 L 5.046875 -9.921875 L 5.046875 0 L 3.90625 0 Z M 3.90625 -9.921875 "/></g></g></g><g fill="#ffffff" fill-opacity="1"><g transform="translate(231.452749, 273.215664)"><g><path d="M 9.234375 0 L 6.734375 -3.515625 C 6.453125 -3.484375 6.160156 -3.46875 5.859375 -3.46875 L 2.9375 -3.46875 L 2.9375 0 L 1.78125 0 L 1.78125 -10.921875 L 5.859375 -10.921875 C 7.253906 -10.921875 8.347656 -10.585938 9.140625 -9.921875 C 9.929688 -9.253906 10.328125 -8.335938 10.328125 -7.171875 C 10.328125 -6.316406 10.109375 -5.59375 9.671875 -5 C 9.242188 -4.414062 8.628906 -4 7.828125 -3.75 L 10.5 0 Z M 5.828125 -4.4375 C 6.910156 -4.4375 7.738281 -4.675781 8.3125 -5.15625 C 8.882812 -5.632812 9.171875 -6.304688 9.171875 -7.171875 C 9.171875 -8.054688 8.882812 -8.734375 8.3125 -9.203125 C 7.738281 -9.679688 6.910156 -9.921875 5.828125 -9.921875 L 2.9375 -9.921875 L 2.9375 -4.4375 Z M 5.828125 -4.4375 "/></g></g></g><g fill="#ffffff" fill-opacity="1"><g transform="translate(246.284011, 273.215664)"><g><path d="M 1.78125 -10.921875 L 2.9375 -10.921875 L 2.9375 0 L 1.78125 0 Z M 1.78125 -10.921875 "/></g></g></g><g fill="#ffffff" fill-opacity="1"><g transform="translate(254.550678, 273.215664)"><g><path d="M 6.515625 0.09375 C 5.429688 0.09375 4.457031 -0.144531 3.59375 -0.625 C 2.726562 -1.101562 2.046875 -1.765625 1.546875 -2.609375 C 1.054688 -3.460938 0.8125 -4.410156 0.8125 -5.453125 C 0.8125 -6.503906 1.054688 -7.453125 1.546875 -8.296875 C 2.046875 -9.148438 2.726562 -9.816406 3.59375 -10.296875 C 4.46875 -10.773438 5.445312 -11.015625 6.53125 -11.015625 C 7.34375 -11.015625 8.09375 -10.878906 8.78125 -10.609375 C 9.46875 -10.335938 10.050781 -9.941406 10.53125 -9.421875 L 9.796875 -8.6875 C 8.941406 -9.550781 7.863281 -9.984375 6.5625 -9.984375 C 5.695312 -9.984375 4.910156 -9.785156 4.203125 -9.390625 C 3.503906 -8.992188 2.953125 -8.453125 2.546875 -7.765625 C 2.148438 -7.078125 1.953125 -6.304688 1.953125 -5.453125 C 1.953125 -4.597656 2.148438 -3.828125 2.546875 -3.140625 C 2.953125 -2.460938 3.503906 -1.925781 4.203125 -1.53125 C 4.910156 -1.132812 5.695312 -0.9375 6.5625 -0.9375 C 7.875 -0.9375 8.953125 -1.375 9.796875 -2.25 L 10.53125 -1.515625 C 10.050781 -0.992188 9.460938 -0.59375 8.765625 -0.3125 C 8.078125 -0.0390625 7.328125 0.09375 6.515625 0.09375 Z M 6.515625 0.09375 "/></g></g></g><g clip-path="url(#2c2a105d78)"><g clip-path="url(#a3abbcb060)"><g clip-path="url(#48152653dd)"><path fill="#5271ff" d="M 129.78125 151.675781 C 128.519531 127.511719 147.152344 106.828125 171.320312 105.570312 C 195.484375 104.308594 216.167969 122.941406 217.425781 147.109375 C 218.683594 171.273438 200.050781 191.957031 175.886719 193.214844 C 151.71875 194.476562 131.039062 175.839844 129.78125 151.675781 Z M 210.21875 147.484375 C 210.15625 146.285156 210.035156 145.09375 209.855469 143.90625 C 209.675781 142.71875 209.4375 141.542969 209.140625 140.378906 C 208.847656 139.214844 208.496094 138.066406 208.085938 136.9375 C 207.679688 135.808594 207.21875 134.703125 206.699219 133.617188 C 206.183594 132.535156 205.617188 131.476562 204.996094 130.449219 C 204.375 129.421875 203.707031 128.425781 202.988281 127.464844 C 202.269531 126.5 201.503906 125.578125 200.695312 124.6875 C 199.886719 123.800781 199.035156 122.957031 198.144531 122.152344 C 197.253906 121.347656 196.324219 120.589844 195.355469 119.878906 C 194.390625 119.164062 193.390625 118.503906 192.359375 117.886719 C 191.328125 117.273438 190.265625 116.710938 189.179688 116.203125 C 188.09375 115.691406 186.984375 115.234375 185.851562 114.835938 C 184.71875 114.433594 183.570312 114.089844 182.40625 113.800781 C 181.238281 113.511719 180.0625 113.28125 178.875 113.109375 C 177.6875 112.9375 176.492188 112.820312 175.292969 112.765625 C 174.09375 112.710938 172.894531 112.714844 171.695312 112.777344 C 170.496094 112.839844 169.300781 112.960938 168.113281 113.140625 C 166.925781 113.320312 165.75 113.558594 164.585938 113.851562 C 163.425781 114.148438 162.277344 114.5 161.148438 114.90625 C 160.019531 115.316406 158.910156 115.777344 157.828125 116.292969 C 156.742188 116.8125 155.6875 117.378906 154.660156 118 C 153.632812 118.621094 152.636719 119.289062 151.671875 120.007812 C 150.710938 120.726562 149.785156 121.492188 148.898438 122.300781 C 148.011719 123.109375 147.167969 123.960938 146.363281 124.851562 C 145.558594 125.742188 144.800781 126.671875 144.089844 127.640625 C 143.375 128.605469 142.710938 129.605469 142.097656 130.636719 C 141.484375 131.667969 140.921875 132.726562 140.410156 133.816406 C 139.902344 134.902344 139.445312 136.011719 139.042969 137.144531 C 138.644531 138.277344 138.296875 139.425781 138.011719 140.589844 C 137.722656 141.753906 137.492188 142.933594 137.320312 144.121094 C 137.144531 145.308594 137.03125 146.503906 136.976562 147.703125 C 136.921875 148.902344 136.925781 150.101562 136.988281 151.300781 C 137.050781 152.5 137.171875 153.695312 137.351562 154.878906 C 137.53125 156.066406 137.769531 157.242188 138.0625 158.40625 C 138.359375 159.570312 138.710938 160.71875 139.117188 161.847656 C 139.527344 162.976562 139.988281 164.082031 140.503906 165.167969 C 141.019531 166.25 141.589844 167.308594 142.210938 168.335938 C 142.832031 169.363281 143.5 170.359375 144.21875 171.320312 C 144.9375 172.285156 145.699219 173.210938 146.507812 174.097656 C 147.316406 174.984375 148.167969 175.828125 149.0625 176.632812 C 149.953125 177.4375 150.882812 178.195312 151.847656 178.90625 C 152.816406 179.621094 153.816406 180.285156 154.847656 180.898438 C 155.878906 181.511719 156.9375 182.074219 158.023438 182.585938 C 159.113281 183.09375 160.222656 183.550781 161.355469 183.953125 C 162.484375 184.351562 163.632812 184.695312 164.800781 184.984375 C 165.964844 185.273438 167.144531 185.503906 168.332031 185.675781 C 169.519531 185.847656 170.714844 185.964844 171.914062 186.019531 C 173.113281 186.074219 174.3125 186.070312 175.511719 186.007812 C 176.710938 185.945312 177.902344 185.820312 179.089844 185.640625 C 180.277344 185.460938 181.449219 185.222656 182.613281 184.925781 C 183.777344 184.628906 184.921875 184.277344 186.050781 183.867188 C 187.179688 183.457031 188.285156 182.996094 189.367188 182.480469 C 190.453125 181.960938 191.507812 181.394531 192.535156 180.773438 C 193.5625 180.152344 194.558594 179.480469 195.519531 178.761719 C 196.480469 178.046875 197.40625 177.28125 198.292969 176.472656 C 199.179688 175.664062 200.023438 174.8125 200.828125 173.921875 C 201.628906 173.03125 202.386719 172.101562 203.101562 171.132812 C 203.8125 170.167969 204.476562 169.167969 205.089844 168.136719 C 205.703125 167.105469 206.265625 166.046875 206.777344 164.960938 C 207.289062 163.875 207.742188 162.765625 208.144531 161.636719 C 208.546875 160.503906 208.890625 159.355469 209.179688 158.191406 C 209.46875 157.027344 209.699219 155.847656 209.875 154.660156 C 210.046875 153.472656 210.164062 152.28125 210.21875 151.082031 C 210.277344 149.882812 210.273438 148.683594 210.210938 147.484375 Z M 210.21875 147.484375 " fill-opacity="1" fill-rule="nonzero"/></g></g></g><g clip-path="url(#0ed27c6228)"><g clip-path="url(#77f1ca4ca0)"><g clip-path="url(#8abc10e9cd)"><path fill="#5271ff" d="M 126.691406 183.570312 C 126.671875 183.171875 126.707031 182.777344 126.804688 182.390625 C 126.898438 182.003906 127.050781 181.636719 127.253906 181.292969 C 127.457031 180.949219 127.707031 180.644531 128 180.375 C 128.292969 180.105469 128.621094 179.886719 128.980469 179.710938 C 129.339844 179.539062 129.71875 179.421875 130.113281 179.363281 C 130.507812 179.300781 130.902344 179.300781 131.296875 179.355469 C 131.691406 179.414062 132.070312 179.523438 132.433594 179.691406 C 132.792969 179.859375 133.125 180.078125 133.421875 180.34375 L 145.246094 190.917969 C 145.464844 191.089844 145.660156 191.28125 145.835938 191.492188 C 146.011719 191.703125 146.167969 191.929688 146.296875 192.171875 C 146.429688 192.414062 146.535156 192.667969 146.613281 192.929688 C 146.691406 193.195312 146.742188 193.464844 146.765625 193.738281 C 146.789062 194.011719 146.785156 194.285156 146.753906 194.558594 C 146.722656 194.832031 146.664062 195.101562 146.578125 195.359375 C 146.488281 195.621094 146.378906 195.871094 146.238281 196.109375 C 146.101562 196.347656 145.941406 196.570312 145.757812 196.777344 C 145.574219 196.980469 145.375 197.167969 145.152344 197.332031 C 144.933594 197.496094 144.695312 197.636719 144.445312 197.753906 C 144.199219 197.867188 143.9375 197.957031 143.671875 198.023438 C 143.402344 198.085938 143.132812 198.121094 142.855469 198.128906 C 142.582031 198.136719 142.308594 198.117188 142.035156 198.070312 C 141.765625 198.019531 141.503906 197.945312 141.246094 197.84375 C 140.992188 197.742188 140.746094 197.617188 140.515625 197.464844 C 140.289062 197.3125 140.074219 197.140625 139.878906 196.945312 L 128.054688 186.371094 C 127.210938 185.625 126.757812 184.691406 126.691406 183.570312 Z M 126.691406 183.570312 " fill-opacity="1" fill-rule="nonzero"/></g></g></g><g clip-path="url(#6258a169d8)"><g clip-path="url(#938da8f86d)"><g clip-path="url(#58039ae7c8)"><path fill="#5271ff" d="M 91.367188 233.972656 C 91.316406 233.039062 91.449219 232.136719 91.765625 231.257812 C 92.082031 230.378906 92.558594 229.597656 93.191406 228.914062 L 122.054688 197.632812 C 122.363281 197.296875 122.699219 196.996094 123.066406 196.726562 C 123.4375 196.460938 123.824219 196.230469 124.238281 196.039062 C 124.652344 195.847656 125.078125 195.699219 125.523438 195.59375 C 125.964844 195.488281 126.414062 195.425781 126.867188 195.40625 C 127.324219 195.386719 127.773438 195.414062 128.222656 195.484375 C 128.671875 195.554688 129.113281 195.667969 129.539062 195.824219 C 129.964844 195.980469 130.375 196.179688 130.761719 196.417969 C 131.148438 196.652344 131.511719 196.925781 131.847656 197.234375 C 132.179688 197.542969 132.480469 197.882812 132.75 198.25 C 133.015625 198.617188 133.246094 199.007812 133.4375 199.421875 C 133.628906 199.835938 133.777344 200.261719 133.882812 200.703125 C 133.992188 201.148438 134.054688 201.59375 134.070312 202.050781 C 134.089844 202.503906 134.066406 202.957031 133.992188 203.40625 C 133.921875 203.855469 133.808594 204.292969 133.652344 204.722656 C 133.496094 205.148438 133.296875 205.554688 133.0625 205.945312 C 132.824219 206.332031 132.550781 206.695312 132.242188 207.027344 L 103.378906 238.308594 C 102.917969 238.808594 102.390625 239.234375 101.804688 239.578125 C 101.21875 239.925781 100.59375 240.179688 99.929688 240.34375 C 99.269531 240.503906 98.597656 240.566406 97.914062 240.53125 C 97.234375 240.492188 96.574219 240.359375 95.933594 240.128906 C 95.292969 239.894531 94.699219 239.578125 94.148438 239.171875 C 93.601562 238.761719 93.125 238.285156 92.71875 237.738281 C 92.316406 237.191406 91.996094 236.597656 91.765625 235.953125 C 91.535156 235.3125 91.402344 234.652344 91.367188 233.972656 Z M 91.367188 233.972656 " fill-opacity="1" fill-rule="nonzero"/></g></g></g><g clip-path="url(#b88dc9ee21)"><g clip-path="url(#47670094a1)"><g clip-path="url(#24b200f10a)"><path fill="#5271ff" d="M 142.734375 150.929688 C 142.4375 145.285156 143.667969 137.738281 149.394531 129.433594 C 154.421875 122.140625 162.546875 118.476562 172.890625 118.832031 C 177.671875 119.015625 182.320312 119.910156 186.828125 121.515625 C 187.097656 121.617188 187.332031 121.769531 187.539062 121.96875 C 187.746094 122.167969 187.90625 122.398438 188.019531 122.660156 C 188.136719 122.921875 188.195312 123.195312 188.203125 123.480469 C 188.207031 123.765625 188.160156 124.042969 188.058594 124.308594 C 187.953125 124.578125 187.804688 124.8125 187.605469 125.023438 C 187.410156 125.230469 187.179688 125.390625 186.917969 125.507812 C 186.65625 125.625 186.382812 125.6875 186.097656 125.695312 C 185.8125 125.703125 185.535156 125.65625 185.269531 125.554688 C 181.175781 124.121094 176.964844 123.324219 172.632812 123.15625 C 163.773438 122.878906 157.160156 125.816406 152.96875 131.886719 C 142.625 146.882812 149 158.910156 149.066406 159.027344 C 149.210938 159.28125 149.300781 159.550781 149.339844 159.839844 C 149.375 160.128906 149.351562 160.414062 149.273438 160.695312 C 149.195312 160.976562 149.066406 161.230469 148.882812 161.457031 C 148.703125 161.683594 148.484375 161.867188 148.230469 162.007812 C 147.976562 162.148438 147.703125 162.234375 147.414062 162.261719 C 147.125 162.292969 146.839844 162.265625 146.5625 162.179688 C 146.28125 162.097656 146.03125 161.960938 145.808594 161.773438 C 145.582031 161.589844 145.402344 161.367188 145.269531 161.109375 C 145.09375 160.808594 143.046875 156.953125 142.734375 150.929688 Z M 142.734375 150.929688 " fill-opacity="1" fill-rule="nonzero"/></g></g></g><g clip-path="url(#e9ba3db08e)"><path fill="#ffffff" d="M 287.417969 196.410156 C 284.304688 195.160156 280.011719 193.644531 274.652344 191.910156 C 267.347656 189.546875 259.660156 187.285156 254.921875 185.980469 C 255 184.585938 255.039062 182.824219 255.046875 180.5625 C 255.070312 175.84375 254.933594 169.699219 254.660156 163.265625 C 253.574219 137.648438 251.9375 135.386719 251.242188 134.421875 C 250.03125 132.746094 248.210938 132.671875 246.605469 132.601562 C 241.4375 132.386719 225.65625 132.886719 210.683594 133.738281 C 180.941406 135.429688 179.832031 136.722656 178.550781 138.21875 C 177.566406 139.363281 176.929688 140.738281 176.988281 149.050781 C 177.023438 153.730469 177.285156 159.816406 177.726562 166.1875 C 178.125 171.9375 179.628906 191.285156 182.269531 198.84375 C 182.550781 199.644531 183.140625 201.339844 184.410156 202.535156 C 184.972656 204.910156 186.898438 206.945312 188.636719 208.105469 C 189.890625 208.941406 197.046875 213.386719 204.515625 217.605469 C 218.234375 225.351562 222.34375 226.398438 224.550781 226.398438 C 227.234375 226.398438 247.445312 221.476562 260.175781 218.089844 C 269.386719 215.640625 277.160156 213.378906 282.65625 211.542969 C 285.992188 210.429688 288.496094 209.480469 290.320312 208.640625 C 292.066406 207.832031 295.316406 206.328125 295.316406 203.113281 C 295.316406 199.835938 292.042969 198.269531 287.417969 196.410156 Z M 287.417969 196.410156 C 284.304688 195.160156 280.011719 193.644531 274.652344 191.910156 C 267.347656 189.546875 259.660156 187.285156 254.921875 185.980469 C 255 184.585938 255.039062 182.824219 255.046875 180.5625 C 255.070312 175.84375 254.933594 169.699219 254.660156 163.265625 C 253.574219 137.648438 251.9375 135.386719 251.242188 134.421875 C 250.03125 132.746094 248.210938 132.671875 246.605469 132.601562 C 241.4375 132.386719 225.65625 132.886719 210.683594 133.738281 C 180.941406 135.429688 179.832031 136.722656 178.550781 138.21875 C 177.566406 139.363281 176.929688 140.738281 176.988281 149.050781 C 177.023438 153.730469 177.285156 159.816406 177.726562 166.1875 C 178.125 171.9375 179.628906 191.285156 182.269531 198.84375 C 182.550781 199.644531 183.140625 201.339844 184.410156 202.535156 C 184.972656 204.910156 186.898438 206.945312 188.636719 208.105469 C 189.890625 208.941406 197.046875 213.386719 204.515625 217.605469 C 218.234375 225.351562 222.34375 226.398438 224.550781 226.398438 C 227.234375 226.398438 247.445312 221.476562 260.175781 218.089844 C 269.386719 215.640625 277.160156 213.378906 282.65625 211.542969 C 285.992188 210.429688 288.496094 209.480469 290.320312 208.640625 C 292.066406 207.832031 295.316406 206.328125 295.316406 203.113281 C 295.316406 199.835938 292.042969 198.269531 287.417969 196.410156 Z M 287.417969 196.410156 " fill-opacity="1" fill-rule="nonzero"/></g><path fill="#5271ff" d="M 291.433594 203.113281 C 291.433594 207.179688 227.714844 222.515625 224.550781 222.515625 C 219.113281 222.515625 192.90625 206.285156 190.792969 204.875 C 188.679688 203.464844 187.136719 200.824219 188.898438 199.980469 C 188.25 200.007812 187.769531 199.996094 187.488281 199.941406 C 182.90625 199.0625 179.382812 143.210938 181.5 140.746094 C 183.613281 138.28125 247.289062 135.578125 248.09375 136.695312 C 250.382812 139.867188 252.144531 187.433594 250.558594 188.84375 C 257.117188 190.445312 291.433594 200.515625 291.433594 203.113281 Z M 291.433594 203.113281 C 291.433594 207.179688 227.714844 222.515625 224.550781 222.515625 C 219.113281 222.515625 192.90625 206.285156 190.792969 204.875 C 188.679688 203.464844 187.136719 200.824219 188.898438 199.980469 C 188.25 200.007812 187.769531 199.996094 187.488281 199.941406 C 182.90625 199.0625 179.382812 143.210938 181.5 140.746094 C 183.613281 138.28125 247.289062 135.578125 248.09375 136.695312 C 250.382812 139.867188 252.144531 187.433594 250.558594 188.84375 C 257.117188 190.445312 291.433594 200.515625 291.433594 203.113281 Z M 291.433594 203.113281 " fill-opacity="1" fill-rule="nonzero"/><g mask="url(#d03c2befb7)"><g transform="matrix(1, 0, 0, 1, 186, 140)"><g clip-path="url(#00ab1cb65f)"><g clip-path="url(#ab9197e5f1)"><path fill="#ffffff" d="M 60.574219 45.058594 C 59.207031 46.25 10.085938 55.191406 6.132812 54.445312 C 2.179688 53.699219 -0.863281 6.472656 0.960938 4.386719 C 2.785156 2.300781 57.75 0.015625 58.445312 0.960938 C 60.421875 3.640625 61.945312 43.867188 60.574219 45.058594 Z M 13.363281 62.097656 C 13.363281 62.097656 28.273438 69.335938 30.339844 69.496094 C 32.402344 69.65625 81.585938 58.9375 81.902344 58.300781 C 82.21875 57.667969 64.144531 52.375 63.207031 52.546875 C 29.769531 58.671875 13.363281 62.097656 13.363281 62.097656 Z M 13.363281 62.097656 " fill-opacity="1" fill-rule="nonzero"/></g></g></g></g><path fill="#000000" d="M 189.640625 200.5625 C 189.273438 200.597656 188.964844 200.222656 188.964844 199.886719 C 188.964844 199.496094 189.277344 199.25 189.640625 199.210938 C 190.53125 199.121094 191.417969 198.90625 192.3125 198.789062 C 193.367188 198.648438 194.417969 198.519531 195.46875 198.316406 C 196.554688 198.105469 197.652344 197.945312 198.746094 197.769531 C 199.839844 197.59375 200.925781 197.351562 202.023438 197.191406 C 204.128906 196.882812 206.214844 196.5 208.304688 196.105469 C 210.367188 195.722656 212.453125 195.480469 214.515625 195.085938 C 216.574219 194.691406 218.632812 194.277344 220.695312 193.894531 C 222.785156 193.503906 224.898438 193.242188 226.980469 192.804688 C 231.007812 191.957031 235.089844 191.390625 239.109375 190.503906 C 240.109375 190.285156 241.113281 190.128906 242.121094 189.953125 C 243.070312 189.789062 244.003906 189.550781 244.953125 189.367188 C 245.859375 189.191406 246.765625 189.011719 247.675781 188.839844 C 248.371094 188.710938 249.082031 188.640625 249.769531 188.484375 C 250.617188 188.292969 250.976562 189.59375 250.128906 189.785156 C 249.335938 189.96875 248.515625 190.046875 247.714844 190.203125 C 246.675781 190.40625 245.636719 190.589844 244.601562 190.816406 C 243.496094 191.058594 242.394531 191.265625 241.277344 191.453125 C 240.1875 191.636719 239.113281 191.902344 238.023438 192.109375 C 237.035156 192.300781 236.054688 192.535156 235.058594 192.6875 C 234.007812 192.847656 232.964844 193.019531 231.917969 193.234375 C 230.875 193.449219 229.828125 193.632812 228.78125 193.824219 C 227.761719 194.007812 226.75 194.25 225.730469 194.421875 C 223.632812 194.785156 221.535156 195.105469 219.449219 195.515625 C 217.371094 195.929688 215.28125 196.390625 213.179688 196.679688 C 211.074219 196.964844 208.992188 197.367188 206.902344 197.746094 C 205.855469 197.933594 204.8125 198.15625 203.757812 198.308594 C 202.726562 198.457031 201.703125 198.601562 200.679688 198.792969 C 199.726562 198.972656 198.765625 199.125 197.804688 199.273438 C 196.800781 199.425781 195.808594 199.640625 194.808594 199.808594 C 193.902344 199.960938 192.984375 200.035156 192.074219 200.175781 C 191.261719 200.296875 190.457031 200.480469 189.640625 200.5625 Z M 189.640625 200.5625 C 189.273438 200.597656 188.964844 200.222656 188.964844 199.886719 C 188.964844 199.496094 189.277344 199.25 189.640625 199.210938 C 190.53125 199.121094 191.417969 198.90625 192.3125 198.789062 C 193.367188 198.648438 194.417969 198.519531 195.46875 198.316406 C 196.554688 198.105469 197.652344 197.945312 198.746094 197.769531 C 199.839844 197.59375 200.925781 197.351562 202.023438 197.191406 C 204.128906 196.882812 206.214844 196.5 208.304688 196.105469 C 210.367188 195.722656 212.453125 195.480469 214.515625 195.085938 C 216.574219 194.691406 218.632812 194.277344 220.695312 193.894531 C 222.785156 193.503906 224.898438 193.242188 226.980469 192.804688 C 231.007812 191.957031 235.089844 191.390625 239.109375 190.503906 C 240.109375 190.285156 241.113281 190.128906 242.121094 189.953125 C 243.070312 189.789062 244.003906 189.550781 244.953125 189.367188 C 245.859375 189.191406 246.765625 189.011719 247.675781 188.839844 C 248.371094 188.710938 249.082031 188.640625 249.769531 188.484375 C 250.617188 188.292969 250.976562 189.59375 250.128906 189.785156 C 249.335938 189.96875 248.515625 190.046875 247.714844 190.203125 C 246.675781 190.40625 245.636719 190.589844 244.601562 190.816406 C 243.496094 191.058594 242.394531 191.265625 241.277344 191.453125 C 240.1875 191.636719 239.113281 191.902344 238.023438 192.109375 C 237.035156 192.300781 236.054688 192.535156 235.058594 192.6875 C 234.007812 192.847656 232.964844 193.019531 231.917969 193.234375 C 230.875 193.449219 229.828125 193.632812 228.78125 193.824219 C 227.761719 194.007812 226.75 194.25 225.730469 194.421875 C 223.632812 194.785156 221.535156 195.105469 219.449219 195.515625 C 217.371094 195.929688 215.28125 196.390625 213.179688 196.679688 C 211.074219 196.964844 208.992188 197.367188 206.902344 197.746094 C 205.855469 197.933594 204.8125 198.15625 203.757812 198.308594 C 202.726562 198.457031 201.703125 198.601562 200.679688 198.792969 C 199.726562 198.972656 198.765625 199.125 197.804688 199.273438 C 196.800781 199.425781 195.808594 199.640625 194.808594 199.808594 C 193.902344 199.960938 192.984375 200.035156 192.074219 200.175781 C 191.261719 200.296875 190.457031 200.480469 189.640625 200.5625 Z M 189.640625 200.5625 " fill-opacity="1" fill-rule="nonzero"/><path fill="#ffffff" d="M 192.792969 195.199219 C 192.371094 195.199219 192.144531 195.171875 192 195.144531 C 191.285156 195.011719 190.722656 194.265625 190.164062 192.738281 C 189.980469 192.226562 189.84375 191.632812 189.695312 191.007812 C 189.644531 190.785156 189.59375 190.558594 189.535156 190.320312 C 189.472656 190.066406 189.398438 189.800781 189.324219 189.53125 C 189.183594 189.027344 189.042969 188.507812 188.929688 187.9375 L 188.921875 187.886719 C 188.773438 187.140625 188.625 186.363281 188.488281 185.535156 C 188.414062 185.097656 188.367188 184.644531 188.320312 184.207031 C 188.28125 183.847656 188.242188 183.480469 188.1875 183.113281 C 188.136719 182.769531 188.074219 182.425781 188.011719 182.074219 C 187.929688 181.632812 187.847656 181.175781 187.789062 180.707031 C 187.722656 180.203125 187.664062 179.691406 187.609375 179.171875 C 187.574219 178.878906 187.542969 178.582031 187.507812 178.289062 C 187.457031 177.832031 187.414062 177.375 187.371094 176.910156 C 187.339844 176.5625 187.308594 176.214844 187.269531 175.863281 C 187.222656 175.425781 187.191406 174.980469 187.160156 174.546875 C 187.136719 174.179688 187.109375 173.808594 187.074219 173.4375 C 187.046875 173.140625 187.015625 172.84375 186.984375 172.542969 C 186.933594 172.035156 186.882812 171.527344 186.835938 171.019531 C 186.765625 170.210938 186.699219 169.402344 186.632812 168.597656 C 186.605469 168.226562 186.566406 167.859375 186.53125 167.492188 C 186.484375 167.050781 186.441406 166.613281 186.410156 166.175781 C 186.375 165.714844 186.351562 165.253906 186.328125 164.796875 C 186.3125 164.445312 186.292969 164.097656 186.269531 163.75 C 186.246094 163.371094 186.210938 162.996094 186.179688 162.621094 C 186.140625 162.1875 186.101562 161.753906 186.078125 161.324219 C 186.050781 160.832031 186.03125 160.34375 186.011719 159.863281 C 185.996094 159.539062 185.984375 159.214844 185.96875 158.898438 C 185.953125 158.554688 185.933594 158.21875 185.914062 157.882812 C 185.890625 157.40625 185.863281 156.933594 185.84375 156.46875 C 185.828125 155.996094 185.832031 155.535156 185.835938 155.089844 C 185.839844 154.730469 185.839844 154.378906 185.832031 154.035156 C 185.824219 153.65625 185.804688 153.28125 185.785156 152.917969 C 185.757812 152.460938 185.734375 152.035156 185.730469 151.601562 C 185.726562 151.066406 185.75 150.5625 185.769531 150.074219 C 185.785156 149.757812 185.796875 149.457031 185.804688 149.164062 C 185.808594 148.78125 185.800781 148.417969 185.796875 148.074219 C 185.785156 147.585938 185.777344 147.125 185.808594 146.699219 C 185.953125 144.523438 186.332031 144.089844 186.457031 143.945312 C 186.589844 143.796875 186.941406 143.394531 189.125 143.015625 C 189.636719 142.925781 190.226562 142.851562 190.847656 142.777344 C 191.074219 142.75 191.304688 142.722656 191.542969 142.691406 C 191.753906 142.664062 191.972656 142.636719 192.195312 142.609375 C 192.75 142.535156 193.324219 142.457031 193.945312 142.394531 L 194.269531 142.359375 C 194.929688 142.289062 195.621094 142.21875 196.347656 142.152344 C 196.773438 142.113281 197.214844 142.082031 197.664062 142.050781 C 198.019531 142.027344 198.382812 142 198.75 141.972656 C 199.101562 141.941406 199.457031 141.90625 199.820312 141.867188 C 200.257812 141.820312 200.699219 141.773438 201.152344 141.742188 C 201.570312 141.710938 201.992188 141.703125 202.398438 141.695312 C 202.78125 141.6875 203.179688 141.683594 203.5625 141.65625 C 203.925781 141.628906 204.289062 141.597656 204.65625 141.566406 C 205.089844 141.53125 205.523438 141.492188 205.964844 141.464844 C 206.328125 141.441406 206.6875 141.414062 207.054688 141.386719 C 207.488281 141.351562 207.929688 141.316406 208.371094 141.289062 C 208.746094 141.269531 209.125 141.234375 209.5 141.203125 C 209.921875 141.171875 210.347656 141.136719 210.773438 141.109375 C 211.195312 141.085938 211.617188 141.082031 212.027344 141.082031 C 212.40625 141.078125 212.800781 141.074219 213.183594 141.054688 C 213.5625 141.035156 213.945312 141 214.328125 140.964844 C 214.738281 140.925781 215.160156 140.886719 215.582031 140.863281 C 216.007812 140.84375 216.433594 140.84375 216.839844 140.84375 C 217.242188 140.84375 217.617188 140.84375 217.992188 140.828125 C 218.375 140.808594 218.769531 140.769531 219.148438 140.734375 C 219.554688 140.695312 219.972656 140.65625 220.394531 140.636719 C 220.777344 140.621094 221.160156 140.597656 221.542969 140.574219 C 221.964844 140.546875 222.378906 140.523438 222.796875 140.503906 C 223.230469 140.488281 223.660156 140.496094 224.074219 140.507812 C 224.46875 140.515625 224.839844 140.527344 225.207031 140.511719 C 225.597656 140.496094 225.980469 140.472656 226.363281 140.453125 C 226.785156 140.429688 227.199219 140.40625 227.613281 140.390625 C 228.007812 140.378906 228.398438 140.347656 228.789062 140.320312 C 229.191406 140.292969 229.605469 140.261719 230.015625 140.25 C 230.460938 140.234375 230.894531 140.238281 231.316406 140.242188 C 231.691406 140.246094 232.0625 140.25 232.425781 140.238281 C 232.894531 140.226562 233.355469 140.21875 233.804688 140.214844 C 234.15625 140.210938 234.5 140.207031 234.835938 140.199219 L 235.675781 140.175781 C 236.21875 140.164062 236.742188 140.152344 237.242188 140.144531 C 237.65625 140.136719 238.0625 140.105469 238.453125 140.074219 C 238.871094 140.042969 239.265625 140.011719 239.65625 140.011719 C 240.242188 140.007812 240.785156 140.03125 241.265625 140.050781 C 241.554688 140.0625 241.824219 140.074219 242.078125 140.078125 C 244.503906 140.125 244.765625 140.195312 245.019531 140.539062 C 245.324219 140.953125 245.492188 141.695312 245.757812 143.203125 C 245.796875 143.421875 245.84375 143.652344 245.890625 143.894531 C 245.996094 144.417969 246.113281 145.011719 246.195312 145.664062 C 246.285156 146.394531 246.378906 147.226562 246.46875 148.128906 C 246.523438 148.683594 246.574219 149.261719 246.621094 149.855469 L 246.683594 150.59375 C 246.71875 151.023438 246.734375 151.46875 246.75 151.898438 C 246.761719 152.28125 246.777344 152.675781 246.804688 153.066406 C 246.832031 153.429688 246.871094 153.796875 246.910156 154.167969 C 246.957031 154.609375 247.003906 155.0625 247.035156 155.527344 C 247.066406 156 247.089844 156.480469 247.113281 156.964844 C 247.128906 157.304688 247.148438 157.648438 247.167969 157.992188 C 247.191406 158.429688 247.207031 158.871094 247.21875 159.3125 C 247.230469 159.695312 247.242188 160.078125 247.261719 160.457031 C 247.289062 160.996094 247.3125 161.539062 247.335938 162.078125 L 247.398438 163.515625 C 247.425781 164.140625 247.457031 164.765625 247.480469 165.390625 C 247.496094 165.777344 247.53125 166.171875 247.566406 166.558594 C 247.601562 166.980469 247.640625 167.417969 247.65625 167.851562 C 247.671875 168.308594 247.667969 168.757812 247.667969 169.191406 C 247.667969 169.574219 247.664062 169.949219 247.675781 170.320312 C 247.683594 170.671875 247.695312 171.019531 247.707031 171.363281 C 247.722656 171.84375 247.738281 172.320312 247.75 172.789062 C 247.757812 173.285156 247.753906 173.773438 247.753906 174.25 C 247.753906 174.589844 247.75 174.929688 247.753906 175.257812 C 247.757812 175.660156 247.773438 176.050781 247.792969 176.433594 C 247.808594 176.882812 247.828125 177.304688 247.828125 177.730469 C 247.824219 178.371094 247.808594 178.984375 247.792969 179.5625 L 247.777344 180.207031 C 247.761719 181.027344 247.714844 181.757812 247.671875 182.402344 L 247.65625 182.695312 C 247.523438 184.839844 247.359375 185.324219 247.042969 185.597656 C 246.894531 185.730469 246.683594 185.910156 244.457031 186.457031 C 243.757812 186.628906 242.910156 186.820312 242.09375 187 L 241.402344 187.152344 C 240.878906 187.273438 240.324219 187.398438 239.738281 187.519531 C 238.996094 187.675781 238.207031 187.835938 237.378906 188.003906 C 236.972656 188.085938 236.554688 188.164062 236.128906 188.242188 C 235.761719 188.308594 235.386719 188.378906 235.011719 188.453125 C 234.609375 188.53125 234.195312 188.59375 233.796875 188.648438 C 233.414062 188.707031 233.015625 188.761719 232.628906 188.835938 C 232.273438 188.90625 231.914062 188.996094 231.535156 189.09375 C 231.128906 189.195312 230.714844 189.296875 230.28125 189.378906 C 229.871094 189.457031 229.453125 189.53125 229.035156 189.601562 C 228.660156 189.667969 228.285156 189.730469 227.910156 189.800781 C 227.429688 189.890625 226.945312 189.980469 226.457031 190.066406 L 225.539062 190.234375 C 225.128906 190.308594 224.710938 190.367188 224.308594 190.425781 C 223.929688 190.476562 223.535156 190.53125 223.15625 190.601562 C 222.785156 190.667969 222.410156 190.738281 222.035156 190.8125 C 221.621094 190.894531 221.207031 190.976562 220.792969 191.050781 C 220.375 191.121094 219.957031 191.191406 219.539062 191.257812 C 219.164062 191.316406 218.789062 191.375 218.417969 191.441406 C 218.046875 191.503906 217.683594 191.59375 217.296875 191.6875 C 216.894531 191.785156 216.484375 191.886719 216.0625 191.960938 C 215.636719 192.03125 215.210938 192.078125 214.800781 192.121094 C 214.410156 192.160156 214.039062 192.199219 213.671875 192.261719 C 213.296875 192.324219 212.910156 192.410156 212.539062 192.496094 C 212.140625 192.585938 211.730469 192.679688 211.3125 192.75 C 210.882812 192.820312 210.453125 192.863281 210.039062 192.902344 C 209.652344 192.941406 209.28125 192.980469 208.921875 193.039062 C 208.546875 193.097656 208.179688 193.160156 207.8125 193.226562 C 207.386719 193.296875 206.964844 193.371094 206.546875 193.4375 C 206.082031 193.507812 205.625 193.574219 205.175781 193.640625 C 204.835938 193.6875 204.496094 193.734375 204.164062 193.785156 C 203.769531 193.847656 203.386719 193.917969 203.007812 193.988281 C 202.609375 194.066406 202.195312 194.144531 201.789062 194.199219 C 201.289062 194.273438 200.796875 194.332031 200.324219 194.390625 C 200.007812 194.429688 199.699219 194.46875 199.398438 194.507812 C 199.117188 194.546875 198.847656 194.582031 198.582031 194.621094 C 198.027344 194.695312 197.5 194.769531 197.003906 194.828125 C 196.714844 194.859375 196.433594 194.894531 196.167969 194.929688 C 195.601562 195 195.066406 195.066406 194.589844 195.105469 C 193.753906 195.175781 193.1875 195.199219 192.792969 195.199219 Z M 187.464844 144.851562 C 187.410156 144.976562 187.238281 145.535156 187.15625 146.792969 C 187.128906 147.160156 187.136719 147.59375 187.144531 148.050781 C 187.152344 148.40625 187.160156 148.785156 187.152344 149.183594 C 187.148438 149.488281 187.132812 149.804688 187.121094 150.132812 C 187.101562 150.601562 187.078125 151.089844 187.082031 151.589844 C 187.085938 151.992188 187.109375 152.40625 187.132812 152.84375 C 187.152344 153.222656 187.171875 153.609375 187.183594 154 C 187.191406 154.359375 187.1875 154.726562 187.183594 155.101562 C 187.183594 155.53125 187.179688 155.976562 187.195312 156.417969 C 187.210938 156.875 187.238281 157.335938 187.265625 157.808594 C 187.285156 158.144531 187.304688 158.488281 187.320312 158.832031 C 187.335938 159.15625 187.347656 159.480469 187.359375 159.808594 C 187.378906 160.285156 187.398438 160.765625 187.425781 161.25 C 187.449219 161.664062 187.484375 162.082031 187.523438 162.5 C 187.558594 162.886719 187.59375 163.273438 187.617188 163.660156 C 187.640625 164.015625 187.660156 164.371094 187.675781 164.726562 C 187.699219 165.175781 187.722656 165.625 187.757812 166.078125 C 187.785156 166.503906 187.832031 166.929688 187.875 167.355469 C 187.910156 167.730469 187.949219 168.109375 187.980469 168.488281 C 188.042969 169.292969 188.113281 170.097656 188.183594 170.898438 C 188.226562 171.402344 188.277344 171.90625 188.328125 172.40625 C 188.359375 172.707031 188.390625 173.007812 188.417969 173.308594 C 188.453125 173.691406 188.480469 174.074219 188.507812 174.453125 C 188.539062 174.890625 188.570312 175.304688 188.613281 175.722656 C 188.652344 176.078125 188.683594 176.433594 188.714844 176.785156 C 188.757812 177.238281 188.796875 177.6875 188.851562 178.132812 C 188.882812 178.429688 188.917969 178.726562 188.949219 179.023438 C 189.007812 179.53125 189.0625 180.035156 189.125 180.535156 C 189.183594 180.96875 189.261719 181.40625 189.339844 181.832031 C 189.40625 182.199219 189.472656 182.558594 189.523438 182.917969 C 189.582031 183.304688 189.621094 183.6875 189.664062 184.0625 C 189.710938 184.5 189.753906 184.914062 189.820312 185.3125 C 189.953125 186.125 190.101562 186.890625 190.246094 187.628906 L 190.257812 187.679688 C 190.355469 188.199219 190.492188 188.691406 190.625 189.167969 C 190.703125 189.453125 190.78125 189.730469 190.847656 190 C 190.90625 190.242188 190.960938 190.476562 191.011719 190.699219 C 191.15625 191.3125 191.277344 191.84375 191.4375 192.277344 C 191.933594 193.644531 192.273438 193.824219 192.277344 193.824219 C 192.425781 193.851562 192.953125 193.886719 194.476562 193.761719 C 194.929688 193.722656 195.449219 193.65625 196 193.589844 C 196.269531 193.554688 196.550781 193.519531 196.84375 193.484375 C 197.332031 193.429688 197.851562 193.355469 198.394531 193.28125 C 198.664062 193.246094 198.9375 193.207031 199.21875 193.167969 C 199.523438 193.128906 199.835938 193.089844 200.15625 193.050781 C 200.625 192.992188 201.105469 192.933594 201.597656 192.863281 C 201.972656 192.808594 202.355469 192.738281 202.757812 192.664062 C 203.152344 192.589844 203.554688 192.511719 203.960938 192.449219 C 204.296875 192.398438 204.640625 192.351562 204.984375 192.300781 C 205.429688 192.238281 205.882812 192.175781 206.339844 192.101562 C 206.75 192.039062 207.164062 191.964844 207.582031 191.894531 C 207.953125 191.828125 208.328125 191.765625 208.707031 191.703125 C 209.109375 191.640625 209.511719 191.597656 209.90625 191.558594 C 210.300781 191.519531 210.707031 191.480469 211.09375 191.414062 C 211.46875 191.355469 211.84375 191.269531 212.238281 191.179688 C 212.628906 191.089844 213.035156 191 213.449219 190.929688 C 213.855469 190.859375 214.265625 190.816406 214.660156 190.777344 C 215.070312 190.734375 215.453125 190.695312 215.835938 190.628906 C 216.210938 190.5625 216.582031 190.472656 216.976562 190.378906 C 217.367188 190.28125 217.769531 190.183594 218.183594 190.109375 C 218.5625 190.042969 218.945312 189.984375 219.328125 189.921875 C 219.738281 189.855469 220.148438 189.792969 220.554688 189.71875 C 220.964844 189.648438 221.371094 189.566406 221.777344 189.488281 C 222.15625 189.414062 222.539062 189.339844 222.917969 189.269531 C 223.324219 189.199219 223.730469 189.140625 224.121094 189.085938 C 224.527344 189.03125 224.914062 188.976562 225.296875 188.90625 L 226.214844 188.738281 C 226.703125 188.652344 227.183594 188.5625 227.664062 188.472656 C 228.046875 188.402344 228.425781 188.335938 228.804688 188.273438 C 229.214844 188.199219 229.625 188.128906 230.03125 188.054688 C 230.421875 187.980469 230.820312 187.878906 231.203125 187.78125 C 231.585938 187.6875 231.980469 187.585938 232.375 187.511719 C 232.792969 187.429688 233.203125 187.371094 233.605469 187.3125 C 234.003906 187.253906 234.382812 187.199219 234.75 187.128906 C 235.132812 187.050781 235.511719 186.980469 235.882812 186.914062 C 236.300781 186.835938 236.710938 186.761719 237.109375 186.679688 C 237.933594 186.515625 238.71875 186.351562 239.460938 186.199219 C 240.039062 186.074219 240.589844 185.953125 241.109375 185.835938 L 241.804688 185.679688 C 242.609375 185.503906 243.449219 185.3125 244.132812 185.148438 C 245.390625 184.839844 245.894531 184.671875 246.09375 184.59375 C 246.144531 184.390625 246.226562 183.882812 246.308594 182.609375 L 246.324219 182.316406 C 246.367188 181.6875 246.410156 180.972656 246.425781 180.175781 L 246.445312 179.527344 C 246.457031 178.960938 246.472656 178.359375 246.476562 177.726562 C 246.476562 177.332031 246.460938 176.921875 246.441406 176.488281 C 246.425781 176.09375 246.410156 175.6875 246.402344 175.273438 C 246.402344 174.933594 246.402344 174.59375 246.402344 174.246094 C 246.40625 173.777344 246.40625 173.300781 246.398438 172.816406 C 246.390625 172.351562 246.375 171.882812 246.359375 171.40625 C 246.347656 171.0625 246.335938 170.710938 246.324219 170.355469 C 246.316406 169.972656 246.316406 169.582031 246.316406 169.1875 C 246.320312 168.765625 246.320312 168.328125 246.304688 167.898438 C 246.292969 167.5 246.257812 167.101562 246.21875 166.679688 C 246.183594 166.277344 246.148438 165.863281 246.128906 165.441406 C 246.105469 164.824219 246.078125 164.199219 246.050781 163.578125 L 245.984375 162.136719 C 245.964844 161.597656 245.941406 161.0625 245.914062 160.527344 C 245.894531 160.136719 245.882812 159.746094 245.871094 159.355469 C 245.855469 158.925781 245.84375 158.496094 245.820312 158.070312 C 245.800781 157.722656 245.78125 157.375 245.765625 157.03125 C 245.742188 156.554688 245.71875 156.082031 245.6875 155.613281 C 245.65625 155.175781 245.613281 154.734375 245.566406 154.308594 C 245.527344 153.921875 245.488281 153.542969 245.457031 153.164062 C 245.429688 152.746094 245.414062 152.339844 245.398438 151.945312 C 245.386719 151.511719 245.371094 151.105469 245.335938 150.707031 L 245.277344 149.96875 C 245.226562 149.378906 245.179688 148.808594 245.125 148.261719 C 245.035156 147.371094 244.945312 146.550781 244.855469 145.828125 C 244.78125 145.226562 244.667969 144.660156 244.566406 144.15625 C 244.515625 143.90625 244.46875 143.664062 244.429688 143.4375 C 244.347656 142.964844 244.167969 141.949219 244.011719 141.511719 C 243.746094 141.480469 243.191406 141.449219 242.050781 141.429688 C 241.789062 141.425781 241.507812 141.414062 241.207031 141.402344 C 240.742188 141.378906 240.21875 141.355469 239.664062 141.359375 C 239.320312 141.363281 238.949219 141.390625 238.558594 141.421875 C 238.144531 141.453125 237.71875 141.484375 237.265625 141.492188 C 236.765625 141.5 236.25 141.515625 235.710938 141.527344 L 234.867188 141.546875 C 234.523438 141.554688 234.175781 141.558594 233.824219 141.566406 C 233.378906 141.570312 232.925781 141.578125 232.464844 141.589844 C 232.082031 141.601562 231.695312 141.597656 231.304688 141.59375 C 230.898438 141.589844 230.476562 141.585938 230.0625 141.597656 C 229.679688 141.609375 229.292969 141.640625 228.886719 141.667969 C 228.480469 141.699219 228.074219 141.726562 227.660156 141.742188 C 227.257812 141.757812 226.851562 141.777344 226.4375 141.800781 C 226.050781 141.824219 225.65625 141.84375 225.261719 141.859375 C 224.851562 141.875 224.4375 141.867188 224.042969 141.859375 C 223.632812 141.847656 223.246094 141.839844 222.855469 141.855469 C 222.445312 141.871094 222.035156 141.898438 221.625 141.921875 C 221.238281 141.945312 220.847656 141.96875 220.457031 141.988281 C 220.070312 142.003906 219.683594 142.039062 219.277344 142.078125 C 218.878906 142.117188 218.46875 142.15625 218.058594 142.175781 C 217.648438 142.195312 217.234375 142.195312 216.839844 142.195312 C 216.429688 142.195312 216.042969 142.195312 215.652344 142.214844 C 215.257812 142.234375 214.847656 142.273438 214.453125 142.308594 C 214.054688 142.34375 213.65625 142.382812 213.253906 142.402344 C 212.84375 142.425781 212.433594 142.429688 212.035156 142.429688 C 211.625 142.433594 211.238281 142.4375 210.851562 142.457031 C 210.4375 142.484375 210.023438 142.515625 209.613281 142.550781 C 209.226562 142.582031 208.839844 142.613281 208.453125 142.636719 C 208.019531 142.664062 207.585938 142.699219 207.15625 142.730469 C 206.789062 142.757812 206.421875 142.789062 206.054688 142.8125 C 205.621094 142.839844 205.195312 142.875 204.769531 142.914062 C 204.398438 142.945312 204.027344 142.976562 203.65625 143.003906 C 203.238281 143.03125 202.820312 143.039062 202.421875 143.046875 C 202.015625 143.050781 201.632812 143.058594 201.253906 143.085938 C 200.816406 143.121094 200.382812 143.164062 199.960938 143.210938 C 199.589844 143.25 199.222656 143.285156 198.863281 143.316406 C 198.488281 143.347656 198.117188 143.371094 197.753906 143.398438 C 197.316406 143.429688 196.886719 143.457031 196.46875 143.496094 C 195.75 143.5625 195.0625 143.632812 194.410156 143.703125 L 194.085938 143.738281 C 193.484375 143.800781 192.917969 143.875 192.371094 143.945312 C 192.144531 143.976562 191.925781 144.003906 191.710938 144.03125 C 191.472656 144.0625 191.238281 144.089844 191.011719 144.117188 C 190.378906 144.195312 189.835938 144.261719 189.359375 144.34375 C 188.007812 144.582031 187.566406 144.796875 187.464844 144.851562 Z M 246.058594 184.699219 Z M 244.195312 141.539062 Z M 244.476562 140.9375 L 243.929688 141.339844 Z M 252.328125 203.566406 C 252.328125 203.566406 241.292969 206.109375 238.078125 206.703125 C 237.554688 206.800781 249.285156 211.917969 249.761719 211.917969 C 250.238281 211.917969 264.328125 208.253906 264.449219 207.898438 C 264.566406 207.539062 252.328125 203.566406 252.328125 203.566406 Z M 252.328125 203.566406 " fill-opacity="1" fill-rule="nonzero"/></svg>