<svg xmlns="http://www.w3.org/2000/svg" xmlns:xlink="http://www.w3.org/1999/xlink" width="500" zoomAndPan="magnify" viewBox="0 0 375 374.999991" height="500" preserveAspectRatio="xMidYMid meet" version="1.0"><defs><filter x="0%" y="0%" width="100%" height="100%" id="42fb907d5f"><feColorMatrix values="0 0 0 0 1 0 0 0 0 1 0 0 0 0 1 0 0 0 1 0" color-interpolation-filters="sRGB"/></filter><g/><clipPath id="97c4380342"><path d="M 92 44 L 244 44 L 244 196 L 92 196 Z M 92 44 " clip-rule="nonzero"/></clipPath><clipPath id="b697ef3c95"><path d="M 239.203125 40.539062 L 250.953125 265.980469 L 27.003906 277.652344 L 15.257812 52.210938 Z M 239.203125 40.539062 " clip-rule="nonzero"/></clipPath><clipPath id="86d9b123d5"><path d="M 239.203125 40.539062 L 250.953125 265.980469 L 27.003906 277.652344 L 15.257812 52.210938 Z M 239.203125 40.539062 " clip-rule="nonzero"/></clipPath><clipPath id="5eb3d7b4f1"><path d="M 87 171 L 122 171 L 122 204 L 87 204 Z M 87 171 " clip-rule="nonzero"/></clipPath><clipPath id="1d5d407822"><path d="M 239.203125 40.539062 L 250.953125 265.980469 L 27.003906 277.652344 L 15.257812 52.210938 Z M 239.203125 40.539062 " clip-rule="nonzero"/></clipPath><clipPath id="beabe93d55"><path d="M 239.203125 40.539062 L 250.953125 265.980469 L 27.003906 277.652344 L 15.257812 52.210938 Z M 239.203125 40.539062 " clip-rule="nonzero"/></clipPath><clipPath id="d2f371b384"><path d="M 26 198 L 100 198 L 100 277 L 26 277 Z M 26 198 " clip-rule="nonzero"/></clipPath><clipPath id="c13e0c0e22"><path d="M 239.203125 40.539062 L 250.953125 265.980469 L 27.003906 277.652344 L 15.257812 52.210938 Z M 239.203125 40.539062 " clip-rule="nonzero"/></clipPath><clipPath id="315f5638f6"><path d="M 239.203125 40.539062 L 250.953125 265.980469 L 27.003906 277.652344 L 15.257812 52.210938 Z M 239.203125 40.539062 " clip-rule="nonzero"/></clipPath><clipPath id="cb816e1a38"><path d="M 114 67 L 193 67 L 193 142 L 114 142 Z M 114 67 " clip-rule="nonzero"/></clipPath><clipPath id="80dffce71e"><path d="M 239.203125 40.539062 L 250.953125 265.980469 L 27.003906 277.652344 L 15.257812 52.210938 Z M 239.203125 40.539062 " clip-rule="nonzero"/></clipPath><clipPath id="a8d3316edc"><path d="M 239.203125 40.539062 L 250.953125 265.980469 L 27.003906 277.652344 L 15.257812 52.210938 Z M 239.203125 40.539062 " clip-rule="nonzero"/></clipPath><clipPath id="c9d66192cb"><path d="M 95 52 L 236 52 L 236 193 L 95 193 Z M 95 52 " clip-rule="nonzero"/></clipPath><clipPath id="cb1253956d"><path d="M 231.570312 49.082031 L 242.5 258.796875 L 35.03125 269.609375 L 24.101562 59.894531 Z M 231.570312 49.082031 " clip-rule="nonzero"/></clipPath><clipPath id="44661ec9e5"><path d="M 231.570312 49.082031 L 242.5 258.796875 L 35.03125 269.609375 L 24.101562 59.894531 Z M 231.570312 49.082031 " clip-rule="nonzero"/></clipPath><clipPath id="a2838ed372"><path d="M 90 170 L 123 170 L 123 201 L 90 201 Z M 90 170 " clip-rule="nonzero"/></clipPath><clipPath id="e1888ab98b"><path d="M 231.570312 49.082031 L 242.5 258.796875 L 35.03125 269.609375 L 24.101562 59.894531 Z M 231.570312 49.082031 " clip-rule="nonzero"/></clipPath><clipPath id="2fe9f6fe77"><path d="M 231.570312 49.082031 L 242.5 258.796875 L 35.03125 269.609375 L 24.101562 59.894531 Z M 231.570312 49.082031 " clip-rule="nonzero"/></clipPath><clipPath id="d0117c543b"><path d="M 34 196 L 103 196 L 103 268 L 34 268 Z M 34 196 " clip-rule="nonzero"/></clipPath><clipPath id="c170c16c9a"><path d="M 231.570312 49.082031 L 242.5 258.796875 L 35.03125 269.609375 L 24.101562 59.894531 Z M 231.570312 49.082031 " clip-rule="nonzero"/></clipPath><clipPath id="4bd68edf27"><path d="M 231.570312 49.082031 L 242.5 258.796875 L 35.03125 269.609375 L 24.101562 59.894531 Z M 231.570312 49.082031 " clip-rule="nonzero"/></clipPath><clipPath id="deab63e5a7"><path d="M 116 73 L 189 73 L 189 144 L 116 144 Z M 116 73 " clip-rule="nonzero"/></clipPath><clipPath id="ebc5b7721f"><path d="M 231.570312 49.082031 L 242.5 258.796875 L 35.03125 269.609375 L 24.101562 59.894531 Z M 231.570312 49.082031 " clip-rule="nonzero"/></clipPath><clipPath id="bfed4a40e8"><path d="M 231.570312 49.082031 L 242.5 258.796875 L 35.03125 269.609375 L 24.101562 59.894531 Z M 231.570312 49.082031 " clip-rule="nonzero"/></clipPath><clipPath id="2cc86f0934"><path d="M 170.464844 95.542969 L 359.464844 95.542969 L 359.464844 245.542969 L 170.464844 245.542969 Z M 170.464844 95.542969 " clip-rule="nonzero"/></clipPath><mask id="4d1049c35d"><g filter="url(#42fb907d5f)"><rect x="-37.5" width="450" fill="#000000" y="-37.499999" height="449.999989" fill-opacity="0.4"/></g></mask><clipPath id="1ff5e77c2f"><path d="M 0.0390625 0.71875 L 131 0.71875 L 131 110.640625 L 0.0390625 110.640625 Z M 0.0390625 0.71875 " clip-rule="nonzero"/></clipPath><clipPath id="1180d59992"><rect x="0" width="132" y="0" height="111"/></clipPath></defs><rect x="-37.5" width="450" fill="#ffffff" y="-37.499999" height="449.999989" fill-opacity="1"/><rect x="-37.5" width="450" fill="#0cc0df" y="-37.499999" height="449.999989" fill-opacity="1"/><g clip-path="url(#97c4380342)"><g clip-path="url(#b697ef3c95)"><g clip-path="url(#86d9b123d5)"><path fill="#ffffff" d="M 92.546875 123.75 C 90.382812 82.234375 122.398438 46.695312 163.917969 44.53125 C 205.441406 42.367188 240.976562 74.378906 243.140625 115.902344 C 245.304688 157.425781 213.289062 192.957031 171.769531 195.121094 C 130.246094 197.285156 94.710938 165.265625 92.546875 123.75 Z M 230.757812 116.546875 C 230.648438 114.488281 230.441406 112.4375 230.132812 110.398438 C 229.824219 108.355469 229.414062 106.335938 228.90625 104.335938 C 228.398438 102.335938 227.796875 100.367188 227.09375 98.425781 C 226.394531 96.484375 225.601562 94.585938 224.710938 92.722656 C 223.824219 90.859375 222.847656 89.042969 221.78125 87.277344 C 220.714844 85.511719 219.566406 83.800781 218.332031 82.148438 C 217.097656 80.496094 215.785156 78.90625 214.394531 77.378906 C 213.003906 75.855469 211.542969 74.402344 210.011719 73.023438 C 208.476562 71.640625 206.882812 70.339844 205.21875 69.113281 C 203.558594 67.890625 201.84375 66.75 200.070312 65.695312 C 198.296875 64.640625 196.476562 63.671875 194.609375 62.796875 C 192.742188 61.921875 190.835938 61.136719 188.890625 60.449219 C 186.945312 59.757812 184.972656 59.167969 182.96875 58.671875 C 180.964844 58.175781 178.945312 57.78125 176.902344 57.484375 C 174.859375 57.1875 172.808594 56.992188 170.746094 56.894531 C 168.6875 56.800781 166.625 56.808594 164.566406 56.914062 C 162.503906 57.023438 160.453125 57.230469 158.414062 57.539062 C 156.375 57.847656 154.355469 58.253906 152.355469 58.761719 C 150.355469 59.269531 148.382812 59.875 146.445312 60.574219 C 144.503906 61.277344 142.601562 62.070312 140.738281 62.957031 C 138.875 63.84375 137.0625 64.820312 135.296875 65.886719 C 133.527344 66.953125 131.820312 68.105469 130.164062 69.339844 C 128.511719 70.570312 126.921875 71.882812 125.398438 73.273438 C 123.875 74.664062 122.421875 76.125 121.039062 77.660156 C 119.660156 79.191406 118.355469 80.789062 117.132812 82.449219 C 115.90625 84.109375 114.769531 85.828125 113.710938 87.601562 C 112.65625 89.371094 111.691406 91.191406 110.816406 93.0625 C 109.9375 94.929688 109.15625 96.835938 108.464844 98.78125 C 107.777344 100.722656 107.183594 102.699219 106.6875 104.703125 C 106.195312 106.703125 105.796875 108.726562 105.5 110.769531 C 105.203125 112.808594 105.007812 114.863281 104.914062 116.921875 C 104.816406 118.984375 104.824219 121.042969 104.933594 123.105469 C 105.039062 125.164062 105.246094 127.214844 105.554688 129.253906 C 105.863281 131.296875 106.273438 133.316406 106.78125 135.316406 C 107.289062 137.316406 107.890625 139.285156 108.59375 141.226562 C 109.292969 143.167969 110.085938 145.066406 110.976562 146.929688 C 111.863281 148.792969 112.839844 150.609375 113.90625 152.375 C 114.972656 154.140625 116.121094 155.851562 117.355469 157.503906 C 118.589844 159.15625 119.902344 160.746094 121.292969 162.273438 C 122.683594 163.796875 124.144531 165.25 125.675781 166.628906 C 127.210938 168.011719 128.804688 169.3125 130.46875 170.539062 C 132.128906 171.761719 133.84375 172.902344 135.617188 173.957031 C 137.390625 175.011719 139.210938 175.980469 141.078125 176.855469 C 142.945312 177.730469 144.851562 178.515625 146.796875 179.203125 C 148.742188 179.894531 150.714844 180.484375 152.71875 180.980469 C 154.722656 181.476562 156.746094 181.871094 158.785156 182.167969 C 160.828125 182.464844 162.878906 182.660156 164.941406 182.757812 C 167 182.851562 169.0625 182.84375 171.121094 182.738281 C 173.183594 182.628906 175.230469 182.417969 177.269531 182.105469 C 179.308594 181.796875 181.328125 181.386719 183.324219 180.875 C 185.324219 180.367188 187.292969 179.761719 189.234375 179.058594 C 191.171875 178.359375 193.070312 177.5625 194.933594 176.675781 C 196.792969 175.785156 198.609375 174.808594 200.375 173.742188 C 202.136719 172.675781 203.847656 171.523438 205.5 170.289062 C 207.152344 169.054688 208.738281 167.746094 210.265625 166.355469 C 211.789062 164.964844 213.238281 163.503906 214.621094 161.972656 C 216 160.4375 217.300781 158.84375 218.527344 157.183594 C 219.75 155.523438 220.890625 153.804688 221.945312 152.035156 C 223 150.261719 223.964844 148.441406 224.84375 146.578125 C 225.71875 144.710938 226.503906 142.804688 227.195312 140.859375 C 227.882812 138.917969 228.476562 136.945312 228.972656 134.941406 C 229.46875 132.941406 229.867188 130.917969 230.164062 128.878906 C 230.464844 126.839844 230.660156 124.789062 230.757812 122.726562 C 230.855469 120.667969 230.851562 118.609375 230.746094 116.546875 Z M 230.757812 116.546875 " fill-opacity="1" fill-rule="nonzero"/></g></g></g><g clip-path="url(#5eb3d7b4f1)"><g clip-path="url(#1d5d407822)"><g clip-path="url(#beabe93d55)"><path fill="#ffffff" d="M 87.242188 178.546875 C 87.207031 177.863281 87.269531 177.1875 87.433594 176.519531 C 87.597656 175.855469 87.855469 175.226562 88.207031 174.636719 C 88.554688 174.046875 88.984375 173.523438 89.492188 173.058594 C 89.996094 172.597656 90.558594 172.21875 91.175781 171.921875 C 91.796875 171.625 92.441406 171.425781 93.121094 171.320312 C 93.796875 171.214844 94.476562 171.210938 95.15625 171.308594 C 95.832031 171.40625 96.484375 171.597656 97.105469 171.886719 C 97.726562 172.175781 98.292969 172.550781 98.804688 173.007812 L 119.125 191.175781 C 119.496094 191.46875 119.832031 191.796875 120.136719 192.160156 C 120.441406 192.519531 120.703125 192.910156 120.929688 193.328125 C 121.152344 193.742188 121.332031 194.179688 121.46875 194.632812 C 121.605469 195.085938 121.691406 195.546875 121.734375 196.019531 C 121.773438 196.488281 121.769531 196.960938 121.714844 197.429688 C 121.660156 197.898438 121.554688 198.359375 121.40625 198.808594 C 121.257812 199.257812 121.066406 199.6875 120.828125 200.097656 C 120.59375 200.503906 120.316406 200.886719 120.003906 201.242188 C 119.6875 201.59375 119.339844 201.910156 118.960938 202.195312 C 118.582031 202.476562 118.175781 202.71875 117.75 202.917969 C 117.320312 203.117188 116.875 203.269531 116.414062 203.378906 C 115.953125 203.488281 115.488281 203.550781 115.015625 203.5625 C 114.542969 203.578125 114.074219 203.542969 113.605469 203.460938 C 113.140625 203.378906 112.6875 203.25 112.25 203.074219 C 111.808594 202.898438 111.390625 202.683594 110.996094 202.421875 C 110.601562 202.164062 110.238281 201.863281 109.902344 201.53125 L 89.585938 183.363281 C 88.886719 182.746094 88.335938 182.023438 87.929688 181.1875 C 87.523438 180.355469 87.296875 179.472656 87.242188 178.546875 Z M 87.242188 178.546875 " fill-opacity="1" fill-rule="nonzero"/></g></g></g><g clip-path="url(#d2f371b384)"><g clip-path="url(#c13e0c0e22)"><g clip-path="url(#315f5638f6)"><path fill="#ffffff" d="M 26.546875 265.148438 C 26.460938 263.546875 26.6875 261.992188 27.230469 260.484375 C 27.777344 258.976562 28.59375 257.632812 29.679688 256.457031 L 79.273438 202.710938 C 79.800781 202.136719 80.382812 201.617188 81.015625 201.15625 C 81.648438 200.695312 82.316406 200.300781 83.027344 199.972656 C 83.738281 199.644531 84.472656 199.390625 85.234375 199.207031 C 85.992188 199.023438 86.761719 198.917969 87.542969 198.882812 C 88.324219 198.851562 89.101562 198.898438 89.875 199.019531 C 90.648438 199.140625 91.398438 199.335938 92.132812 199.605469 C 92.867188 199.875 93.566406 200.214844 94.234375 200.621094 C 94.902344 201.03125 95.523438 201.5 96.097656 202.027344 C 96.671875 202.558594 97.191406 203.140625 97.652344 203.773438 C 98.109375 204.402344 98.503906 205.074219 98.832031 205.785156 C 99.160156 206.492188 99.417969 207.230469 99.601562 207.988281 C 99.785156 208.75 99.890625 209.519531 99.921875 210.300781 C 99.953125 211.082031 99.910156 211.859375 99.789062 212.632812 C 99.667969 213.402344 99.472656 214.15625 99.203125 214.890625 C 98.933594 215.625 98.59375 216.324219 98.183594 216.992188 C 97.777344 217.660156 97.308594 218.28125 96.777344 218.855469 L 47.1875 272.601562 C 46.390625 273.460938 45.488281 274.191406 44.480469 274.785156 C 43.472656 275.378906 42.398438 275.816406 41.261719 276.09375 C 40.121094 276.371094 38.96875 276.480469 37.800781 276.417969 C 36.628906 276.355469 35.492188 276.125 34.390625 275.726562 C 33.289062 275.328125 32.269531 274.78125 31.328125 274.082031 C 30.390625 273.382812 29.570312 272.5625 28.875 271.621094 C 28.175781 270.679688 27.628906 269.660156 27.230469 268.554688 C 26.835938 267.453125 26.609375 266.316406 26.546875 265.148438 Z M 26.546875 265.148438 " fill-opacity="1" fill-rule="nonzero"/></g></g></g><g clip-path="url(#cb816e1a38)"><g clip-path="url(#80dffce71e)"><g clip-path="url(#a8d3316edc)"><path fill="#ffffff" d="M 114.804688 122.464844 C 114.296875 112.765625 116.410156 99.800781 126.25 85.53125 C 134.886719 73 148.847656 66.703125 166.617188 67.316406 C 174.835938 67.632812 182.820312 69.167969 190.570312 71.925781 C 191.027344 72.105469 191.433594 72.367188 191.789062 72.707031 C 192.144531 73.046875 192.417969 73.441406 192.617188 73.894531 C 192.8125 74.34375 192.917969 74.8125 192.929688 75.304688 C 192.941406 75.796875 192.855469 76.269531 192.679688 76.730469 C 192.503906 77.1875 192.246094 77.59375 191.90625 77.953125 C 191.566406 78.308594 191.171875 78.585938 190.722656 78.785156 C 190.273438 78.988281 189.804688 79.09375 189.3125 79.105469 C 188.824219 79.121094 188.347656 79.039062 187.886719 78.867188 C 180.859375 76.40625 173.621094 75.03125 166.179688 74.746094 C 150.957031 74.269531 139.59375 79.316406 132.390625 89.75 C 114.621094 115.511719 125.570312 136.175781 125.6875 136.382812 C 125.9375 136.816406 126.089844 137.28125 126.152344 137.777344 C 126.214844 138.273438 126.179688 138.761719 126.042969 139.246094 C 125.90625 139.726562 125.683594 140.164062 125.375 140.554688 C 125.0625 140.945312 124.6875 141.261719 124.25 141.5 C 123.808594 141.742188 123.34375 141.886719 122.84375 141.9375 C 122.347656 141.992188 121.859375 141.945312 121.378906 141.796875 C 120.902344 141.652344 120.46875 141.421875 120.085938 141.101562 C 119.699219 140.78125 119.394531 140.402344 119.160156 139.957031 C 118.863281 139.441406 115.34375 132.816406 114.804688 122.464844 Z M 114.804688 122.464844 " fill-opacity="1" fill-rule="nonzero"/></g></g></g><g fill="#ffffff" fill-opacity="1"><g transform="translate(94.867227, 296.161796)"><g><path d="M 28.0625 -42.6875 C 23.988281 -42.6875 20.835938 -41.160156 18.609375 -38.109375 C 16.378906 -35.054688 15.265625 -30.800781 15.265625 -25.34375 C 15.265625 -13.976562 19.53125 -8.296875 28.0625 -8.296875 C 31.632812 -8.296875 35.960938 -9.191406 41.046875 -10.984375 L 41.046875 -1.921875 C 36.867188 -0.171875 32.203125 0.703125 27.046875 0.703125 C 19.628906 0.703125 13.957031 -1.546875 10.03125 -6.046875 C 6.101562 -10.546875 4.140625 -17 4.140625 -25.40625 C 4.140625 -30.707031 5.101562 -35.347656 7.03125 -39.328125 C 8.96875 -43.316406 11.738281 -46.375 15.34375 -48.5 C 18.957031 -50.625 23.195312 -51.6875 28.0625 -51.6875 C 33.007812 -51.6875 37.976562 -50.488281 42.96875 -48.09375 L 39.484375 -39.3125 C 37.578125 -40.21875 35.660156 -41.003906 33.734375 -41.671875 C 31.804688 -42.347656 29.914062 -42.6875 28.0625 -42.6875 Z M 28.0625 -42.6875 "/></g></g><g transform="translate(140.351907, 296.161796)"><g><path d="M 52.65625 -25.546875 C 52.65625 -17.109375 50.5625 -10.625 46.375 -6.09375 C 42.195312 -1.5625 36.207031 0.703125 28.40625 0.703125 C 20.59375 0.703125 14.59375 -1.5625 10.40625 -6.09375 C 6.226562 -10.625 4.140625 -17.128906 4.140625 -25.609375 C 4.140625 -34.097656 6.238281 -40.578125 10.4375 -45.046875 C 14.632812 -49.515625 20.644531 -51.75 28.46875 -51.75 C 36.300781 -51.75 42.289062 -49.492188 46.4375 -44.984375 C 50.582031 -40.484375 52.65625 -34.003906 52.65625 -25.546875 Z M 15.46875 -25.546875 C 15.46875 -19.847656 16.546875 -15.554688 18.703125 -12.671875 C 20.867188 -9.796875 24.101562 -8.359375 28.40625 -8.359375 C 37.019531 -8.359375 41.328125 -14.085938 41.328125 -25.546875 C 41.328125 -37.023438 37.039062 -42.765625 28.46875 -42.765625 C 24.175781 -42.765625 20.9375 -41.316406 18.75 -38.421875 C 16.5625 -35.523438 15.46875 -31.234375 15.46875 -25.546875 Z M 15.46875 -25.546875 "/></g></g><g transform="translate(197.164189, 296.161796)"><g><path d="M 48.6875 -25.96875 C 48.6875 -17.582031 46.296875 -11.15625 41.515625 -6.6875 C 36.742188 -2.226562 29.851562 0 20.84375 0 L 6.40625 0 L 6.40625 -50.953125 L 22.40625 -50.953125 C 30.726562 -50.953125 37.1875 -48.753906 41.78125 -44.359375 C 46.382812 -39.972656 48.6875 -33.84375 48.6875 -25.96875 Z M 37.46875 -25.6875 C 37.46875 -36.625 32.632812 -42.09375 22.96875 -42.09375 L 17.21875 -42.09375 L 17.21875 -8.921875 L 21.859375 -8.921875 C 32.265625 -8.921875 37.46875 -14.507812 37.46875 -25.6875 Z M 37.46875 -25.6875 "/></g></g><g transform="translate(250.003097, 296.161796)"><g><path d="M 35.75 0 L 6.40625 0 L 6.40625 -50.953125 L 35.75 -50.953125 L 35.75 -42.09375 L 17.21875 -42.09375 L 17.21875 -30.90625 L 34.46875 -30.90625 L 34.46875 -22.0625 L 17.21875 -22.0625 L 17.21875 -8.921875 L 35.75 -8.921875 Z M 35.75 0 "/></g></g></g><g fill="#ffffff" fill-opacity="1"><g transform="translate(289.990934, 296.161796)"><g/></g></g><g fill="#ffffff" fill-opacity="1"><g transform="translate(185.916439, 320.082336)"><g><path d="M 20.921875 -17.40625 L 20.921875 0 L 19.15625 0 L 19.15625 -13.9375 L 12.3125 -2.21875 L 11.4375 -2.21875 L 4.609375 -13.859375 L 4.609375 0 L 2.828125 0 L 2.828125 -17.40625 L 4.359375 -17.40625 L 11.921875 -4.5 L 19.40625 -17.40625 Z M 20.921875 -17.40625 "/></g></g></g><g fill="#ffffff" fill-opacity="1"><g transform="translate(215.330901, 320.082336)"><g><path d="M 15.15625 -1.59375 L 15.15625 0 L 2.828125 0 L 2.828125 -17.40625 L 14.78125 -17.40625 L 14.78125 -15.828125 L 4.671875 -15.828125 L 4.671875 -9.625 L 13.6875 -9.625 L 13.6875 -8.0625 L 4.671875 -8.0625 L 4.671875 -1.59375 Z M 15.15625 -1.59375 "/></g></g></g><g fill="#ffffff" fill-opacity="1"><g transform="translate(237.635116, 320.082336)"><g><path d="M 6.21875 -15.828125 L 0.09375 -15.828125 L 0.09375 -17.40625 L 14.171875 -17.40625 L 14.171875 -15.828125 L 8.0625 -15.828125 L 8.0625 0 L 6.21875 0 Z M 6.21875 -15.828125 "/></g></g></g><g fill="#ffffff" fill-opacity="1"><g transform="translate(257.577541, 320.082336)"><g><path d="M 14.71875 0 L 10.75 -5.59375 C 10.300781 -5.539062 9.835938 -5.515625 9.359375 -5.515625 L 4.671875 -5.515625 L 4.671875 0 L 2.828125 0 L 2.828125 -17.40625 L 9.359375 -17.40625 C 11.578125 -17.40625 13.316406 -16.875 14.578125 -15.8125 C 15.835938 -14.757812 16.46875 -13.300781 16.46875 -11.4375 C 16.46875 -10.082031 16.125 -8.9375 15.4375 -8 C 14.75 -7.0625 13.765625 -6.382812 12.484375 -5.96875 L 16.734375 0 Z M 9.296875 -7.09375 C 11.023438 -7.09375 12.34375 -7.472656 13.25 -8.234375 C 14.164062 -8.992188 14.625 -10.0625 14.625 -11.4375 C 14.625 -12.851562 14.164062 -13.9375 13.25 -14.6875 C 12.34375 -15.445312 11.023438 -15.828125 9.296875 -15.828125 L 4.671875 -15.828125 L 4.671875 -7.09375 Z M 9.296875 -7.09375 "/></g></g></g><g fill="#ffffff" fill-opacity="1"><g transform="translate(281.22426, 320.082336)"><g><path d="M 2.828125 -17.40625 L 4.671875 -17.40625 L 4.671875 0 L 2.828125 0 Z M 2.828125 -17.40625 "/></g></g></g><g fill="#ffffff" fill-opacity="1"><g transform="translate(294.404495, 320.082336)"><g><path d="M 10.390625 0.15625 C 8.671875 0.15625 7.117188 -0.222656 5.734375 -0.984375 C 4.347656 -1.753906 3.257812 -2.8125 2.46875 -4.15625 C 1.6875 -5.507812 1.296875 -7.023438 1.296875 -8.703125 C 1.296875 -10.378906 1.6875 -11.890625 2.46875 -13.234375 C 3.257812 -14.585938 4.347656 -15.644531 5.734375 -16.40625 C 7.128906 -17.175781 8.691406 -17.5625 10.421875 -17.5625 C 11.710938 -17.5625 12.90625 -17.34375 14 -16.90625 C 15.09375 -16.476562 16.023438 -15.851562 16.796875 -15.03125 L 15.625 -13.859375 C 14.257812 -15.234375 12.539062 -15.921875 10.46875 -15.921875 C 9.09375 -15.921875 7.84375 -15.601562 6.71875 -14.96875 C 5.59375 -14.34375 4.707031 -13.484375 4.0625 -12.390625 C 3.425781 -11.296875 3.109375 -10.066406 3.109375 -8.703125 C 3.109375 -7.347656 3.425781 -6.125 4.0625 -5.03125 C 4.707031 -3.9375 5.59375 -3.070312 6.71875 -2.4375 C 7.84375 -1.8125 9.09375 -1.5 10.46875 -1.5 C 12.5625 -1.5 14.28125 -2.191406 15.625 -3.578125 L 16.796875 -2.40625 C 16.023438 -1.582031 15.085938 -0.945312 13.984375 -0.5 C 12.890625 -0.0625 11.691406 0.15625 10.390625 0.15625 Z M 10.390625 0.15625 "/></g></g></g><g clip-path="url(#c9d66192cb)"><g clip-path="url(#cb1253956d)"><g clip-path="url(#44661ec9e5)"><path fill="#5271ff" d="M 95.476562 126.304688 C 93.46875 87.777344 123.175781 54.796875 161.707031 52.789062 C 200.238281 50.78125 233.214844 80.492188 235.222656 119.023438 C 237.230469 157.554688 207.523438 190.53125 168.992188 192.539062 C 130.460938 194.546875 97.484375 164.832031 95.476562 126.304688 Z M 223.730469 119.621094 C 223.632812 117.710938 223.4375 115.808594 223.152344 113.914062 C 222.863281 112.019531 222.488281 110.144531 222.015625 108.289062 C 221.546875 106.433594 220.984375 104.605469 220.335938 102.804688 C 219.683594 101.003906 218.945312 99.238281 218.121094 97.511719 C 217.300781 95.78125 216.390625 94.097656 215.402344 92.460938 C 214.414062 90.820312 213.347656 89.234375 212.203125 87.699219 C 211.058594 86.164062 209.839844 84.691406 208.550781 83.277344 C 207.257812 81.859375 205.902344 80.511719 204.480469 79.230469 C 203.058594 77.949219 201.574219 76.742188 200.035156 75.605469 C 198.492188 74.46875 196.898438 73.410156 195.253906 72.429688 C 193.609375 71.453125 191.921875 70.554688 190.1875 69.742188 C 188.453125 68.929688 186.683594 68.203125 184.878906 67.5625 C 183.074219 66.921875 181.246094 66.375 179.386719 65.914062 C 177.527344 65.453125 175.648438 65.085938 173.753906 64.8125 C 171.859375 64.535156 169.957031 64.355469 168.042969 64.265625 C 166.132812 64.175781 164.21875 64.183594 162.308594 64.28125 C 160.394531 64.382812 158.492188 64.574219 156.601562 64.863281 C 154.707031 65.148438 152.832031 65.527344 150.976562 66 C 149.121094 66.46875 147.292969 67.03125 145.492188 67.679688 C 143.691406 68.332031 141.925781 69.066406 140.199219 69.890625 C 138.46875 70.714844 136.785156 71.621094 135.144531 72.609375 C 133.507812 73.601562 131.917969 74.667969 130.386719 75.8125 C 128.851562 76.957031 127.375 78.175781 125.960938 79.464844 C 124.546875 80.753906 123.199219 82.109375 121.917969 83.535156 C 120.636719 84.957031 119.425781 86.4375 118.289062 87.980469 C 117.15625 89.519531 116.097656 91.113281 115.117188 92.757812 C 114.136719 94.402344 113.242188 96.09375 112.429688 97.828125 C 111.613281 99.558594 110.886719 101.328125 110.25 103.132812 C 109.609375 104.9375 109.058594 106.769531 108.597656 108.628906 C 108.140625 110.488281 107.773438 112.363281 107.496094 114.257812 C 107.222656 116.152344 107.039062 118.058594 106.953125 119.96875 C 106.863281 121.882812 106.867188 123.792969 106.96875 125.707031 C 107.070312 127.617188 107.261719 129.519531 107.546875 131.414062 C 107.835938 133.308594 108.214844 135.183594 108.683594 137.039062 C 109.15625 138.894531 109.714844 140.722656 110.367188 142.523438 C 111.015625 144.324219 111.753906 146.089844 112.578125 147.816406 C 113.402344 149.542969 114.308594 151.230469 115.296875 152.867188 C 116.285156 154.507812 117.351562 156.09375 118.5 157.628906 C 119.644531 159.164062 120.859375 160.636719 122.152344 162.050781 C 123.441406 163.46875 124.796875 164.816406 126.21875 166.097656 C 127.640625 167.378906 129.125 168.585938 130.664062 169.722656 C 132.207031 170.859375 133.800781 171.917969 135.445312 172.894531 C 137.089844 173.875 138.777344 174.773438 140.511719 175.585938 C 142.246094 176.398438 144.015625 177.125 145.820312 177.765625 C 147.625 178.40625 149.457031 178.953125 151.3125 179.414062 C 153.171875 179.875 155.050781 180.242188 156.945312 180.515625 C 158.839844 180.792969 160.742188 180.972656 162.65625 181.0625 C 164.566406 181.152344 166.480469 181.144531 168.390625 181.046875 C 170.304688 180.941406 172.207031 180.746094 174.097656 180.460938 C 175.988281 180.171875 177.863281 179.789062 179.71875 179.316406 C 181.570312 178.84375 183.398438 178.285156 185.199219 177.632812 C 187 176.980469 188.761719 176.242188 190.488281 175.417969 C 192.214844 174.59375 193.898438 173.6875 195.535156 172.695312 C 197.175781 171.707031 198.761719 170.640625 200.292969 169.492188 C 201.828125 168.347656 203.300781 167.132812 204.714844 165.839844 C 206.128906 164.550781 207.476562 163.195312 208.757812 161.773438 C 210.039062 160.351562 211.246094 158.871094 212.382812 157.328125 C 213.519531 155.789062 214.574219 154.195312 215.554688 152.550781 C 216.535156 150.90625 217.429688 149.21875 218.246094 147.488281 C 219.058594 145.753906 219.785156 143.988281 220.425781 142.183594 C 221.066406 140.378906 221.617188 138.550781 222.078125 136.691406 C 222.539062 134.835938 222.90625 132.957031 223.183594 131.066406 C 223.460938 129.171875 223.644531 127.269531 223.734375 125.355469 C 223.824219 123.445312 223.820312 121.535156 223.722656 119.621094 Z M 223.730469 119.621094 " fill-opacity="1" fill-rule="nonzero"/></g></g></g><g clip-path="url(#a2838ed372)"><g clip-path="url(#e1888ab98b)"><g clip-path="url(#2fe9f6fe77)"><path fill="#5271ff" d="M 90.554688 177.15625 C 90.519531 176.519531 90.578125 175.894531 90.730469 175.277344 C 90.882812 174.65625 91.121094 174.074219 91.449219 173.527344 C 91.773438 172.980469 92.171875 172.492188 92.640625 172.0625 C 93.109375 171.632812 93.628906 171.28125 94.203125 171.007812 C 94.777344 170.734375 95.378906 170.546875 96.007812 170.449219 C 96.636719 170.351562 97.265625 170.347656 97.894531 170.4375 C 98.527344 170.527344 99.128906 170.707031 99.707031 170.976562 C 100.285156 171.242188 100.808594 171.589844 101.285156 172.015625 L 120.140625 188.875 C 120.484375 189.148438 120.796875 189.453125 121.078125 189.789062 C 121.359375 190.125 121.605469 190.484375 121.8125 190.871094 C 122.023438 191.257812 122.1875 191.660156 122.316406 192.082031 C 122.441406 192.503906 122.523438 192.929688 122.5625 193.367188 C 122.597656 193.804688 122.59375 194.242188 122.542969 194.679688 C 122.492188 195.113281 122.394531 195.542969 122.257812 195.957031 C 122.121094 196.375 121.941406 196.773438 121.722656 197.152344 C 121.5 197.53125 121.246094 197.886719 120.953125 198.214844 C 120.660156 198.542969 120.339844 198.835938 119.988281 199.097656 C 119.636719 199.363281 119.261719 199.585938 118.863281 199.769531 C 118.464844 199.957031 118.050781 200.097656 117.625 200.199219 C 117.199219 200.300781 116.765625 200.359375 116.324219 200.371094 C 115.886719 200.382812 115.453125 200.351562 115.019531 200.273438 C 114.585938 200.199219 114.167969 200.078125 113.757812 199.917969 C 113.351562 199.753906 112.964844 199.554688 112.597656 199.3125 C 112.230469 199.070312 111.890625 198.792969 111.582031 198.484375 L 92.726562 181.625 C 92.082031 181.054688 91.570312 180.382812 91.191406 179.605469 C 90.816406 178.832031 90.601562 178.015625 90.554688 177.15625 Z M 90.554688 177.15625 " fill-opacity="1" fill-rule="nonzero"/></g></g></g><g clip-path="url(#d0117c543b)"><g clip-path="url(#c170c16c9a)"><g clip-path="url(#4bd68edf27)"><path fill="#5271ff" d="M 34.230469 257.519531 C 34.148438 256.035156 34.359375 254.589844 34.863281 253.191406 C 35.371094 251.792969 36.125 250.546875 37.136719 249.453125 L 83.15625 199.578125 C 83.648438 199.042969 84.1875 198.566406 84.773438 198.136719 C 85.363281 197.710938 85.984375 197.34375 86.640625 197.039062 C 87.300781 196.734375 87.984375 196.5 88.6875 196.328125 C 89.394531 196.15625 90.109375 196.058594 90.832031 196.027344 C 91.558594 196 92.277344 196.039062 92.996094 196.152344 C 93.710938 196.265625 94.410156 196.449219 95.09375 196.699219 C 95.773438 196.949219 96.421875 197.261719 97.042969 197.640625 C 97.660156 198.019531 98.238281 198.453125 98.769531 198.945312 C 99.304688 199.4375 99.785156 199.976562 100.210938 200.5625 C 100.640625 201.152344 101.003906 201.773438 101.308594 202.429688 C 101.613281 203.089844 101.851562 203.773438 102.019531 204.476562 C 102.191406 205.183594 102.292969 205.898438 102.320312 206.621094 C 102.351562 207.347656 102.308594 208.070312 102.195312 208.785156 C 102.082031 209.5 101.902344 210.199219 101.652344 210.882812 C 101.402344 211.5625 101.085938 212.210938 100.707031 212.832031 C 100.328125 213.449219 99.894531 214.027344 99.402344 214.558594 L 53.382812 264.4375 C 52.644531 265.234375 51.808594 265.910156 50.871094 266.460938 C 49.933594 267.015625 48.9375 267.417969 47.882812 267.675781 C 46.828125 267.933594 45.757812 268.035156 44.671875 267.976562 C 43.585938 267.917969 42.53125 267.707031 41.507812 267.335938 C 40.488281 266.96875 39.539062 266.457031 38.667969 265.808594 C 37.796875 265.160156 37.035156 264.398438 36.386719 263.527344 C 35.742188 262.652344 35.234375 261.707031 34.863281 260.683594 C 34.496094 259.660156 34.285156 258.605469 34.230469 257.519531 Z M 34.230469 257.519531 " fill-opacity="1" fill-rule="nonzero"/></g></g></g><g clip-path="url(#deab63e5a7)"><g clip-path="url(#ebc5b7721f)"><g clip-path="url(#bfed4a40e8)"><path fill="#5271ff" d="M 116.128906 125.113281 C 115.660156 116.113281 117.617188 104.082031 126.75 90.835938 C 134.765625 79.210938 147.722656 73.367188 164.210938 73.9375 C 171.839844 74.230469 179.25 75.65625 186.441406 78.214844 C 186.863281 78.378906 187.242188 78.621094 187.570312 78.9375 C 187.898438 79.253906 188.15625 79.621094 188.339844 80.039062 C 188.523438 80.457031 188.617188 80.894531 188.628906 81.347656 C 188.640625 81.804688 188.5625 82.246094 188.398438 82.671875 C 188.234375 83.097656 187.992188 83.476562 187.679688 83.804688 C 187.363281 84.136719 187 84.394531 186.582031 84.578125 C 186.164062 84.765625 185.730469 84.863281 185.273438 84.878906 C 184.816406 84.890625 184.375 84.816406 183.949219 84.652344 C 177.425781 82.371094 170.710938 81.097656 163.804688 80.832031 C 149.679688 80.386719 139.136719 85.070312 132.449219 94.753906 C 115.957031 118.660156 126.121094 137.835938 126.226562 138.027344 C 126.460938 138.429688 126.605469 138.863281 126.660156 139.324219 C 126.71875 139.785156 126.683594 140.238281 126.558594 140.683594 C 126.433594 141.128906 126.226562 141.535156 125.9375 141.898438 C 125.648438 142.261719 125.300781 142.554688 124.894531 142.777344 C 124.488281 143 124.054688 143.136719 123.589844 143.183594 C 123.128906 143.230469 122.675781 143.1875 122.234375 143.054688 C 121.789062 142.917969 121.386719 142.703125 121.03125 142.40625 C 120.675781 142.109375 120.386719 141.757812 120.175781 141.34375 C 119.894531 140.867188 116.628906 134.71875 116.128906 125.113281 Z M 116.128906 125.113281 " fill-opacity="1" fill-rule="nonzero"/></g></g></g><g clip-path="url(#2cc86f0934)"><path fill="#ffffff" d="M 346.808594 197.628906 C 341.847656 195.636719 335 193.222656 326.457031 190.457031 C 314.8125 186.6875 302.554688 183.082031 294.996094 181 C 295.121094 178.78125 295.183594 175.972656 295.199219 172.363281 C 295.234375 164.835938 295.015625 155.039062 294.578125 144.78125 C 292.847656 103.9375 290.242188 100.332031 289.128906 98.789062 C 287.199219 96.121094 284.296875 96 281.734375 95.890625 C 273.496094 95.550781 248.335938 96.34375 224.457031 97.703125 C 177.035156 100.398438 175.269531 102.460938 173.222656 104.847656 C 171.65625 106.671875 170.636719 108.863281 170.734375 122.121094 C 170.789062 129.578125 171.207031 139.28125 171.914062 149.445312 C 172.546875 158.613281 174.945312 189.460938 179.15625 201.511719 C 179.601562 202.789062 180.546875 205.492188 182.566406 207.394531 C 183.460938 211.183594 186.53125 214.429688 189.304688 216.277344 C 191.304688 217.613281 202.714844 224.699219 214.625 231.425781 C 236.5 243.78125 243.050781 245.445312 246.570312 245.445312 C 250.851562 245.445312 283.074219 237.601562 303.375 232.203125 C 318.058594 228.296875 330.453125 224.6875 339.21875 221.761719 C 344.539062 219.988281 348.535156 218.472656 351.4375 217.128906 C 354.222656 215.84375 359.40625 213.445312 359.40625 208.320312 C 359.40625 203.097656 354.183594 200.59375 346.808594 197.628906 Z M 346.808594 197.628906 C 341.847656 195.636719 335 193.222656 326.457031 190.457031 C 314.8125 186.6875 302.554688 183.082031 294.996094 181 C 295.121094 178.78125 295.183594 175.972656 295.199219 172.363281 C 295.234375 164.835938 295.015625 155.039062 294.578125 144.78125 C 292.847656 103.9375 290.242188 100.332031 289.128906 98.789062 C 287.199219 96.121094 284.296875 96 281.734375 95.890625 C 273.496094 95.550781 248.335938 96.34375 224.457031 97.703125 C 177.035156 100.398438 175.269531 102.460938 173.222656 104.847656 C 171.65625 106.671875 170.636719 108.863281 170.734375 122.121094 C 170.789062 129.578125 171.207031 139.28125 171.914062 149.445312 C 172.546875 158.613281 174.945312 189.460938 179.15625 201.511719 C 179.601562 202.789062 180.546875 205.492188 182.566406 207.394531 C 183.460938 211.183594 186.53125 214.429688 189.304688 216.277344 C 191.304688 217.613281 202.714844 224.699219 214.625 231.425781 C 236.5 243.78125 243.050781 245.445312 246.570312 245.445312 C 250.851562 245.445312 283.074219 237.601562 303.375 232.203125 C 318.058594 228.296875 330.453125 224.6875 339.21875 221.761719 C 344.539062 219.988281 348.535156 218.472656 351.4375 217.128906 C 354.222656 215.84375 359.40625 213.445312 359.40625 208.320312 C 359.40625 203.097656 354.183594 200.59375 346.808594 197.628906 Z M 346.808594 197.628906 " fill-opacity="1" fill-rule="nonzero"/></g><path fill="#5271ff" d="M 353.214844 208.320312 C 353.214844 214.804688 251.617188 239.253906 246.570312 239.253906 C 237.898438 239.253906 196.109375 213.375 192.742188 211.128906 C 189.375 208.882812 186.914062 204.667969 189.726562 203.320312 C 188.6875 203.367188 187.921875 203.347656 187.476562 203.261719 C 180.171875 201.859375 174.554688 112.808594 177.925781 108.875 C 181.296875 104.945312 282.824219 100.636719 284.109375 102.414062 C 287.761719 107.472656 290.570312 183.316406 288.042969 185.566406 C 298.5 188.121094 353.214844 204.175781 353.214844 208.320312 Z M 353.214844 208.320312 C 353.214844 214.804688 251.617188 239.253906 246.570312 239.253906 C 237.898438 239.253906 196.109375 213.375 192.742188 211.128906 C 189.375 208.882812 186.914062 204.667969 189.726562 203.320312 C 188.6875 203.367188 187.921875 203.347656 187.476562 203.261719 C 180.171875 201.859375 174.554688 112.808594 177.925781 108.875 C 181.296875 104.945312 282.824219 100.636719 284.109375 102.414062 C 287.761719 107.472656 290.570312 183.316406 288.042969 185.566406 C 298.5 188.121094 353.214844 204.175781 353.214844 208.320312 Z M 353.214844 208.320312 " fill-opacity="1" fill-rule="nonzero"/><g mask="url(#4d1049c35d)"><g transform="matrix(1, 0, 0, 1, 185, 108)"><g clip-path="url(#1180d59992)"><g clip-path="url(#1ff5e77c2f)"><path fill="#ffffff" d="M 96.6875 71.535156 C 94.507812 73.433594 16.183594 87.6875 9.878906 86.5 C 3.574219 85.3125 -1.273438 10.007812 1.636719 6.679688 C 4.546875 3.355469 92.183594 -0.285156 93.292969 1.21875 C 96.445312 5.492188 98.871094 69.632812 96.6875 71.535156 Z M 21.410156 98.703125 C 21.410156 98.703125 45.1875 110.242188 48.476562 110.496094 C 51.769531 110.75 130.1875 93.660156 130.695312 92.648438 C 131.199219 91.636719 102.378906 83.195312 100.882812 83.472656 C 47.570312 93.234375 21.410156 98.703125 21.410156 98.703125 Z M 21.410156 98.703125 " fill-opacity="1" fill-rule="nonzero"/></g></g></g></g><path fill="#000000" d="M 190.902344 204.253906 C 190.320312 204.3125 189.828125 203.710938 189.828125 203.175781 C 189.828125 202.550781 190.324219 202.15625 190.902344 202.097656 C 192.328125 201.953125 193.742188 201.609375 195.164062 201.421875 C 196.851562 201.199219 198.527344 200.996094 200.199219 200.671875 C 201.933594 200.335938 203.679688 200.082031 205.421875 199.800781 C 207.171875 199.519531 208.898438 199.136719 210.648438 198.878906 C 214.007812 198.386719 217.332031 197.773438 220.667969 197.148438 C 223.957031 196.535156 227.285156 196.152344 230.566406 195.523438 C 233.851562 194.894531 237.132812 194.234375 240.421875 193.621094 C 243.753906 193 247.121094 192.582031 250.441406 191.882812 C 256.867188 190.53125 263.375 189.628906 269.785156 188.214844 C 271.378906 187.863281 272.980469 187.613281 274.585938 187.335938 C 276.101562 187.074219 277.589844 186.695312 279.097656 186.402344 C 280.546875 186.117188 281.992188 185.832031 283.441406 185.5625 C 284.550781 185.355469 285.683594 185.242188 286.785156 184.996094 C 288.136719 184.6875 288.707031 186.765625 287.355469 187.070312 C 286.089844 187.359375 284.78125 187.488281 283.507812 187.734375 C 281.851562 188.058594 280.191406 188.355469 278.542969 188.714844 C 276.78125 189.097656 275.019531 189.429688 273.242188 189.726562 C 271.5 190.019531 269.789062 190.441406 268.054688 190.773438 C 266.476562 191.078125 264.914062 191.453125 263.328125 191.695312 C 261.648438 191.953125 259.984375 192.222656 258.320312 192.566406 C 256.65625 192.910156 254.984375 193.203125 253.3125 193.507812 C 251.6875 193.804688 250.082031 194.183594 248.453125 194.464844 C 245.109375 195.039062 241.765625 195.546875 238.4375 196.207031 C 235.125 196.863281 231.789062 197.601562 228.441406 198.058594 C 225.085938 198.519531 221.765625 199.160156 218.429688 199.757812 C 216.761719 200.058594 215.097656 200.414062 213.417969 200.65625 C 211.773438 200.894531 210.140625 201.125 208.511719 201.429688 C 206.988281 201.71875 205.460938 201.960938 203.925781 202.195312 C 202.324219 202.441406 200.742188 202.785156 199.144531 203.050781 C 197.699219 203.296875 196.238281 203.414062 194.789062 203.632812 C 193.496094 203.832031 192.207031 204.121094 190.902344 204.253906 Z M 190.902344 204.253906 C 190.320312 204.3125 189.828125 203.710938 189.828125 203.175781 C 189.828125 202.550781 190.324219 202.15625 190.902344 202.097656 C 192.328125 201.953125 193.742188 201.609375 195.164062 201.421875 C 196.851562 201.199219 198.527344 200.996094 200.199219 200.671875 C 201.933594 200.335938 203.679688 200.082031 205.421875 199.800781 C 207.171875 199.519531 208.898438 199.136719 210.648438 198.878906 C 214.007812 198.386719 217.332031 197.773438 220.667969 197.148438 C 223.957031 196.535156 227.285156 196.152344 230.566406 195.523438 C 233.851562 194.894531 237.132812 194.234375 240.421875 193.621094 C 243.753906 193 247.121094 192.582031 250.441406 191.882812 C 256.867188 190.53125 263.375 189.628906 269.785156 188.214844 C 271.378906 187.863281 272.980469 187.613281 274.585938 187.335938 C 276.101562 187.074219 277.589844 186.695312 279.097656 186.402344 C 280.546875 186.117188 281.992188 185.832031 283.441406 185.5625 C 284.550781 185.355469 285.683594 185.242188 286.785156 184.996094 C 288.136719 184.6875 288.707031 186.765625 287.355469 187.070312 C 286.089844 187.359375 284.78125 187.488281 283.507812 187.734375 C 281.851562 188.058594 280.191406 188.355469 278.542969 188.714844 C 276.78125 189.097656 275.019531 189.429688 273.242188 189.726562 C 271.5 190.019531 269.789062 190.441406 268.054688 190.773438 C 266.476562 191.078125 264.914062 191.453125 263.328125 191.695312 C 261.648438 191.953125 259.984375 192.222656 258.320312 192.566406 C 256.65625 192.910156 254.984375 193.203125 253.3125 193.507812 C 251.6875 193.804688 250.082031 194.183594 248.453125 194.464844 C 245.109375 195.039062 241.765625 195.546875 238.4375 196.207031 C 235.125 196.863281 231.789062 197.601562 228.441406 198.058594 C 225.085938 198.519531 221.765625 199.160156 218.429688 199.757812 C 216.761719 200.058594 215.097656 200.414062 213.417969 200.65625 C 211.773438 200.894531 210.140625 201.125 208.511719 201.429688 C 206.988281 201.71875 205.460938 201.960938 203.925781 202.195312 C 202.324219 202.441406 200.742188 202.785156 199.144531 203.050781 C 197.699219 203.296875 196.238281 203.414062 194.789062 203.632812 C 193.496094 203.832031 192.207031 204.121094 190.902344 204.253906 Z M 190.902344 204.253906 " fill-opacity="1" fill-rule="nonzero"/><path fill="#ffffff" d="M 195.933594 195.699219 C 195.257812 195.699219 194.902344 195.65625 194.671875 195.613281 C 193.53125 195.398438 192.628906 194.214844 191.746094 191.777344 C 191.449219 190.964844 191.230469 190.015625 190.996094 189.015625 C 190.914062 188.664062 190.832031 188.300781 190.738281 187.921875 C 190.640625 187.515625 190.523438 187.09375 190.402344 186.660156 C 190.179688 185.859375 189.953125 185.035156 189.773438 184.125 L 189.757812 184.042969 C 189.527344 182.847656 189.285156 181.613281 189.066406 180.289062 C 188.953125 179.59375 188.875 178.871094 188.800781 178.171875 C 188.738281 177.597656 188.675781 177.015625 188.589844 176.425781 C 188.511719 175.882812 188.410156 175.332031 188.308594 174.773438 C 188.179688 174.070312 188.046875 173.34375 187.953125 172.59375 C 187.847656 171.789062 187.757812 170.972656 187.664062 170.144531 C 187.613281 169.675781 187.5625 169.207031 187.507812 168.734375 C 187.421875 168.011719 187.355469 167.277344 187.289062 166.539062 C 187.238281 165.984375 187.1875 165.429688 187.128906 164.871094 C 187.054688 164.171875 187.003906 163.460938 186.953125 162.773438 C 186.914062 162.183594 186.871094 161.59375 186.8125 161.003906 C 186.769531 160.527344 186.71875 160.054688 186.671875 159.574219 C 186.589844 158.769531 186.507812 157.957031 186.4375 157.144531 C 186.324219 155.859375 186.214844 154.570312 186.113281 153.28125 C 186.066406 152.695312 186.007812 152.105469 185.945312 151.519531 C 185.875 150.820312 185.804688 150.121094 185.753906 149.421875 C 185.703125 148.6875 185.664062 147.953125 185.625 147.226562 C 185.597656 146.664062 185.570312 146.105469 185.53125 145.550781 C 185.496094 144.949219 185.441406 144.351562 185.386719 143.757812 C 185.324219 143.0625 185.261719 142.375 185.222656 141.691406 C 185.179688 140.90625 185.148438 140.128906 185.121094 139.359375 C 185.097656 138.839844 185.078125 138.328125 185.054688 137.816406 C 185.027344 137.273438 185 136.734375 184.96875 136.203125 C 184.925781 135.4375 184.882812 134.683594 184.855469 133.945312 C 184.828125 133.191406 184.832031 132.457031 184.839844 131.746094 C 184.84375 131.175781 184.847656 130.617188 184.835938 130.066406 C 184.820312 129.457031 184.789062 128.863281 184.757812 128.28125 C 184.71875 127.558594 184.679688 126.875 184.675781 126.1875 C 184.667969 125.328125 184.703125 124.527344 184.738281 123.75 C 184.757812 123.246094 184.78125 122.761719 184.789062 122.296875 C 184.796875 121.6875 184.785156 121.109375 184.777344 120.5625 C 184.761719 119.785156 184.75 119.050781 184.792969 118.371094 C 185.03125 114.898438 185.632812 114.207031 185.832031 113.980469 C 186.042969 113.738281 186.601562 113.097656 190.085938 112.492188 C 190.902344 112.351562 191.839844 112.234375 192.835938 112.117188 C 193.191406 112.070312 193.558594 112.027344 193.9375 111.980469 C 194.277344 111.9375 194.625 111.890625 194.980469 111.84375 C 195.867188 111.726562 196.78125 111.605469 197.769531 111.503906 L 198.285156 111.449219 C 199.339844 111.339844 200.445312 111.222656 201.601562 111.117188 C 202.28125 111.054688 202.984375 111.003906 203.699219 110.957031 C 204.269531 110.917969 204.847656 110.878906 205.433594 110.828125 C 205.992188 110.78125 206.5625 110.722656 207.136719 110.664062 C 207.832031 110.589844 208.542969 110.515625 209.261719 110.460938 C 209.925781 110.410156 210.597656 110.398438 211.25 110.390625 C 211.859375 110.378906 212.492188 110.367188 213.105469 110.324219 C 213.683594 110.285156 214.261719 110.234375 214.847656 110.1875 C 215.539062 110.125 216.234375 110.066406 216.9375 110.019531 C 217.511719 109.984375 218.089844 109.9375 218.671875 109.894531 C 219.367188 109.839844 220.066406 109.789062 220.769531 109.746094 C 221.371094 109.707031 221.972656 109.65625 222.574219 109.609375 C 223.246094 109.550781 223.921875 109.496094 224.601562 109.457031 C 225.273438 109.417969 225.949219 109.414062 226.601562 109.410156 C 227.207031 109.40625 227.835938 109.402344 228.441406 109.367188 C 229.054688 109.335938 229.664062 109.277344 230.273438 109.222656 C 230.925781 109.164062 231.597656 109.101562 232.273438 109.066406 C 232.949219 109.03125 233.628906 109.03125 234.277344 109.03125 C 234.914062 109.03125 235.511719 109.03125 236.113281 109.003906 C 236.722656 108.972656 237.351562 108.914062 237.957031 108.859375 C 238.605469 108.796875 239.273438 108.734375 239.941406 108.703125 C 240.554688 108.675781 241.167969 108.636719 241.777344 108.601562 C 242.445312 108.5625 243.109375 108.519531 243.773438 108.492188 C 244.46875 108.464844 245.152344 108.480469 245.808594 108.496094 C 246.4375 108.511719 247.03125 108.523438 247.617188 108.5 C 248.238281 108.476562 248.851562 108.441406 249.460938 108.410156 C 250.132812 108.371094 250.792969 108.335938 251.453125 108.3125 C 252.082031 108.289062 252.707031 108.242188 253.328125 108.199219 C 253.96875 108.152344 254.632812 108.105469 255.285156 108.082031 C 255.996094 108.058594 256.6875 108.066406 257.359375 108.074219 C 257.957031 108.078125 258.546875 108.085938 259.128906 108.066406 C 259.875 108.046875 260.609375 108.039062 261.328125 108.027344 C 261.886719 108.019531 262.433594 108.015625 262.96875 108.003906 L 264.3125 107.96875 C 265.175781 107.949219 266.007812 107.925781 266.808594 107.914062 C 267.46875 107.902344 268.113281 107.851562 268.738281 107.804688 C 269.402344 107.753906 270.03125 107.707031 270.65625 107.703125 C 271.589844 107.699219 272.457031 107.734375 273.21875 107.769531 C 273.679688 107.789062 274.113281 107.804688 274.515625 107.8125 C 278.386719 107.882812 278.804688 107.996094 279.207031 108.546875 C 279.691406 109.203125 279.964844 110.386719 280.386719 112.792969 C 280.449219 113.140625 280.523438 113.507812 280.597656 113.894531 C 280.765625 114.730469 280.953125 115.675781 281.082031 116.714844 C 281.230469 117.882812 281.375 119.207031 281.519531 120.648438 C 281.609375 121.53125 281.683594 122.449219 281.761719 123.402344 L 281.859375 124.578125 C 281.917969 125.265625 281.941406 125.972656 281.96875 126.65625 C 281.988281 127.265625 282.011719 127.898438 282.054688 128.519531 C 282.097656 129.097656 282.160156 129.683594 282.222656 130.277344 C 282.296875 130.976562 282.371094 131.703125 282.421875 132.441406 C 282.46875 133.199219 282.507812 133.964844 282.546875 134.738281 C 282.574219 135.277344 282.601562 135.824219 282.632812 136.375 C 282.671875 137.070312 282.695312 137.777344 282.714844 138.484375 C 282.734375 139.089844 282.753906 139.699219 282.785156 140.308594 C 282.828125 141.167969 282.863281 142.027344 282.902344 142.890625 L 283.003906 145.179688 C 283.046875 146.179688 283.09375 147.175781 283.132812 148.171875 C 283.15625 148.785156 283.210938 149.421875 283.265625 150.035156 C 283.328125 150.707031 283.390625 151.402344 283.414062 152.097656 C 283.4375 152.820312 283.433594 153.539062 283.429688 154.234375 C 283.429688 154.839844 283.425781 155.441406 283.441406 156.035156 C 283.457031 156.59375 283.476562 157.144531 283.496094 157.695312 C 283.519531 158.464844 283.542969 159.222656 283.558594 159.96875 C 283.574219 160.757812 283.570312 161.535156 283.570312 162.296875 C 283.566406 162.839844 283.566406 163.378906 283.570312 163.90625 C 283.574219 164.542969 283.601562 165.167969 283.628906 165.777344 C 283.65625 166.492188 283.6875 167.167969 283.683594 167.847656 C 283.679688 168.871094 283.65625 169.847656 283.632812 170.765625 L 283.605469 171.792969 C 283.578125 173.105469 283.503906 174.269531 283.441406 175.296875 L 283.410156 175.761719 C 283.199219 179.179688 282.9375 179.953125 282.4375 180.390625 C 282.195312 180.601562 281.863281 180.890625 278.308594 181.765625 C 277.199219 182.035156 275.84375 182.339844 274.542969 182.625 L 273.445312 182.871094 C 272.605469 183.058594 271.71875 183.261719 270.785156 183.457031 C 269.601562 183.703125 268.34375 183.960938 267.023438 184.230469 C 266.375 184.359375 265.710938 184.484375 265.03125 184.609375 C 264.445312 184.714844 263.851562 184.824219 263.25 184.945312 C 262.609375 185.070312 261.953125 185.164062 261.316406 185.257812 C 260.703125 185.347656 260.070312 185.4375 259.453125 185.558594 C 258.882812 185.667969 258.3125 185.8125 257.707031 185.964844 C 257.0625 186.125 256.398438 186.292969 255.707031 186.421875 C 255.050781 186.546875 254.390625 186.660156 253.71875 186.777344 C 253.125 186.878906 252.527344 186.984375 251.925781 187.097656 C 251.160156 187.238281 250.386719 187.378906 249.609375 187.519531 L 248.148438 187.785156 C 247.492188 187.90625 246.828125 187.996094 246.183594 188.085938 C 245.578125 188.171875 244.953125 188.257812 244.351562 188.367188 C 243.753906 188.476562 243.15625 188.589844 242.5625 188.707031 C 241.902344 188.835938 241.242188 188.964844 240.578125 189.082031 C 239.914062 189.203125 239.246094 189.308594 238.582031 189.414062 C 237.984375 189.507812 237.386719 189.605469 236.789062 189.707031 C 236.199219 189.8125 235.617188 189.953125 235.003906 190.105469 C 234.367188 190.261719 233.707031 190.421875 233.035156 190.535156 C 232.359375 190.652344 231.679688 190.722656 231.027344 190.789062 C 230.398438 190.855469 229.808594 190.917969 229.226562 191.015625 C 228.625 191.117188 228.011719 191.257812 227.414062 191.390625 C 226.78125 191.535156 226.125 191.683594 225.464844 191.792969 C 224.777344 191.90625 224.09375 191.976562 223.433594 192.042969 C 222.8125 192.101562 222.226562 192.164062 221.652344 192.253906 C 221.054688 192.351562 220.46875 192.453125 219.882812 192.554688 C 219.203125 192.671875 218.53125 192.785156 217.863281 192.890625 C 217.125 193.007812 216.394531 193.109375 215.679688 193.214844 C 215.132812 193.292969 214.59375 193.367188 214.0625 193.449219 C 213.4375 193.542969 212.824219 193.660156 212.21875 193.773438 C 211.582031 193.890625 210.921875 194.015625 210.277344 194.109375 C 209.476562 194.222656 208.695312 194.320312 207.9375 194.414062 C 207.4375 194.476562 206.945312 194.535156 206.464844 194.597656 C 206.019531 194.660156 205.585938 194.71875 205.160156 194.777344 C 204.277344 194.898438 203.4375 195.015625 202.644531 195.109375 C 202.183594 195.160156 201.738281 195.21875 201.3125 195.269531 C 200.414062 195.382812 199.5625 195.488281 198.796875 195.550781 C 197.464844 195.664062 196.5625 195.699219 195.933594 195.699219 Z M 187.441406 115.425781 C 187.347656 115.621094 187.078125 116.515625 186.945312 118.515625 C 186.902344 119.101562 186.917969 119.792969 186.929688 120.523438 C 186.941406 121.09375 186.953125 121.695312 186.941406 122.328125 C 186.933594 122.816406 186.910156 123.320312 186.886719 123.84375 C 186.855469 124.59375 186.820312 125.367188 186.828125 126.167969 C 186.835938 126.804688 186.871094 127.46875 186.90625 128.167969 C 186.9375 128.769531 186.972656 129.382812 186.988281 130.011719 C 187.003906 130.585938 186.996094 131.171875 186.992188 131.765625 C 186.988281 132.453125 186.980469 133.160156 187.007812 133.863281 C 187.035156 134.589844 187.074219 135.328125 187.117188 136.078125 C 187.148438 136.621094 187.179688 137.164062 187.207031 137.714844 C 187.230469 138.230469 187.25 138.75 187.269531 139.273438 C 187.300781 140.03125 187.332031 140.796875 187.375 141.570312 C 187.410156 142.230469 187.472656 142.894531 187.53125 143.5625 C 187.585938 144.175781 187.644531 144.792969 187.683594 145.414062 C 187.71875 145.976562 187.746094 146.546875 187.777344 147.113281 C 187.8125 147.828125 187.851562 148.546875 187.902344 149.265625 C 187.953125 149.945312 188.019531 150.625 188.089844 151.304688 C 188.152344 151.90625 188.210938 152.507812 188.261719 153.109375 C 188.363281 154.394531 188.46875 155.675781 188.582031 156.957031 C 188.652344 157.761719 188.734375 158.5625 188.816406 159.359375 C 188.863281 159.839844 188.910156 160.320312 188.957031 160.796875 C 189.015625 161.40625 189.058594 162.015625 189.101562 162.621094 C 189.152344 163.320312 189.199219 163.980469 189.269531 164.644531 C 189.328125 165.214844 189.382812 165.78125 189.433594 166.34375 C 189.5 167.0625 189.5625 167.78125 189.644531 168.484375 C 189.703125 168.960938 189.753906 169.4375 189.804688 169.90625 C 189.898438 170.71875 189.984375 171.523438 190.085938 172.316406 C 190.175781 173.011719 190.304688 173.710938 190.429688 174.386719 C 190.535156 174.972656 190.640625 175.546875 190.722656 176.117188 C 190.8125 176.734375 190.878906 177.34375 190.941406 177.941406 C 191.015625 178.640625 191.089844 179.300781 191.191406 179.9375 C 191.40625 181.230469 191.644531 182.453125 191.871094 183.632812 L 191.890625 183.714844 C 192.050781 184.539062 192.265625 185.324219 192.476562 186.085938 C 192.605469 186.542969 192.726562 186.984375 192.832031 187.414062 C 192.925781 187.796875 193.011719 188.167969 193.09375 188.527344 C 193.324219 189.503906 193.519531 190.351562 193.769531 191.042969 C 194.5625 193.222656 195.105469 193.507812 195.109375 193.507812 C 195.351562 193.550781 196.1875 193.609375 198.621094 193.40625 C 199.339844 193.347656 200.167969 193.242188 201.046875 193.132812 C 201.480469 193.078125 201.929688 193.023438 202.394531 192.96875 C 203.175781 192.878906 204 192.765625 204.867188 192.644531 C 205.292969 192.585938 205.730469 192.523438 206.179688 192.464844 C 206.667969 192.398438 207.167969 192.339844 207.675781 192.277344 C 208.417969 192.183594 209.1875 192.089844 209.972656 191.976562 C 210.570312 191.890625 211.179688 191.777344 211.820312 191.65625 C 212.449219 191.539062 213.089844 191.417969 213.742188 191.320312 C 214.277344 191.238281 214.824219 191.160156 215.375 191.082031 C 216.082031 190.980469 216.800781 190.878906 217.53125 190.761719 C 218.1875 190.660156 218.847656 190.546875 219.515625 190.429688 C 220.109375 190.328125 220.707031 190.226562 221.308594 190.128906 C 221.945312 190.027344 222.59375 189.960938 223.21875 189.898438 C 223.847656 189.835938 224.496094 189.769531 225.113281 189.667969 C 225.714844 189.570312 226.308594 189.433594 226.9375 189.292969 C 227.5625 189.148438 228.207031 189.003906 228.867188 188.890625 C 229.515625 188.78125 230.171875 188.714844 230.804688 188.648438 C 231.453125 188.582031 232.0625 188.515625 232.671875 188.414062 C 233.269531 188.3125 233.863281 188.164062 234.492188 188.011719 C 235.113281 187.859375 235.757812 187.703125 236.417969 187.585938 C 237.027344 187.480469 237.632812 187.382812 238.242188 187.289062 C 238.894531 187.183594 239.550781 187.078125 240.203125 186.964844 C 240.851562 186.847656 241.5 186.722656 242.148438 186.59375 C 242.753906 186.476562 243.363281 186.355469 243.96875 186.246094 C 244.613281 186.132812 245.261719 186.042969 245.886719 185.953125 C 246.535156 185.863281 247.148438 185.777344 247.757812 185.667969 L 249.226562 185.398438 C 250 185.257812 250.769531 185.121094 251.53125 184.976562 C 252.140625 184.863281 252.75 184.757812 253.351562 184.65625 C 254.011719 184.542969 254.664062 184.429688 255.308594 184.308594 C 255.933594 184.1875 256.566406 184.027344 257.179688 183.875 C 257.789062 183.722656 258.417969 183.5625 259.046875 183.441406 C 259.710938 183.3125 260.371094 183.21875 261.007812 183.125 C 261.644531 183.035156 262.246094 182.945312 262.832031 182.832031 C 263.445312 182.710938 264.046875 182.597656 264.640625 182.492188 C 265.308594 182.367188 265.960938 182.246094 266.59375 182.121094 C 267.910156 181.851562 269.164062 181.59375 270.34375 181.347656 C 271.269531 181.152344 272.144531 180.957031 272.972656 180.769531 L 274.078125 180.523438 C 275.367188 180.238281 276.707031 179.941406 277.796875 179.671875 C 279.796875 179.179688 280.605469 178.914062 280.921875 178.789062 C 281.003906 178.464844 281.136719 177.65625 281.261719 175.628906 L 281.289062 175.160156 C 281.355469 174.15625 281.425781 173.015625 281.453125 171.746094 L 281.480469 170.710938 C 281.503906 169.804688 281.527344 168.847656 281.53125 167.839844 C 281.53125 167.210938 281.503906 166.558594 281.476562 165.867188 C 281.449219 165.234375 281.421875 164.589844 281.417969 163.925781 C 281.410156 163.390625 281.414062 162.84375 281.414062 162.289062 C 281.417969 161.542969 281.421875 160.78125 281.40625 160.007812 C 281.390625 159.273438 281.367188 158.523438 281.34375 157.765625 C 281.324219 157.210938 281.304688 156.652344 281.289062 156.089844 C 281.273438 155.472656 281.277344 154.851562 281.277344 154.226562 C 281.28125 153.550781 281.28125 152.851562 281.261719 152.167969 C 281.238281 151.535156 281.183594 150.898438 281.121094 150.226562 C 281.066406 149.585938 281.007812 148.921875 280.980469 148.253906 C 280.941406 147.265625 280.898438 146.273438 280.851562 145.28125 L 280.75 142.984375 C 280.714844 142.125 280.675781 141.269531 280.632812 140.417969 C 280.601562 139.792969 280.582031 139.167969 280.5625 138.546875 C 280.542969 137.859375 280.523438 137.175781 280.484375 136.496094 C 280.453125 135.945312 280.425781 135.390625 280.398438 134.84375 C 280.359375 134.082031 280.320312 133.328125 280.269531 132.582031 C 280.226562 131.886719 280.152344 131.183594 280.082031 130.5 C 280.015625 129.886719 279.953125 129.277344 279.910156 128.675781 C 279.859375 128.011719 279.835938 127.359375 279.816406 126.730469 C 279.792969 126.042969 279.769531 125.394531 279.714844 124.761719 L 279.617188 123.578125 C 279.539062 122.640625 279.464844 121.734375 279.378906 120.863281 C 279.234375 119.4375 279.089844 118.132812 278.945312 116.980469 C 278.828125 116.019531 278.644531 115.113281 278.488281 114.3125 C 278.40625 113.910156 278.332031 113.527344 278.265625 113.164062 C 278.132812 112.410156 277.847656 110.796875 277.597656 110.097656 C 277.179688 110.050781 276.292969 110 274.476562 109.96875 C 274.058594 109.960938 273.609375 109.941406 273.128906 109.917969 C 272.386719 109.886719 271.554688 109.847656 270.667969 109.855469 C 270.121094 109.859375 269.53125 109.902344 268.90625 109.953125 C 268.246094 110.003906 267.566406 110.054688 266.84375 110.066406 C 266.050781 110.078125 265.222656 110.101562 264.367188 110.121094 L 263.019531 110.15625 C 262.476562 110.167969 261.921875 110.175781 261.355469 110.183594 C 260.648438 110.191406 259.925781 110.199219 259.191406 110.21875 C 258.582031 110.238281 257.964844 110.234375 257.339844 110.226562 C 256.691406 110.21875 256.019531 110.214844 255.355469 110.234375 C 254.746094 110.253906 254.132812 110.300781 253.480469 110.347656 C 252.839844 110.394531 252.1875 110.441406 251.53125 110.464844 C 250.886719 110.488281 250.238281 110.523438 249.582031 110.558594 C 248.960938 110.59375 248.332031 110.628906 247.703125 110.652344 C 247.046875 110.679688 246.394531 110.664062 245.757812 110.648438 C 245.105469 110.632812 244.488281 110.617188 243.867188 110.644531 C 243.214844 110.671875 242.5625 110.710938 241.90625 110.75 C 241.285156 110.789062 240.664062 110.828125 240.039062 110.855469 C 239.425781 110.882812 238.808594 110.941406 238.160156 111 C 237.527344 111.0625 236.875 111.121094 236.21875 111.15625 C 235.566406 111.1875 234.90625 111.183594 234.277344 111.183594 C 233.621094 111.183594 233.003906 111.183594 232.382812 111.214844 C 231.753906 111.25 231.101562 111.308594 230.472656 111.367188 C 229.835938 111.425781 229.199219 111.484375 228.5625 111.519531 C 227.902344 111.554688 227.246094 111.558594 226.613281 111.5625 C 225.960938 111.566406 225.34375 111.570312 224.726562 111.605469 C 224.066406 111.644531 223.410156 111.699219 222.753906 111.753906 C 222.132812 111.804688 221.519531 111.855469 220.902344 111.894531 C 220.210938 111.9375 219.519531 111.988281 218.835938 112.042969 C 218.246094 112.085938 217.660156 112.132812 217.078125 112.167969 C 216.390625 112.214844 215.707031 112.273438 215.03125 112.332031 C 214.4375 112.382812 213.84375 112.433594 213.257812 112.472656 C 212.585938 112.519531 211.925781 112.53125 211.285156 112.542969 C 210.636719 112.554688 210.027344 112.5625 209.425781 112.609375 C 208.726562 112.660156 208.039062 112.734375 207.359375 112.804688 C 206.769531 112.867188 206.1875 112.925781 205.613281 112.976562 C 205.015625 113.023438 204.425781 113.066406 203.847656 113.105469 C 203.148438 113.152344 202.464844 113.199219 201.796875 113.261719 C 200.652344 113.363281 199.554688 113.480469 198.511719 113.589844 L 197.992188 113.644531 C 197.035156 113.746094 196.136719 113.863281 195.261719 113.980469 C 194.902344 114.027344 194.550781 114.074219 194.210938 114.117188 C 193.824219 114.164062 193.453125 114.210938 193.09375 114.253906 C 192.085938 114.375 191.214844 114.480469 190.457031 114.613281 C 188.300781 114.988281 187.597656 115.332031 187.441406 115.425781 Z M 280.867188 178.957031 Z M 277.894531 110.144531 Z M 278.339844 109.183594 L 277.472656 109.820312 Z M 290.863281 209.046875 C 290.863281 209.046875 273.265625 213.097656 268.140625 214.046875 C 267.304688 214.199219 286.007812 222.359375 286.769531 222.359375 C 287.527344 222.359375 309.996094 216.519531 310.1875 215.949219 C 310.378906 215.378906 290.863281 209.046875 290.863281 209.046875 Z M 290.863281 209.046875 " fill-opacity="1" fill-rule="nonzero"/></svg>